<svg xmlns="http://www.w3.org/2000/svg" xmlns:xlink="http://www.w3.org/1999/xlink" width="500" zoomAndPan="magnify" viewBox="0 0 375 374.999991" height="500" preserveAspectRatio="xMidYMid meet" version="1.0"><path fill="#000000" d="M 186.710938 32.625 C 187.628906 32.578125 187.628906 32.578125 188.550781 32.890625 C 189.191406 33.59375 189.191406 33.59375 189.503906 34.03125 C 189.90625 34.519531 190.324219 34.816406 190.847656 35.171875 C 191.734375 35.808594 192.359375 36.492188 193.03125 37.355469 C 194.011719 38.605469 195.074219 39.667969 196.25 40.738281 C 198.460938 42.753906 200.464844 44.914062 202.421875 47.175781 C 203.542969 48.464844 204.734375 49.660156 206.035156 50.769531 C 207.40625 51.964844 208.683594 53.25 209.964844 54.539062 L 210.777344 55.355469 C 211.355469 55.9375 211.9375 56.519531 212.515625 57.097656 C 213.433594 58.019531 214.355469 58.941406 215.273438 59.863281 C 217.390625 61.984375 219.507812 64.105469 221.621094 66.226562 C 223.5625 68.171875 225.503906 70.117188 227.445312 72.0625 C 228.355469 72.976562 229.269531 73.890625 230.179688 74.804688 C 230.75 75.375 231.316406 75.945312 231.886719 76.515625 L 232.671875 77.300781 C 233.984375 78.625 235.308594 79.914062 236.726562 81.125 C 237.28125 81.605469 237.804688 82.113281 238.324219 82.632812 L 238.925781 83.230469 L 239.53125 83.839844 L 240.140625 84.445312 C 241.222656 85.527344 242.261719 86.644531 243.261719 87.804688 C 244.070312 88.71875 244.9375 89.578125 245.804688 90.4375 L 246.332031 90.972656 C 247.191406 91.828125 248.0625 92.65625 248.988281 93.449219 C 250.039062 94.355469 250.972656 95.34375 251.910156 96.367188 C 253.835938 98.441406 255.820312 100.441406 257.832031 102.425781 C 258.984375 103.566406 260.089844 104.71875 261.144531 105.949219 C 261.902344 106.8125 262.71875 107.625 263.535156 108.433594 L 264.058594 108.957031 C 265.082031 109.972656 266.128906 110.945312 267.234375 111.875 C 267.789062 112.375 268.210938 112.960938 268.675781 113.542969 C 268.988281 113.824219 269.304688 114.105469 269.628906 114.378906 C 271.25 115.765625 272.773438 117.261719 274.15625 118.890625 C 275.421875 120.339844 276.789062 121.683594 278.15625 123.039062 C 278.644531 123.527344 279.132812 124.011719 279.621094 124.5 C 280.65625 125.53125 281.695312 126.566406 282.730469 127.597656 C 283.933594 128.792969 285.136719 129.992188 286.339844 131.191406 C 286.816406 131.664062 287.296875 132.140625 287.773438 132.617188 C 289.125 133.960938 290.460938 135.304688 291.683594 136.769531 C 292.085938 137.214844 292.511719 137.59375 292.976562 137.972656 C 293.800781 138.65625 294.472656 139.398438 295.164062 140.207031 C 297.300781 142.664062 299.578125 144.996094 301.875 147.300781 L 302.460938 147.890625 L 303.03125 148.457031 L 303.527344 148.953125 C 304.039062 149.433594 304.558594 149.890625 305.089844 150.351562 C 306.453125 151.539062 307.726562 152.8125 309.007812 154.089844 L 309.789062 154.867188 C 310.328125 155.410156 310.871094 155.949219 311.410156 156.488281 C 312.101562 157.179688 312.792969 157.867188 313.484375 158.558594 C 314.023438 159.089844 314.558594 159.625 315.089844 160.160156 C 315.347656 160.414062 315.601562 160.667969 315.855469 160.921875 C 316.214844 161.277344 316.570312 161.632812 316.925781 161.988281 L 317.535156 162.597656 C 318.066406 163.195312 318.066406 163.195312 318.472656 163.878906 C 318.867188 164.53125 319.183594 164.816406 319.808594 165.234375 C 321.09375 166.15625 322.167969 167.234375 323.269531 168.355469 L 323.917969 169.007812 C 324.59375 169.691406 325.273438 170.375 325.945312 171.058594 C 326.621094 171.742188 327.300781 172.425781 327.976562 173.105469 C 328.394531 173.527344 328.8125 173.953125 329.230469 174.375 C 330.308594 175.464844 331.40625 176.503906 332.570312 177.496094 C 333.363281 178.1875 334.105469 178.921875 334.847656 179.664062 L 335.296875 180.105469 C 336.652344 181.453125 336.652344 181.453125 336.980469 182.371094 C 337.078125 183.160156 337.078125 183.160156 336.980469 183.949219 C 336.539062 184.441406 336.539062 184.441406 335.929688 185 L 335.421875 185.902344 C 334.535156 187.382812 333.257812 188.5 332.03125 189.695312 C 331.230469 190.480469 330.492188 191.300781 329.765625 192.15625 C 329.210938 192.789062 328.609375 193.375 328.007812 193.964844 C 327.542969 194.4375 327.105469 194.925781 326.671875 195.429688 C 325.699219 196.550781 324.6875 197.632812 323.664062 198.707031 L 322.550781 199.890625 L 322 200.472656 C 321.144531 201.378906 320.292969 202.292969 319.441406 203.207031 C 318.390625 204.347656 317.390625 205.535156 316.421875 206.746094 C 315.917969 207.359375 315.492188 207.824219 314.796875 208.214844 C 314.136719 208.636719 313.914062 208.890625 313.476562 209.519531 C 312.195312 211.3125 310.550781 212.796875 308.984375 214.339844 L 308.015625 215.304688 C 307.421875 215.894531 306.828125 216.484375 306.230469 217.070312 L 304.726562 218.558594 C 304.183594 219.109375 303.730469 219.664062 303.273438 220.285156 C 302.082031 221.839844 300.730469 223.164062 299.25 224.4375 C 297.921875 225.59375 296.683594 226.835938 295.441406 228.082031 L 294.75 228.769531 C 293.777344 229.746094 292.824219 230.714844 291.945312 231.777344 L 291.269531 232.550781 L 290.480469 232.8125 C 290.1875 233.214844 290.1875 233.214844 289.929688 233.71875 C 289.058594 235.179688 287.890625 236.296875 286.6875 237.488281 L 285.9375 238.238281 C 285.261719 238.917969 284.582031 239.589844 283.90625 240.265625 C 283.191406 240.972656 282.480469 241.683594 281.769531 242.394531 C 280.578125 243.589844 279.378906 244.78125 278.183594 245.972656 C 276.652344 247.496094 275.125 249.019531 273.597656 250.546875 C 272.277344 251.867188 270.957031 253.183594 269.636719 254.5 C 269.214844 254.921875 268.792969 255.339844 268.371094 255.761719 C 267.707031 256.425781 267.042969 257.089844 266.375 257.75 C 266.015625 258.105469 265.660156 258.464844 265.300781 258.820312 C 264.152344 259.964844 262.984375 261.070312 261.75 262.128906 C 260.789062 262.957031 259.902344 263.867188 259.003906 264.765625 L 258.40625 265.351562 L 257.832031 265.925781 L 257.320312 266.433594 C 256.824219 266.964844 256.824219 266.964844 256.449219 267.671875 L 256.066406 268.277344 L 255.277344 268.539062 C 254.925781 268.976562 254.574219 269.414062 254.226562 269.855469 L 253.703125 269.855469 L 253.4375 270.644531 C 253.007812 271 252.566406 271.351562 252.125 271.695312 L 251.863281 272.21875 L 251.074219 272.21875 L 250.933594 272.878906 C 250.402344 274.144531 249.566406 274.902344 248.589844 275.847656 L 248 276.429688 C 247.378906 277.042969 246.757812 277.652344 246.132812 278.261719 C 245.511719 278.871094 244.890625 279.480469 244.273438 280.09375 C 243.886719 280.472656 243.5 280.851562 243.113281 281.226562 C 242.328125 282 241.570312 282.765625 240.878906 283.628906 L 240.304688 284.304688 L 239.515625 284.566406 C 239.195312 284.992188 239.195312 284.992188 238.917969 285.519531 C 238.230469 286.671875 237.417969 287.558594 236.460938 288.492188 L 235.964844 288.988281 C 235.625 289.328125 235.277344 289.667969 234.933594 290.007812 C 234.410156 290.527344 233.886719 291.046875 233.367188 291.566406 C 233.03125 291.898438 232.695312 292.234375 232.355469 292.566406 L 231.890625 293.03125 C 230.964844 293.9375 230.007812 294.777344 229.007812 295.601562 C 228.5625 296.03125 228.125 296.472656 227.691406 296.914062 C 227.300781 297.300781 226.910156 297.691406 226.519531 298.078125 L 225.195312 299.394531 C 224.976562 299.613281 224.753906 299.832031 224.527344 300.054688 C 223.175781 301.402344 223.175781 301.402344 221.9375 302.851562 L 221.386719 303.480469 L 220.601562 303.480469 L 220.566406 303.925781 C 220.335938 304.53125 220.335938 304.53125 219.613281 305.15625 L 219.183594 305.496094 C 218.328125 306.207031 217.683594 307.117188 217.007812 307.992188 C 215.722656 309.636719 214.339844 311.128906 212.859375 312.597656 L 212.15625 313.296875 C 211.671875 313.78125 211.1875 314.265625 210.699219 314.75 C 209.960938 315.484375 209.222656 316.21875 208.484375 316.957031 L 206.402344 319.039062 C 205.28125 320.148438 204.144531 321.222656 202.941406 322.25 C 201.933594 323.128906 200.957031 324.050781 200.175781 325.140625 L 199.84375 325.550781 L 199.058594 325.550781 L 198.910156 326.074219 C 198.457031 327.019531 197.863281 327.675781 197.164062 328.445312 C 196.773438 328.878906 196.398438 329.324219 196.035156 329.785156 C 195.398438 330.519531 194.730469 331.105469 193.984375 331.722656 C 193.320312 332.3125 192.792969 333.011719 192.226562 333.691406 C 191.707031 334.136719 191.179688 334.574219 190.652344 335.007812 L 189.945312 335.714844 C 189.335938 336.320312 189.335938 336.320312 188.550781 336.847656 C 187.671875 336.789062 187.101562 336.660156 186.347656 336.207031 L 185.921875 335.796875 L 185.921875 335.269531 L 185.503906 335.09375 C 184.632812 334.613281 183.890625 333.988281 183.128906 333.347656 L 182.664062 332.972656 C 181.953125 332.375 181.503906 331.953125 181.089844 331.105469 L 180.929688 330.539062 L 180.40625 330.539062 C 179.976562 330.046875 179.976562 330.046875 179.617188 329.488281 L 179.617188 328.964844 L 179.164062 328.753906 C 177.4375 327.84375 176.078125 326.546875 174.886719 325.023438 C 174.070312 324.160156 173.195312 323.371094 172.308594 322.578125 C 169.039062 319.644531 169.039062 319.644531 168.578125 318.699219 C 168.277344 318.105469 168.003906 317.914062 167.449219 317.554688 C 166.351562 316.765625 165.402344 315.863281 164.445312 314.910156 L 164.003906 314.476562 C 163.121094 313.585938 162.445312 312.671875 161.753906 311.625 C 161.324219 311.238281 161.324219 311.238281 160.847656 310.953125 C 159.746094 310.167969 158.800781 309.261719 157.84375 308.308594 L 157.390625 307.859375 C 156.296875 306.761719 156.296875 306.761719 155.953125 306.0625 C 155.59375 305.355469 155.054688 305.078125 154.398438 304.648438 C 152.582031 303.375 150.910156 301.816406 149.78125 299.890625 C 149.398438 299.265625 149.121094 299.011719 148.519531 298.621094 C 147.417969 297.835938 146.46875 296.929688 145.515625 295.976562 L 145.066406 295.535156 C 144.4375 294.902344 143.921875 294.34375 143.460938 293.570312 C 143.046875 292.882812 142.671875 292.625 141.984375 292.21875 C 140.097656 291.015625 138.886719 289.609375 137.6875 287.734375 C 137.203125 287.023438 136.636719 286.464844 136.007812 285.878906 C 135.46875 285.367188 134.941406 284.84375 134.429688 284.304688 L 134.429688 283.777344 L 133.90625 283.777344 L 133.90625 283.253906 L 133.476562 283.074219 C 132.636719 282.609375 131.988281 282.0625 131.277344 281.414062 L 131.277344 280.886719 L 130.488281 280.625 L 130.488281 280.101562 L 129.910156 279.929688 C 129.003906 279.492188 128.535156 278.886719 127.925781 278.113281 C 126.375 276.226562 124.679688 274.496094 122.957031 272.769531 L 122.535156 272.347656 C 121.667969 271.480469 120.800781 270.617188 119.933594 269.753906 C 119.335938 269.160156 118.746094 268.570312 118.152344 267.976562 C 117.578125 267.402344 117 266.828125 116.425781 266.25 C 116.152344 265.980469 115.878906 265.707031 115.605469 265.433594 C 113.953125 263.765625 113.953125 263.765625 112.183594 262.222656 L 111.574219 261.710938 L 111.574219 261.183594 L 110.523438 260.660156 L 110.523438 260.132812 L 110.101562 259.972656 C 109.199219 259.449219 108.53125 258.742188 107.796875 258.003906 L 107.316406 257.523438 C 106.980469 257.1875 106.644531 256.851562 106.308594 256.511719 C 105.796875 256 105.285156 255.488281 104.773438 254.980469 L 103.792969 253.996094 L 103.332031 253.539062 C 102.449219 252.644531 101.75 251.738281 101.066406 250.675781 C 100.613281 250.234375 100.148438 249.808594 99.671875 249.394531 C 98.621094 248.464844 97.675781 247.527344 96.777344 246.453125 C 96.304688 245.910156 95.804688 245.414062 95.285156 244.914062 C 94.21875 243.859375 93.230469 242.734375 92.398438 241.480469 L 92.398438 240.957031 L 91.933594 240.746094 C 90.097656 239.765625 88.664062 238.023438 87.273438 236.507812 C 86.929688 236.132812 86.585938 235.761719 86.238281 235.390625 L 85.746094 234.863281 C 85.21875 234.300781 84.675781 233.746094 84.121094 233.207031 C 83.324219 232.421875 82.597656 231.597656 81.871094 230.75 C 81.054688 229.84375 80.175781 229.007812 79.296875 228.160156 C 78.789062 227.613281 78.523438 227.171875 78.210938 226.507812 L 77.683594 226.246094 L 77.683594 225.71875 L 77.128906 225.5625 C 76.109375 225.066406 75.515625 224.363281 74.777344 223.519531 L 73.964844 222.609375 L 73.582031 222.175781 C 73.265625 221.828125 72.933594 221.5 72.597656 221.175781 L 72.167969 220.726562 L 72.167969 220.203125 L 71.644531 220.203125 C 71.289062 219.851562 71.289062 219.851562 70.871094 219.347656 C 68.707031 216.816406 66.425781 214.429688 64.050781 212.09375 C 62.996094 211.050781 61.988281 209.984375 61.023438 208.855469 C 60.597656 208.367188 60.152344 207.914062 59.6875 207.460938 C 59.074219 206.859375 58.488281 206.226562 57.933594 205.574219 C 56.90625 204.394531 55.8125 203.300781 54.699219 202.207031 C 53.636719 201.164062 52.582031 200.125 51.613281 198.992188 C 50.265625 197.425781 48.773438 195.992188 47.308594 194.539062 L 46.417969 193.652344 C 45.871094 193.109375 45.328125 192.566406 44.78125 192.023438 C 43.792969 191.042969 42.808594 190.058594 41.835938 189.066406 C 39.5 186.667969 39.5 186.667969 36.894531 184.578125 C 36.371094 184.15625 36.019531 183.722656 35.652344 183.160156 C 35.488281 182.4375 35.488281 182.4375 35.652344 181.582031 C 36.925781 179.820312 38.625 178.316406 40.167969 176.789062 L 40.875 176.085938 C 41.304688 175.65625 41.738281 175.226562 42.171875 174.796875 C 42.714844 174.257812 43.253906 173.71875 43.796875 173.175781 L 44.582031 172.390625 L 45.125 171.832031 C 45.632812 171.339844 45.632812 171.339844 46.160156 171.074219 C 47.9375 171.074219 49.519531 171.636719 51.167969 172.242188 C 53.542969 173.066406 55.730469 173.519531 58.246094 173.703125 C 59.078125 173.765625 59.910156 173.832031 60.746094 173.898438 C 61.3125 173.941406 61.882812 173.984375 62.453125 174.023438 L 63.242188 174.078125 L 63.949219 174.128906 C 64.550781 174.226562 64.550781 174.226562 65.335938 174.753906 C 65.46875 175.433594 65.46875 175.433594 65.335938 176.328125 C 64.96875 177.125 64.5 177.84375 64.023438 178.578125 L 63.628906 179.207031 C 63.128906 180.003906 62.621094 180.792969 62.109375 181.582031 C 61.816406 182.035156 61.523438 182.488281 61.234375 182.945312 L 60.730469 183.714844 C 60.28125 184.601562 60.132812 185.320312 60.082031 186.3125 C 60.816406 187.460938 61.660156 188.101562 62.777344 188.851562 C 63.261719 189.222656 63.609375 189.613281 63.992188 190.089844 C 65.023438 191.355469 66.335938 192.257812 67.640625 193.222656 C 68.53125 193.914062 68.980469 194.589844 69.496094 195.578125 C 69.851562 196.101562 70.199219 196.355469 70.722656 196.707031 C 71.984375 197.582031 72.878906 198.699219 73.855469 199.871094 C 74.875 201.089844 75.957031 202.210938 77.089844 203.324219 C 79.210938 205.433594 79.210938 205.433594 79.886719 206.6875 C 80.335938 207.367188 80.742188 207.671875 81.394531 208.148438 C 82.628906 209.066406 83.503906 210.128906 84.449219 211.332031 C 85.015625 212.027344 85.609375 212.648438 86.257812 213.273438 C 87.21875 214.207031 88.019531 215.195312 88.820312 216.265625 C 89.265625 216.84375 89.265625 216.84375 90.015625 217.425781 C 90.957031 218.214844 91.628906 219.097656 92.378906 220.0625 C 92.875 220.671875 93.386719 221.203125 93.957031 221.746094 C 95.0625 222.8125 95.929688 224.011719 96.816406 225.261719 C 97.394531 225.988281 97.960938 226.480469 98.703125 227.03125 C 99.632812 227.738281 100.335938 228.4375 101.050781 229.363281 C 102.992188 231.789062 105.230469 233.972656 107.59375 235.988281 C 108.414062 236.71875 109.199219 237.480469 109.980469 238.246094 C 110.210938 238.46875 110.210938 238.46875 110.445312 238.691406 L 110.875 239.121094 L 111.265625 239.503906 C 111.574219 239.90625 111.574219 239.90625 111.683594 240.445312 L 111.835938 240.957031 C 112.328125 241.242188 112.328125 241.242188 112.886719 241.480469 C 113.328125 241.882812 113.328125 241.882812 113.761719 242.363281 L 114.261719 242.902344 L 114.792969 243.484375 C 116.476562 245.308594 118.199219 247.074219 119.992188 248.789062 L 120.496094 249.285156 L 120.945312 249.71875 C 121.339844 250.207031 121.453125 250.585938 121.558594 251.203125 L 122.082031 251.203125 L 122.082031 251.988281 L 122.511719 252.1875 C 123.949219 252.945312 124.964844 253.789062 126 255.023438 C 128.351562 257.78125 130.914062 260.332031 133.484375 262.886719 C 134.152344 263.550781 134.824219 264.21875 135.492188 264.886719 C 136.910156 266.300781 138.332031 267.71875 139.75 269.132812 C 141.402344 270.777344 143.050781 272.421875 144.699219 274.066406 C 145.359375 274.722656 146.015625 275.375 146.671875 276.03125 L 147.886719 277.242188 L 148.433594 277.785156 C 149.449219 278.800781 150.421875 279.851562 151.355469 280.941406 C 152.023438 281.707031 152.75 282.410156 153.476562 283.121094 C 154.40625 284.035156 155.3125 284.949219 156.152344 285.945312 C 157.609375 287.660156 159.382812 289.070312 161.09375 290.523438 C 161.691406 291.046875 162.242188 291.621094 162.804688 292.183594 C 163.097656 292.4375 163.394531 292.691406 163.691406 292.941406 C 164.820312 293.921875 165.890625 294.960938 166.957031 296.011719 L 167.480469 296.519531 C 168.222656 297.253906 168.777344 297.816406 169.210938 298.777344 C 169.660156 299.589844 169.894531 299.757812 170.660156 300.226562 C 172.261719 301.222656 173.527344 302.539062 174.839844 303.871094 C 175.269531 304.304688 175.699219 304.738281 176.132812 305.164062 C 176.40625 305.441406 176.679688 305.71875 176.957031 305.996094 L 177.34375 306.382812 C 177.984375 307.039062 178.457031 307.632812 178.828125 308.472656 C 179.230469 308.871094 179.230469 308.871094 179.714844 309.246094 C 180.902344 310.242188 181.921875 311.359375 182.953125 312.515625 C 183.871094 313.53125 184.769531 314.511719 186.054688 315.058594 L 186.710938 315.039062 C 187.160156 314.613281 187.597656 314.175781 188.023438 313.726562 C 188.296875 313.46875 188.574219 313.210938 188.851562 312.957031 C 190.6875 311.265625 192.488281 309.546875 194.246094 307.773438 L 194.828125 307.191406 C 195.613281 306.398438 196.394531 305.605469 197.179688 304.8125 C 197.761719 304.222656 198.34375 303.632812 198.925781 303.042969 L 199.457031 302.503906 C 200.40625 301.550781 201.332031 300.78125 202.472656 300.066406 L 203.261719 299.277344 L 203.785156 299.277344 L 203.949219 298.835938 C 204.355469 298.152344 204.855469 297.789062 205.476562 297.300781 C 205.9375 296.867188 206.210938 296.429688 206.527344 295.878906 C 207.175781 294.777344 207.960938 293.933594 209.039062 293.234375 L 209.609375 293.097656 L 210.089844 292.972656 L 210.304688 292.429688 C 210.773438 291.269531 211.570312 290.433594 212.457031 289.558594 C 212.980469 289.203125 213.503906 288.855469 214.03125 288.507812 C 214.453125 288.058594 214.84375 287.59375 215.234375 287.121094 C 216.210938 285.941406 217.363281 284.960938 218.515625 283.964844 C 219.316406 283.257812 220.054688 282.503906 220.78125 281.726562 L 221.125 281.414062 L 221.652344 281.414062 L 221.828125 280.972656 C 222.441406 279.898438 223.40625 279.125 224.296875 278.273438 C 224.859375 277.714844 225.324219 277.136719 225.785156 276.492188 C 226.617188 275.375 227.542969 274.398438 228.535156 273.421875 L 229.089844 272.871094 C 229.6875 272.273438 230.289062 271.679688 230.886719 271.085938 L 232.144531 269.832031 C 233.242188 268.738281 234.339844 267.644531 235.441406 266.550781 C 237.203125 264.800781 238.964844 263.046875 240.722656 261.292969 C 241.335938 260.683594 241.949219 260.074219 242.566406 259.464844 L 243.695312 258.339844 L 244.210938 257.828125 C 245.148438 256.890625 246.035156 255.910156 246.871094 254.878906 C 247.304688 254.4375 247.742188 254 248.183594 253.566406 C 248.503906 253.25 248.820312 252.933594 249.136719 252.617188 L 249.667969 252.089844 C 250.460938 251.300781 251.25 250.511719 252.042969 249.722656 C 252.457031 249.308594 252.875 248.890625 253.292969 248.476562 C 253.898438 247.875 254.503906 247.273438 255.105469 246.671875 L 255.667969 246.109375 C 256.5625 245.21875 257.390625 244.320312 258.167969 243.320312 C 258.726562 242.84375 258.726562 242.84375 259.21875 242.53125 L 259.742188 242.53125 L 259.925781 242.089844 C 260.367188 241.308594 260.917969 240.765625 261.582031 240.167969 L 262.109375 240.167969 L 262.308594 239.585938 C 262.660156 238.796875 263.050781 238.304688 263.636719 237.671875 L 264.269531 236.984375 C 265.226562 235.992188 266.203125 235.027344 267.1875 234.0625 C 268.164062 233.09375 269.011719 232.082031 269.828125 230.972656 C 270.433594 230.226562 271.132812 229.632812 271.867188 229.019531 C 272.507812 228.480469 273.085938 227.894531 273.667969 227.296875 L 274.175781 226.835938 C 274.671875 226.296875 275.011719 225.789062 275.398438 225.171875 C 276.304688 223.796875 277.394531 222.699219 278.578125 221.566406 C 278.972656 221.179688 279.367188 220.796875 279.761719 220.410156 L 280.285156 219.90625 C 280.777344 219.417969 280.777344 219.417969 281.183594 218.824219 L 281.546875 218.363281 L 282.074219 218.363281 L 282.335938 217.574219 L 282.863281 217.574219 L 283.125 216.785156 C 283.425781 216.472656 283.734375 216.167969 284.042969 215.867188 C 284.472656 215.441406 284.867188 214.996094 285.257812 214.539062 C 286.078125 213.597656 286.910156 212.664062 287.753906 211.746094 L 288.117188 211.347656 C 288.886719 210.511719 289.652344 209.679688 290.480469 208.90625 L 291.007812 208.90625 L 291.152344 208.378906 C 291.703125 207.234375 292.511719 206.417969 293.371094 205.492188 L 294.207031 204.582031 C 295.480469 203.199219 296.761719 201.824219 298.097656 200.5 L 298.542969 200.023438 L 298.886719 199.710938 L 299.414062 199.710938 L 299.605469 199.132812 C 299.980469 198.308594 300.417969 197.792969 301.039062 197.132812 C 301.96875 196.132812 302.859375 195.117188 303.71875 194.0625 L 304.140625 193.667969 L 304.6875 193.5625 L 305.191406 193.40625 L 305.425781 192.804688 C 305.75 192.015625 306.097656 191.632812 306.710938 191.050781 L 307.3125 190.46875 L 307.953125 189.859375 C 310.785156 187.128906 310.785156 187.128906 313.074219 183.949219 C 313.277344 183.296875 313.277344 183.296875 313.074219 182.632812 C 312.628906 182.050781 312.148438 181.496094 311.628906 180.976562 L 311.191406 180.519531 C 310.769531 180.085938 310.347656 179.652344 309.921875 179.21875 L 309.316406 178.59375 C 308.492188 177.75 307.625 176.945312 306.71875 176.183594 C 305.902344 175.484375 305.332031 174.773438 304.738281 173.882812 C 304.246094 173.230469 303.640625 172.746094 303.007812 172.230469 C 302.566406 171.863281 302.566406 171.863281 301.941406 171.222656 C 301.375 170.667969 300.828125 170.222656 300.199219 169.753906 C 298.742188 168.628906 297.457031 167.367188 296.160156 166.066406 L 295.457031 165.371094 L 294.777344 164.695312 L 294.167969 164.089844 C 293.582031 163.394531 293.238281 162.695312 292.84375 161.878906 C 292.363281 161.46875 292.363281 161.46875 291.792969 161.175781 C 289.800781 159.9375 288.242188 158.171875 286.71875 156.410156 C 285.71875 155.257812 284.664062 154.171875 283.585938 153.097656 L 282.992188 152.503906 C 281.71875 151.242188 280.421875 150.066406 279 148.96875 C 278.308594 148.410156 277.707031 147.800781 277.082031 147.167969 L 274.0625 144.152344 C 270.199219 140.296875 266.339844 136.4375 262.476562 132.578125 C 260.246094 130.347656 258.015625 128.117188 255.78125 125.886719 C 253.832031 123.941406 251.882812 121.992188 249.933594 120.042969 C 248.902344 119.015625 247.871094 117.984375 246.839844 116.953125 C 245.871094 115.984375 244.898438 115.015625 243.929688 114.046875 C 243.578125 113.691406 243.222656 113.335938 242.867188 112.984375 C 239.6875 109.8125 239.6875 109.8125 238.296875 108.179688 C 237.789062 107.585938 237.246094 107.03125 236.695312 106.480469 L 236.007812 105.789062 L 235.285156 105.066406 L 234.527344 104.304688 C 234 103.777344 233.476562 103.25 232.949219 102.722656 C 232.277344 102.050781 231.605469 101.375 230.933594 100.703125 C 230.414062 100.179688 229.894531 99.65625 229.371094 99.136719 C 229.003906 98.769531 228.640625 98.398438 228.273438 98.03125 C 226.949219 96.691406 226.949219 96.691406 225.445312 95.566406 L 224.804688 95.152344 L 224.539062 94.363281 C 224.183594 93.992188 224.183594 93.992188 223.734375 93.640625 C 221.917969 92.148438 220.1875 90.5625 218.546875 88.878906 C 217.382812 87.699219 216.230469 86.566406 214.917969 85.546875 C 213.519531 84.449219 212.355469 83.1875 211.164062 81.875 C 210.121094 80.738281 209.046875 79.691406 207.851562 78.710938 L 207.464844 78.339844 L 207.464844 77.8125 L 206.9375 77.8125 C 206.632812 77.4375 206.328125 77.058594 206.027344 76.679688 C 205.609375 76.21875 205.1875 75.898438 204.679688 75.542969 C 203.363281 74.574219 202.25 73.441406 201.109375 72.28125 L 200.488281 71.652344 C 199.683594 70.835938 198.878906 70.019531 198.082031 69.199219 C 197.445312 68.582031 196.78125 68.035156 196.085938 67.484375 C 194.445312 66.152344 192.976562 64.75 191.636719 63.117188 C 190.320312 61.601562 188.675781 60.113281 186.769531 59.417969 C 186.066406 59.253906 186.066406 59.253906 185.132812 59.160156 L 184.902344 59.640625 C 184.53125 60.359375 184.101562 60.929688 183.558594 61.523438 L 182.769531 61.523438 L 182.507812 62.3125 L 181.980469 62.3125 L 181.949219 62.882812 C 181.71875 63.625 181.71875 63.625 181.046875 64.289062 C 180.746094 64.527344 180.445312 64.769531 180.140625 65.003906 C 178.347656 66.46875 176.722656 68.058594 175.113281 69.722656 C 174.136719 70.726562 173.222656 71.613281 172 72.296875 L 171.210938 72.296875 L 170.949219 73.082031 L 170.421875 73.082031 L 170.160156 73.871094 L 169.632812 73.871094 L 169.585938 74.332031 C 169.371094 74.921875 169.371094 74.921875 168.730469 75.496094 C 168.058594 75.972656 168.058594 75.972656 167.53125 76.238281 C 164.144531 76.488281 160.890625 76.003906 157.550781 75.46875 C 155.46875 75.140625 153.375 74.894531 151.277344 74.671875 C 149.898438 74.515625 148.625 74.304688 147.304688 73.871094 C 147.703125 72.554688 148.472656 71.691406 149.40625 70.71875 C 149.734375 70.429688 150.066406 70.140625 150.402344 69.855469 C 151.425781 68.96875 152.335938 68.023438 153.246094 67.023438 C 155.382812 64.71875 157.605469 62.496094 159.832031 60.277344 L 160.363281 59.746094 C 161.308594 58.804688 162.253906 57.863281 163.199219 56.921875 C 163.570312 56.554688 163.945312 56.183594 164.320312 55.8125 C 164.960938 55.160156 165.527344 54.472656 166.105469 53.757812 C 168.445312 50.925781 171.148438 48.402344 173.777344 45.839844 C 174.46875 45.128906 175.097656 44.375 175.726562 43.609375 C 177.488281 41.5 179.394531 39.59375 181.488281 37.808594 C 182.183594 37.167969 182.777344 36.457031 183.386719 35.738281 C 184 35.054688 184.679688 34.515625 185.398438 33.941406 L 186.035156 33.183594 Z M 186.710938 32.625 " fill-opacity="1" fill-rule="nonzero"/><path fill="#000000" d="M 186.25 93.585938 C 196.398438 98.097656 206.140625 104.117188 214.292969 111.703125 C 214.628906 111.992188 214.960938 112.285156 215.296875 112.574219 C 217.671875 114.644531 219.964844 116.808594 222.171875 119.0625 C 222.929688 119.832031 223.703125 120.566406 224.523438 121.269531 C 225.632812 122.226562 226.621094 123.269531 227.609375 124.34375 C 227.945312 124.707031 228.28125 125.070312 228.617188 125.429688 L 229.09375 125.949219 C 229.460938 126.335938 229.839844 126.71875 230.226562 127.089844 C 230.953125 127.835938 231.566406 128.636719 232.191406 129.46875 C 233.128906 130.6875 234.089844 131.796875 235.195312 132.867188 C 236.34375 133.976562 237.3125 135.128906 238.261719 136.402344 C 239.046875 137.453125 239.871094 138.457031 240.730469 139.453125 C 241.597656 140.460938 242.421875 141.484375 243.191406 142.570312 C 244.0625 143.789062 245 144.933594 245.972656 146.066406 C 246.949219 147.207031 247.898438 148.367188 248.839844 149.53125 C 249.925781 150.871094 251.015625 152.207031 252.125 153.523438 L 252.796875 154.320312 C 253.425781 155.035156 254.074219 155.699219 254.753906 156.363281 C 254.417969 155.476562 254.035156 154.679688 253.539062 153.871094 L 253.125 153.199219 L 252.683594 152.488281 L 252.222656 151.746094 C 250.90625 149.648438 249.503906 147.621094 248.054688 145.617188 C 247.359375 144.652344 246.671875 143.6875 245.984375 142.71875 L 245.582031 142.152344 C 244.753906 140.976562 243.980469 139.785156 243.292969 138.519531 C 242.925781 137.929688 242.925781 137.929688 242.308594 137.363281 C 241.53125 136.574219 240.976562 135.75 240.386719 134.820312 C 239.234375 133.058594 238.003906 131.382812 236.699219 129.730469 C 236.355469 129.296875 236.015625 128.859375 235.675781 128.421875 C 233.613281 125.777344 231.503906 123.175781 229.371094 120.589844 C 228.808594 119.90625 228.25 119.21875 227.691406 118.53125 L 227.199219 117.9375 L 226.757812 117.382812 L 226.378906 116.917969 C 226.117188 116.429688 226.117188 116.429688 226.078125 115.714844 L 226.117188 115.117188 C 227.609375 115.257812 228.765625 115.664062 230.105469 116.316406 L 230.703125 116.601562 C 235.148438 118.792969 238.980469 122.15625 242.601562 125.507812 L 243.003906 125.878906 C 243.382812 126.226562 243.757812 126.578125 244.132812 126.929688 C 244.867188 127.597656 245.632812 128.210938 246.402344 128.832031 C 247.933594 130.074219 249.328125 131.417969 250.714844 132.816406 L 251.410156 133.507812 C 252.792969 134.894531 254.0625 136.332031 255.289062 137.859375 C 255.882812 138.597656 256.503906 139.296875 257.148438 139.992188 C 258.992188 141.988281 260.71875 144.03125 262.355469 146.199219 L 262.910156 146.9375 C 263.433594 147.625 263.953125 148.316406 264.472656 149.007812 L 264.867188 149.527344 C 265.167969 149.925781 265.46875 150.328125 265.769531 150.730469 L 266.238281 151.355469 C 266.574219 151.898438 266.574219 151.898438 266.691406 152.460938 L 266.835938 152.949219 L 267.308594 153.175781 C 267.992188 153.527344 268.285156 153.964844 268.699219 154.601562 L 269.003906 155.082031 L 269.703125 156.160156 L 270.09375 156.761719 C 271.429688 158.824219 272.808594 160.863281 274.175781 162.910156 C 274.53125 163.4375 274.882812 163.96875 275.238281 164.5 C 277.269531 167.550781 279.351562 170.5 281.726562 173.292969 C 282.019531 173.640625 282.308594 173.992188 282.59375 174.34375 C 284.535156 176.695312 287.132812 178.4375 289.546875 180.277344 C 290.21875 180.796875 290.21875 180.796875 290.480469 181.058594 C 290.578125 181.664062 290.578125 181.664062 290.480469 182.371094 C 288.875 183.941406 286.554688 184.433594 284.4375 185 C 277.644531 186.660156 269.910156 186.253906 263.226562 184.324219 C 254.023438 181.480469 245.96875 176.402344 238.292969 170.703125 C 236.640625 169.484375 234.929688 168.355469 233.214844 167.222656 C 232.347656 166.648438 231.480469 166.074219 230.617188 165.5 L 230.09375 165.152344 C 226.953125 163.066406 223.816406 160.972656 220.730469 158.808594 C 218.5625 157.289062 216.359375 155.816406 214.125 154.394531 C 213.425781 153.945312 212.726562 153.496094 212.03125 153.042969 C 206.308594 149.347656 200.535156 145.738281 194.507812 142.550781 C 193.78125 142.164062 193.058594 141.777344 192.332031 141.382812 C 183.703125 136.761719 174.480469 133.1875 165.066406 130.507812 C 164.882812 130.453125 164.699219 130.402344 164.507812 130.347656 C 163.605469 130.089844 162.703125 129.839844 161.800781 129.589844 L 160.8125 129.316406 L 159.9375 129.078125 C 158.679688 128.617188 157.761719 127.9375 156.808594 127.003906 C 155.5 125.40625 154.570312 123.507812 153.609375 121.683594 L 153.203125 120.925781 C 151.488281 117.472656 150.976562 113.753906 151.195312 109.941406 C 151.464844 106.582031 152.285156 103.222656 154.167969 100.390625 C 155.851562 98.125 157.863281 95.921875 160.027344 94.117188 C 160.59375 93.644531 161.074219 93.191406 161.570312 92.640625 C 162.953125 91.386719 164.613281 90.710938 166.398438 90.210938 C 173.304688 88.792969 179.957031 90.867188 186.25 93.585938 M 162.621094 156.527344 L 163.582031 156.515625 C 166.472656 156.53125 169.128906 157.015625 171.6875 158.382812 L 172.171875 158.636719 C 172.554688 158.839844 172.933594 159.046875 173.3125 159.253906 C 173.347656 160.5 173.246094 161.566406 172.9375 162.773438 L 172.699219 163.722656 L 172.441406 164.722656 C 171.289062 169.355469 170.46875 173.640625 170.683594 178.429688 L 170.71875 179.203125 C 171.128906 187.5625 172.730469 196.101562 176.464844 203.652344 L 176.785156 204.304688 C 180.496094 212.042969 180.496094 212.042969 184.871094 219.414062 L 185.660156 219.414062 L 186.007812 218.703125 C 187.421875 215.820312 187.421875 215.820312 188.238281 214.539062 C 189.179688 213.015625 189.90625 211.390625 190.660156 209.773438 C 191.410156 208.175781 192.210938 206.617188 193.046875 205.0625 C 197.03125 197.59375 199.15625 189.535156 199.320312 181.058594 L 199.339844 180.332031 C 199.433594 176.785156 199.265625 173.335938 198.8125 169.816406 C 198.59375 168.121094 198.480469 166.480469 198.53125 164.769531 C 198.957031 164.601562 198.957031 164.601562 199.582031 164.507812 C 200.320312 164.742188 200.320312 164.742188 201.179688 165.117188 L 201.652344 165.324219 C 202.160156 165.546875 202.671875 165.773438 203.179688 166 C 203.535156 166.160156 203.886719 166.316406 204.242188 166.472656 C 215.894531 171.636719 215.894531 171.636719 219.550781 174.753906 C 220.367188 175.339844 221.144531 175.8125 222.054688 176.246094 C 223.453125 176.9375 224.707031 177.820312 225.984375 178.710938 L 226.757812 179.242188 C 227.269531 179.59375 227.78125 179.949219 228.292969 180.304688 C 228.914062 180.730469 229.53125 181.15625 230.152344 181.578125 C 232.03125 182.859375 233.894531 184.164062 235.738281 185.492188 L 236.332031 185.917969 C 236.871094 186.308594 237.40625 186.703125 237.9375 187.101562 L 238.425781 187.453125 C 238.863281 187.785156 238.863281 187.785156 239.515625 188.414062 C 239.734375 189.316406 239.480469 190.148438 239.253906 191.042969 C 237.269531 197.699219 232.300781 204.109375 227.429688 208.9375 L 226.921875 209.417969 C 226.460938 209.875 226.058594 210.339844 225.648438 210.84375 C 224.816406 211.820312 223.898438 212.570312 222.867188 213.324219 L 222.3125 213.730469 C 220.5625 215.003906 218.75 216.167969 216.894531 217.277344 C 216.425781 217.558594 215.957031 217.84375 215.492188 218.132812 C 210.160156 221.3125 204.109375 223.238281 198.121094 224.765625 L 197.382812 224.957031 C 193.429688 225.925781 189.558594 226.078125 185.511719 226.0625 L 184.734375 226.0625 C 181.054688 226.050781 177.441406 225.996094 173.835938 225.195312 L 173.113281 225.035156 C 167.757812 223.824219 162.648438 222.011719 157.8125 219.414062 L 157.058594 219.03125 C 153.386719 217.132812 150.148438 214.558594 146.984375 211.917969 C 146.5625 211.574219 146.140625 211.234375 145.710938 210.902344 C 143.65625 209.289062 141.492188 207.421875 140.242188 205.097656 C 139.847656 204.371094 139.433594 203.921875 138.792969 203.402344 C 137.757812 202.570312 137.070312 201.625 136.351562 200.515625 L 135.949219 199.898438 C 130.800781 191.855469 127.742188 183.160156 127.296875 173.609375 C 127.027344 164.433594 127.027344 164.433594 128.652344 161.355469 C 129.339844 160.585938 130.019531 160.257812 130.972656 159.925781 C 132.566406 159.40625 134.195312 159.136719 135.84375 158.859375 L 136.863281 158.6875 C 145.328125 157.289062 154.042969 156.578125 162.621094 156.527344 " fill-opacity="1" fill-rule="nonzero"/><path fill="#000000" d="M 116.566406 165.558594 L 116.828125 165.820312 C 116.894531 166.476562 116.949219 167.125 116.988281 167.78125 L 117.078125 169.035156 L 117.125 169.703125 C 117.824219 179.53125 119.398438 188.925781 123.660156 197.886719 L 124.046875 198.703125 C 126.292969 203.304688 129.464844 207.453125 132.792969 211.332031 C 133.378906 212.058594 133.378906 212.058594 133.640625 212.847656 L 134.300781 213.242188 C 135.160156 213.777344 135.695312 214.449219 136.320312 215.242188 C 141.652344 221.933594 150.535156 226.96875 158.28125 230.230469 C 159.851562 230.839844 161.445312 231.320312 163.066406 231.761719 L 163.933594 232 C 164.875 232.253906 165.816406 232.503906 166.761719 232.746094 L 167.625 232.972656 C 172.492188 234.175781 177.199219 234.515625 182.207031 234.492188 C 183.191406 234.488281 184.171875 234.492188 185.152344 234.496094 C 190.558594 234.5 195.964844 234.125 201.257812 232.960938 L 202.152344 232.765625 C 212.148438 230.445312 221.984375 226.414062 229.898438 219.769531 C 230.320312 219.414062 230.75 219.066406 231.175781 218.71875 C 233.128906 217.113281 234.953125 215.375 236.757812 213.601562 L 237.433594 212.945312 C 238.6875 211.695312 239.648438 210.488281 240.46875 208.914062 C 240.828125 208.378906 240.828125 208.378906 241.363281 208.101562 L 241.878906 207.855469 C 242.207031 207.429688 242.207031 207.429688 242.445312 206.917969 L 242.730469 206.355469 L 243.027344 205.753906 C 243.238281 205.34375 243.449219 204.933594 243.65625 204.523438 L 243.964844 203.925781 C 244.296875 203.285156 244.664062 202.671875 245.046875 202.058594 C 246.3125 200.003906 247.335938 197.792969 248.371094 195.613281 L 248.777344 194.769531 L 249.125 194.023438 C 249.53125 193.347656 249.871094 193.015625 250.550781 192.617188 C 252.207031 192.394531 253.613281 192.757812 255.195312 193.207031 L 255.773438 193.371094 C 257.074219 193.765625 258.238281 194.265625 259.21875 195.246094 C 259.378906 196.460938 259.179688 197.328125 258.726562 198.460938 C 254.871094 207.121094 249.183594 214.6875 242.667969 221.515625 L 242.203125 222.003906 C 240.109375 224.1875 237.957031 226.160156 235.535156 227.976562 C 235.03125 228.359375 234.535156 228.753906 234.042969 229.15625 C 220.324219 240.230469 204.488281 246.65625 187.234375 249.886719 L 186.265625 250.070312 C 175.109375 252.074219 163.542969 251.101562 152.558594 248.574219 L 151.664062 248.371094 C 145.132812 246.855469 138.929688 244.847656 132.855469 242.007812 L 132.25 241.730469 C 129.015625 240.238281 126.09375 238.25 123.148438 236.261719 L 122.542969 235.847656 C 121.964844 235.457031 121.386719 235.066406 120.8125 234.667969 L 120.285156 234.3125 C 119.394531 233.695312 118.632812 233.066406 117.878906 232.285156 C 117.433594 232.03125 116.980469 231.789062 116.515625 231.5625 C 114.671875 230.59375 113.003906 229.3125 111.835938 227.558594 L 111.835938 227.03125 L 111.3125 226.875 C 110.210938 226.359375 109.351562 225.621094 108.421875 224.847656 L 107.867188 224.394531 C 106.640625 223.386719 105.460938 222.378906 104.5 221.105469 C 103.988281 220.433594 103.988281 220.433594 103.25 220.039062 C 102.152344 219.351562 101.441406 218.328125 100.648438 217.324219 C 100.035156 216.546875 99.394531 215.796875 98.75 215.046875 C 96.144531 211.90625 93.949219 208.519531 91.867188 205.015625 C 91.019531 203.59375 90.113281 202.203125 89.148438 200.855469 C 88.515625 199.945312 87.941406 199.003906 87.371094 198.050781 C 86.566406 196.714844 85.753906 195.382812 84.910156 194.066406 L 84.445312 193.335938 C 84.152344 192.871094 83.851562 192.40625 83.550781 191.941406 C 82.464844 190.222656 81.777344 188.558594 81.519531 186.53125 C 81.53125 185.460938 81.574219 184.617188 81.9375 183.601562 C 83.835938 180.789062 86.605469 178.992188 89.441406 177.226562 C 90.726562 176.414062 91.929688 175.511719 93.117188 174.5625 C 94.035156 173.832031 94.796875 173.261719 95.960938 173.0625 L 96.601562 173.175781 C 97.175781 173.921875 97.382812 174.457031 97.53125 175.390625 L 97.589844 176.425781 C 97.617188 176.8125 97.644531 177.195312 97.671875 177.582031 L 97.710938 178.1875 C 98.25 186.46875 100.335938 193.890625 104.96875 200.851562 C 107.925781 205.183594 111.332031 209.09375 114.988281 212.847656 L 115.519531 213.394531 C 116.582031 214.472656 117.664062 215.460938 118.863281 216.375 L 119.34375 216.746094 C 119.664062 216.992188 119.988281 217.242188 120.308594 217.488281 C 120.734375 217.8125 121.15625 218.136719 121.578125 218.464844 C 122.980469 219.539062 124.425781 220.554688 125.910156 221.515625 L 126.382812 221.824219 C 127.046875 222.246094 127.636719 222.578125 128.386719 222.828125 C 128.324219 222.332031 128.324219 222.332031 128.125 221.777344 C 127.730469 221.347656 127.730469 221.347656 127.222656 220.957031 C 126.085938 220.011719 125.058594 218.984375 124.027344 217.925781 C 123.40625 217.324219 122.761719 216.792969 122.082031 216.261719 C 119.914062 214.203125 118.121094 211.792969 116.304688 209.429688 L 115.949219 208.972656 C 115.074219 207.832031 114.238281 206.667969 113.414062 205.492188 L 112.992188 204.898438 C 110.097656 200.769531 108.128906 196.335938 106.191406 191.710938 C 105.871094 190.957031 105.539062 190.207031 105.195312 189.464844 C 103.566406 185.804688 103.589844 181.820312 103.578125 177.890625 L 103.574219 177.210938 C 103.550781 172.117188 103.550781 172.117188 104.480469 170.023438 C 104.976562 169.261719 104.976562 169.261719 105.796875 168.710938 C 106.894531 168.238281 108.019531 167.863281 109.160156 167.496094 C 109.765625 167.296875 110.367188 167.09375 110.972656 166.894531 L 111.835938 166.613281 C 112.507812 166.386719 113.167969 166.144531 113.828125 165.882812 C 114.800781 165.53125 115.539062 165.472656 116.566406 165.558594 M 160.4375 85.167969 C 160.554688 85.84375 160.554688 85.84375 160.4375 86.746094 C 159.5625 88.125 158.160156 88.867188 156.761719 89.632812 C 154.203125 91.046875 152.808594 92.75 151.296875 95.21875 C 148.464844 99.96875 146.796875 105.007812 146.683594 110.542969 C 146.65625 114.882812 147.011719 119.066406 149.144531 122.957031 C 149.519531 123.613281 149.898438 124.261719 150.300781 124.902344 C 150.71875 125.582031 150.976562 126.054688 151.007812 126.859375 L 150.980469 127.464844 L 150.390625 127.46875 C 140.820312 127.519531 131.339844 127.671875 121.820312 128.777344 C 121.175781 128.851562 120.53125 128.925781 119.886719 129 C 119.488281 129.042969 119.085938 129.089844 118.6875 129.136719 C 114.441406 129.621094 114.441406 129.621094 112.871094 128.972656 C 109.546875 127.011719 106.914062 123.625 104.996094 120.316406 C 102.960938 116.542969 102.742188 112.796875 102.808594 108.597656 C 102.960938 104.460938 104.238281 100.5625 106.320312 96.992188 C 107.027344 95.875 107.832031 94.847656 108.683594 93.839844 L 109.269531 93.144531 C 113.019531 88.839844 117.582031 86.097656 122.921875 84.199219 C 133.914062 80.699219 149.863281 79.882812 160.4375 85.167969 " fill-opacity="1" fill-rule="nonzero"/><path fill="#000000" d="M 268.9375 199.710938 L 269.464844 199.972656 C 269.300781 208 265.609375 216.003906 261.558594 222.773438 C 257.523438 229.347656 252.746094 235.421875 247.75 241.28125 C 247.34375 241.757812 246.949219 242.25 246.5625 242.746094 L 246.082031 243.320312 C 245.492188 243.535156 245.492188 243.535156 245.03125 243.582031 L 244.992188 244.019531 C 244.660156 244.929688 243.984375 245.453125 243.273438 246.078125 L 242.8125 246.496094 C 241.574219 247.609375 240.308594 248.695312 239.035156 249.773438 C 238.015625 250.644531 237.015625 251.535156 236.035156 252.449219 C 234.921875 253.480469 233.773438 254.4375 232.578125 255.371094 C 231.945312 255.890625 231.355469 256.433594 230.765625 257 C 226.929688 260.660156 222.578125 263.578125 217.972656 266.175781 L 217.421875 266.492188 C 210.703125 270.359375 202.796875 273.394531 195.117188 274.582031 L 194.378906 274.703125 C 189.792969 275.394531 185.203125 275.453125 180.570312 275.46875 L 179.695312 275.476562 C 171.964844 275.519531 164.015625 274.691406 157.167969 270.796875 C 155.3125 269.640625 153.71875 268.195312 152.125 266.707031 C 151.523438 266.15625 151.523438 266.15625 150.804688 265.777344 L 150.191406 265.386719 L 149.960938 264.882812 C 149.703125 264.308594 149.703125 264.308594 149.171875 263.96875 L 148.585938 263.621094 C 147.238281 262.765625 146.242188 261.726562 145.183594 260.542969 C 144.007812 259.238281 142.824219 258.007812 141.476562 256.878906 C 140.710938 256.203125 140.003906 255.453125 139.421875 254.617188 L 139.421875 254.09375 C 140.894531 254.015625 142.023438 254.261719 143.414062 254.734375 L 144.664062 255.144531 L 145.320312 255.363281 C 152.980469 257.902344 160.789062 259.601562 168.898438 259.671875 L 169.644531 259.679688 C 178.296875 259.75 186.402344 258.976562 194.855469 256.980469 L 195.632812 256.800781 C 199.445312 255.886719 203.046875 254.542969 206.679688 253.089844 C 207.386719 252.808594 208.089844 252.539062 208.800781 252.273438 C 211.425781 251.289062 213.914062 250.144531 216.394531 248.835938 L 216.996094 248.523438 C 217.84375 248.078125 218.6875 247.632812 219.53125 247.1875 C 220.679688 246.578125 221.835938 245.984375 223.007812 245.414062 C 228.707031 242.621094 233.933594 239.109375 238.792969 235.035156 C 239.21875 234.679688 239.644531 234.332031 240.070312 233.984375 C 241.421875 232.894531 242.726562 231.777344 243.988281 230.585938 C 244.523438 230.171875 244.894531 230.027344 245.558594 229.921875 L 245.558594 229.398438 C 245.980469 228.960938 245.980469 228.960938 246.542969 228.476562 L 247.097656 227.992188 C 247.617188 227.589844 248.121094 227.324219 248.710938 227.03125 C 248.984375 226.546875 248.984375 226.546875 249.234375 225.980469 C 249.726562 225.292969 249.726562 225.292969 250.285156 224.667969 L 250.792969 224.449219 C 251.382812 224.167969 251.382812 224.167969 251.769531 223.542969 L 252.191406 222.8125 C 252.9375 221.589844 253.746094 220.570312 254.714844 219.519531 C 257.046875 216.90625 259.046875 213.949219 261.113281 211.125 C 261.421875 210.703125 261.730469 210.277344 262.042969 209.855469 C 263.714844 207.574219 265.339844 205.277344 266.851562 202.886719 C 267.527344 201.8125 268.230469 200.761719 268.9375 199.710938 M 101.066406 93.3125 C 100.421875 95.460938 99.488281 97.410156 98.402344 99.367188 C 98.125 99.878906 97.882812 100.398438 97.652344 100.929688 L 97.351562 101.609375 C 95.921875 105.585938 96.1875 110.574219 96.910156 114.691406 C 97.84375 119.300781 99.71875 123.960938 102.792969 127.570312 C 104.75 129.765625 106.8125 131.796875 109.210938 133.507812 C 109.144531 134.097656 109.144531 134.097656 108.949219 134.820312 C 108.246094 135.628906 107.554688 136.105469 106.601562 136.570312 L 105.84375 136.953125 L 105.039062 137.351562 C 102.574219 138.601562 100.355469 139.957031 98.175781 141.652344 C 97.734375 141.992188 97.289062 142.335938 96.84375 142.675781 C 96.445312 142.976562 96.054688 143.285156 95.660156 143.589844 L 95.023438 144.015625 L 94.234375 144.015625 L 94.070312 144.59375 C 93.601562 145.554688 93.011719 145.953125 92.152344 146.578125 L 91.304688 147.199219 C 90.445312 147.765625 89.890625 147.945312 88.867188 148.054688 C 87.273438 148.027344 85.90625 147.367188 84.515625 146.644531 C 83.488281 146.011719 82.503906 145.371094 81.625 144.542969 C 81.355469 144.019531 81.09375 143.492188 80.835938 142.964844 C 80.40625 142.714844 79.972656 142.46875 79.53125 142.238281 C 77.933594 141.265625 76.707031 139.804688 75.796875 138.1875 C 75.542969 137.679688 75.296875 137.171875 75.058594 136.660156 L 74.628906 135.761719 C 72.917969 131.980469 72.695312 128.386719 73.078125 124.308594 C 73.632812 119.363281 75.621094 114.433594 78.554688 110.421875 C 79.761719 108.820312 81.101562 107.34375 82.484375 105.898438 C 82.972656 105.382812 83.441406 104.847656 83.894531 104.300781 C 84.386719 103.710938 84.847656 103.226562 85.433594 102.738281 C 86.253906 102.039062 87.050781 101.320312 87.835938 100.585938 C 94.835938 94.046875 94.835938 94.046875 97.617188 93.398438 L 98.4375 93.261719 L 99.261719 93.121094 C 99.960938 93.054688 100.40625 93.089844 101.066406 93.3125 M 177.5 144.941406 C 178.269531 145.3125 179.042969 145.679688 179.816406 146.039062 C 182.113281 147.132812 184.191406 148.148438 185.921875 150.058594 L 185.660156 150.847656 C 182.542969 150.5 179.472656 149.992188 176.386719 149.441406 C 169.382812 148.207031 162.308594 147.082031 155.183594 146.90625 L 154.289062 146.875 C 138.933594 146.578125 123.734375 151.273438 109.285156 155.996094 C 108.328125 156.308594 107.367188 156.613281 106.40625 156.914062 C 103.804688 157.734375 101.410156 158.722656 99.007812 160.003906 C 97.886719 160.59375 96.75 161.152344 95.613281 161.714844 C 95.171875 161.9375 94.730469 162.15625 94.289062 162.378906 L 93.183594 162.929688 L 92.65625 163.226562 C 92.132812 163.457031 92.132812 163.457031 91.082031 163.457031 C 91.9375 160.71875 94.414062 158.765625 96.402344 156.832031 C 98.015625 155.261719 99.488281 153.679688 100.863281 151.902344 L 101.328125 151.371094 L 101.855469 151.371094 L 101.855469 150.847656 C 102.371094 150.390625 102.902344 149.953125 103.445312 149.53125 L 103.949219 149.144531 C 105.730469 147.78125 107.585938 146.539062 109.472656 145.328125 L 110.332031 144.773438 C 130.878906 131.757812 156.511719 134.824219 177.5 144.941406 M 65.601562 127.726562 C 66.328125 127.65625 66.328125 127.65625 66.914062 127.726562 L 67.039062 128.394531 C 68.386719 135.730469 68.386719 135.730469 71.402344 142.492188 C 71.644531 142.964844 71.644531 142.964844 71.644531 143.753906 L 72.246094 143.941406 C 72.957031 144.277344 72.957031 144.277344 73.421875 144.820312 L 73.808594 145.445312 L 74.207031 146.066406 C 74.53125 146.644531 74.53125 146.644531 74.796875 147.429688 L 75.402344 147.660156 C 76.109375 147.957031 76.109375 147.957031 76.566406 148.546875 C 77.277344 149.410156 78.050781 149.972656 78.964844 150.601562 L 79.441406 150.933594 L 79.914062 151.265625 L 80.378906 151.589844 C 80.820312 151.886719 81.28125 152.144531 81.742188 152.40625 L 82.414062 152.949219 C 82.585938 153.714844 82.585938 153.714844 82.414062 154.523438 C 81.929688 155.21875 81.929688 155.21875 81.230469 155.9375 L 80.847656 156.335938 C 80.410156 156.785156 79.96875 157.234375 79.523438 157.675781 L 79.003906 158.199219 C 77.542969 159.660156 77.542969 159.660156 76.832031 160.359375 C 75.804688 161.375 74.820312 162.425781 73.878906 163.523438 C 72.71875 164.871094 72.71875 164.871094 71.90625 165.296875 C 69.34375 166.113281 66.691406 166.257812 64.023438 166.347656 L 63.242188 166.378906 C 59.453125 166.464844 54.753906 166.261719 51.246094 164.730469 L 50.625 164.246094 C 50.25 162.480469 50.542969 160.621094 51.042969 158.90625 C 51.230469 158.347656 51.425781 157.789062 51.628906 157.234375 L 51.949219 156.3125 C 53.140625 152.953125 54.488281 149.660156 55.878906 146.378906 L 56.277344 145.441406 C 56.941406 143.882812 57.609375 142.324219 58.28125 140.765625 C 58.757812 139.664062 59.230469 138.554688 59.691406 137.445312 C 62.824219 129.945312 62.824219 129.945312 65.601562 127.726562 " fill-opacity="1" fill-rule="nonzero"/><path fill="#000000" d="M 249.496094 225.71875 L 250.285156 225.980469 C 250.148438 227.25 249.777344 228.109375 249.121094 229.199219 L 248.628906 230.023438 C 248.183594 230.710938 248.183594 230.710938 247.660156 231.234375 L 246.871094 231.234375 L 246.722656 231.875 C 246.199219 233.171875 245.394531 234.109375 244.507812 235.175781 C 244.28125 235.453125 244.054688 235.734375 243.828125 236.011719 C 241.996094 238.25 241.996094 238.25 241.089844 238.855469 L 241.355469 240.167969 C 240.566406 240.695312 240.566406 240.695312 239.914062 240.800781 C 239.242188 240.90625 239.242188 240.90625 238.804688 241.347656 L 238.398438 241.859375 L 237.921875 242.433594 L 237.414062 243.058594 C 236.03125 244.664062 234.601562 246.121094 233.003906 247.511719 C 232.523438 247.953125 232.089844 248.433594 231.699219 248.953125 L 231.109375 249.625 L 229.53125 250.152344 C 229.351562 250.585938 229.175781 251.023438 229.007812 251.464844 C 228.550781 251.90625 228.074219 252.296875 227.578125 252.691406 C 227.132812 253.023438 227.132812 253.023438 226.90625 253.566406 L 225.589844 253.566406 L 225.558594 254.058594 L 225.328125 254.617188 C 224.808594 254.804688 224.28125 254.980469 223.753906 255.144531 L 223.226562 255.929688 C 222.40625 256.113281 222.40625 256.113281 221.652344 256.195312 L 221.582031 256.671875 C 221.386719 257.246094 221.386719 257.246094 220.953125 257.628906 L 220.378906 257.988281 L 219.730469 258.394531 L 219.023438 258.820312 L 218.3125 259.25 C 212.914062 262.429688 207.628906 265.019531 201.480469 266.304688 C 200.691406 266.488281 199.9375 266.746094 199.171875 267.015625 C 195.910156 268.0625 192.210938 268.148438 188.8125 268.015625 L 188.253906 267.996094 C 185.863281 267.90625 183.535156 267.757812 181.191406 267.226562 L 181.191406 266.703125 L 180.390625 266.769531 C 178.890625 266.777344 177.496094 266.3125 176.066406 265.90625 C 175.332031 265.699219 174.589844 265.527344 173.835938 265.386719 L 173.835938 264.601562 L 174.347656 264.523438 C 185.253906 263.246094 185.253906 263.246094 195.164062 258.90625 C 195.324219 258.792969 195.480469 258.675781 195.640625 258.558594 C 196.628906 258.507812 196.628906 258.507812 197.480469 258.558594 L 197.742188 257.507812 L 200.371094 256.980469 L 200.417969 256.234375 L 200.632812 255.40625 C 201.214844 255.015625 201.214844 255.015625 201.988281 254.742188 L 202.84375 254.425781 L 203.769531 254.109375 L 205.65625 253.421875 L 206.59375 253.089844 C 209.980469 251.882812 213.214844 250.511719 216.394531 248.835938 L 216.996094 248.523438 C 217.84375 248.078125 218.6875 247.632812 219.53125 247.1875 C 220.679688 246.578125 221.835938 245.984375 223.007812 245.414062 C 228.707031 242.621094 233.933594 239.109375 238.792969 235.035156 C 239.21875 234.679688 239.644531 234.332031 240.070312 233.984375 C 241.421875 232.894531 242.726562 231.777344 243.988281 230.585938 C 244.523438 230.171875 244.894531 230.027344 245.558594 229.921875 L 245.558594 229.398438 C 245.980469 228.960938 245.980469 228.960938 246.542969 228.476562 L 247.097656 227.992188 C 247.660156 227.558594 247.660156 227.558594 248.234375 227.273438 L 248.710938 227.03125 C 249.027344 226.507812 249.027344 226.507812 249.234375 225.980469 Z M 142.871094 117.199219 C 143.414062 117.179688 143.957031 117.167969 144.5 117.160156 L 145.445312 117.136719 C 146.253906 117.21875 146.253906 117.21875 146.867188 117.566406 C 147.511719 118.214844 147.636719 118.890625 147.878906 119.765625 C 148.417969 121.582031 149.210938 123.132812 150.207031 124.742188 C 150.976562 126.011719 150.976562 126.011719 151.011719 126.863281 L 150.980469 127.464844 L 150.390625 127.46875 C 140.820312 127.519531 131.339844 127.671875 121.820312 128.777344 C 121.175781 128.851562 120.53125 128.925781 119.886719 129 C 119.488281 129.042969 119.085938 129.089844 118.6875 129.136719 C 114.445312 129.621094 114.445312 129.621094 112.875 128.976562 C 111.582031 128.210938 110.5625 127.175781 109.472656 126.152344 L 108.953125 125.703125 C 108.519531 125.3125 108.519531 125.3125 107.898438 124.574219 C 107.859375 123.742188 107.859375 123.742188 107.898438 123 C 112.878906 121.140625 117.882812 119.894531 123.132812 119.058594 L 124.15625 118.894531 C 128.691406 118.175781 133.210938 117.636719 137.796875 117.398438 L 138.402344 117.367188 C 139.523438 117.3125 140.648438 117.269531 141.769531 117.234375 C 142.136719 117.222656 142.503906 117.210938 142.871094 117.199219 M 116.566406 165.558594 L 116.828125 165.820312 C 116.898438 166.492188 116.953125 167.160156 117 167.835938 L 117.09375 169.113281 L 117.140625 169.792969 C 117.460938 174.347656 117.460938 174.347656 118.042969 178.875 C 118.320312 180.605469 118.507812 182.347656 118.601562 184.097656 L 118.636719 184.726562 C 118.679688 185.664062 118.660156 186.464844 118.40625 187.363281 L 117.089844 187.363281 L 117.089844 186.3125 L 116.304688 186.3125 L 116.171875 187.035156 L 115.777344 187.890625 C 115.066406 188.328125 114.441406 188.625 113.675781 188.941406 L 112.746094 189.355469 C 110.128906 190.515625 110.128906 190.515625 109.210938 190.515625 L 108.949219 191.566406 C 106.890625 191.605469 106.890625 191.605469 106.058594 191.304688 C 104.546875 188.992188 104.019531 185.867188 103.695312 183.160156 C 103.652344 182.386719 103.644531 181.613281 103.640625 180.839844 L 103.636719 180.179688 C 103.632812 179.722656 103.632812 179.261719 103.628906 178.800781 C 103.628906 178.109375 103.621094 177.414062 103.613281 176.71875 C 103.582031 172.003906 103.582031 172.003906 104.480469 170.023438 C 104.976562 169.261719 104.976562 169.261719 105.796875 168.710938 C 106.894531 168.238281 108.019531 167.863281 109.160156 167.496094 C 109.765625 167.296875 110.367188 167.09375 110.972656 166.894531 L 111.835938 166.613281 C 112.507812 166.386719 113.167969 166.144531 113.828125 165.882812 C 114.800781 165.53125 115.539062 165.472656 116.566406 165.558594 M 101.066406 93.3125 C 100.480469 95.265625 99.664062 97.035156 98.703125 98.828125 L 98.320312 99.566406 L 97.914062 100.144531 C 96.945312 100.355469 96.945312 100.355469 96.074219 100.40625 L 95.8125 101.457031 L 95.058594 101.507812 L 94.234375 101.71875 L 94.015625 102.292969 C 93.613281 103.265625 92.960938 103.890625 92.214844 104.609375 L 91.789062 105.035156 C 91.058594 105.742188 90.339844 106.382812 89.492188 106.941406 C 88.664062 107.445312 88.664062 107.445312 88.308594 108.320312 C 88.183594 108.570312 88.058594 108.820312 87.929688 109.074219 L 87.1875 109.433594 C 86.25 109.917969 85.882812 110.351562 85.289062 111.210938 L 84.75 111.984375 C 84.195312 112.84375 83.695312 113.714844 83.230469 114.625 C 82.925781 115.140625 82.582031 115.492188 82.152344 115.90625 C 81.84375 116.457031 81.84375 116.457031 81.625 116.957031 L 81.101562 116.957031 L 81 117.582031 L 80.835938 118.269531 L 80.3125 118.796875 L 79.523438 118.796875 L 79.328125 119.335938 C 79 120.109375 79 120.109375 78.472656 120.980469 C 77.980469 121.8125 77.761719 122.578125 77.601562 123.527344 C 77.421875 124.050781 77.421875 124.050781 76.914062 124.632812 C 76.214844 125.574219 76.039062 126.414062 75.8125 127.546875 L 75.683594 128.167969 C 75.269531 130.195312 75.007812 132.238281 74.796875 134.296875 L 74.007812 134.296875 C 72.574219 130.8125 72.71875 126.953125 73.207031 123.261719 C 73.964844 118.277344 76.1875 113.425781 79.285156 109.472656 C 80.296875 108.230469 81.378906 107.054688 82.484375 105.898438 C 82.972656 105.382812 83.441406 104.847656 83.894531 104.300781 C 84.386719 103.710938 84.847656 103.226562 85.433594 102.738281 C 86.253906 102.039062 87.050781 101.320312 87.835938 100.585938 C 94.835938 94.046875 94.835938 94.046875 97.617188 93.398438 L 98.4375 93.261719 L 99.261719 93.121094 C 99.960938 93.054688 100.40625 93.089844 101.066406 93.3125 M 51.761719 172.949219 L 52.53125 173.042969 L 53.398438 173.144531 C 53.710938 173.183594 54.019531 173.21875 54.335938 173.257812 C 57.085938 173.582031 59.835938 173.851562 62.597656 174.035156 L 63.34375 174.089844 L 63.992188 174.132812 C 64.550781 174.226562 64.550781 174.226562 65.335938 174.753906 C 65.46875 175.433594 65.46875 175.433594 65.335938 176.328125 C 64.96875 177.125 64.5 177.84375 64.023438 178.578125 L 63.628906 179.207031 C 63.128906 180.003906 62.621094 180.792969 62.109375 181.582031 C 61.816406 182.035156 61.523438 182.492188 61.234375 182.945312 L 60.730469 183.714844 C 60.28125 184.601562 60.132812 185.320312 60.082031 186.3125 L 60.609375 187.101562 C 60.527344 187.789062 60.527344 187.789062 60.347656 188.414062 L 60.082031 188.675781 C 59.558594 188.6875 59.03125 188.6875 58.507812 188.675781 L 58.507812 187.625 L 56.667969 187.363281 L 56.40625 186.574219 C 55.773438 186.371094 55.132812 186.203125 54.484375 186.066406 C 54.101562 185.976562 53.71875 185.890625 53.335938 185.800781 L 52.757812 185.664062 C 51.328125 185.304688 49.847656 184.871094 48.523438 184.210938 L 48.523438 183.683594 L 47.472656 183.683594 L 47.210938 182.898438 C 46.539062 182.625 46.539062 182.625 45.75 182.453125 L 44.945312 182.253906 L 44.320312 182.109375 C 44.445312 180.613281 44.792969 179.425781 45.632812 178.167969 C 47.273438 176.296875 47.273438 176.296875 48.261719 175.804688 C 48.785156 175.792969 49.3125 175.792969 49.835938 175.804688 L 49.835938 175.015625 L 50.625 175.015625 L 50.625 173.175781 C 51.152344 172.914062 51.152344 172.914062 51.761719 172.949219 M 199.058594 284.566406 C 198.542969 285.917969 198 286.816406 196.988281 287.878906 L 196.605469 288.285156 C 196.199219 288.710938 195.789062 289.136719 195.378906 289.558594 L 194.550781 290.421875 C 193.847656 291.148438 193.140625 291.871094 192.425781 292.585938 C 192.136719 292.882812 191.847656 293.175781 191.558594 293.472656 C 191.132812 293.910156 190.703125 294.34375 190.273438 294.773438 L 189.886719 295.175781 C 189.292969 295.765625 188.875 296.109375 188.0625 296.339844 L 187.5 296.386719 L 187.234375 297.175781 C 186.527344 297.28125 186.085938 297.320312 185.398438 297.175781 C 183.839844 296.273438 182.496094 294.964844 181.457031 293.5 L 181.238281 292.988281 C 180.867188 292.335938 180.519531 292.125 179.871094 291.742188 C 178.429688 290.820312 177.257812 289.699219 176.054688 288.492188 L 175.402344 287.863281 L 174.789062 287.25 L 174.234375 286.699219 L 173.835938 286.144531 C 173.777344 285.417969 173.777344 285.417969 173.835938 284.828125 L 174.722656 284.886719 C 177.933594 285.074219 181.144531 285.128906 184.359375 285.136719 C 184.824219 285.140625 185.289062 285.144531 185.757812 285.144531 C 188.363281 285.164062 190.917969 285.09375 193.507812 284.753906 C 195.359375 284.511719 197.191406 284.515625 199.058594 284.566406 " fill-opacity="1" fill-rule="nonzero"/><path fill="#000000" d="M 83.726562 104.347656 L 84.515625 104.347656 C 84.464844 105.046875 84.464844 105.046875 84.253906 105.921875 C 83.6875 106.644531 83.6875 106.644531 82.988281 107.351562 C 81.867188 108.519531 81.867188 108.519531 81.019531 109.878906 L 80.574219 110.652344 C 80.136719 110.828125 79.699219 111.003906 79.261719 111.175781 C 79.070312 111.695312 78.894531 112.222656 78.734375 112.753906 C 78.390625 113.109375 78.039062 113.460938 77.683594 113.804688 C 77.40625 114.320312 77.140625 114.847656 76.898438 115.378906 L 76.371094 115.378906 C 76.394531 114.394531 76.53125 113.738281 76.996094 112.859375 C 78.515625 110.4375 80.269531 108.285156 82.222656 106.203125 C 82.78125 105.605469 83.269531 105.03125 83.726562 104.347656 M 96.335938 93.839844 C 96.894531 93.953125 96.894531 93.953125 97.386719 94.101562 L 96.835938 94.449219 C 94.535156 95.941406 92.417969 97.617188 90.296875 99.355469 L 90.03125 98.566406 C 94.730469 94.640625 94.730469 94.640625 96.335938 93.839844 M 100.617188 93.144531 C 100.765625 93.199219 100.914062 93.253906 101.066406 93.3125 L 100.804688 94.101562 C 100.179688 94.378906 100.179688 94.378906 99.488281 94.625 L 98.703125 95.152344 C 97.996094 95.183594 97.996094 95.183594 97.386719 95.152344 L 97.652344 94.363281 C 98.15625 93.988281 98.15625 93.988281 98.785156 93.640625 L 99.40625 93.285156 C 100.015625 93.050781 100.015625 93.050781 100.617188 93.144531 " fill-opacity="1" fill-rule="nonzero"/></svg>