<svg xmlns="http://www.w3.org/2000/svg" xmlns:xlink="http://www.w3.org/1999/xlink" width="500" zoomAndPan="magnify" viewBox="0 0 375 374.999991" height="500" preserveAspectRatio="xMidYMid meet" version="1.0"><defs><g/></defs><g fill="#000000" fill-opacity="1"><g transform="translate(74.93127, 161.249989)"><g><path d="M 8.238281 5.460938 C 6.492188 5.140625 5.089844 4.679688 4.039062 4.082031 C 2.777344 3.367188 2.003906 2.25 1.726562 0.730469 L 1.71875 0.707031 L 1.714844 0.679688 C 1.585938 -0.246094 1.476562 -1.554688 1.386719 -3.246094 C 1.300781 -4.921875 1.269531 -7.191406 1.292969 -10.058594 L 1.386719 -20.808594 L 2.609375 -20.796875 L 1.386719 -20.777344 C 1.34375 -23.34375 1.238281 -25.941406 1.070312 -28.570312 C 0.898438 -31.242188 0.792969 -33.878906 0.75 -36.484375 C 0.707031 -39.054688 0.730469 -41.242188 0.816406 -43.050781 C 0.917969 -45.183594 1.507812 -46.707031 2.585938 -47.613281 L 2.597656 -47.625 L 2.613281 -47.636719 C 3.570312 -48.394531 4.824219 -48.929688 6.371094 -49.242188 C 7.820312 -49.539062 9.3125 -49.664062 10.847656 -49.617188 C 12.402344 -49.570312 13.765625 -49.363281 14.9375 -48.988281 C 16.09375 -48.632812 17.105469 -48.027344 17.972656 -47.160156 C 18.863281 -46.269531 19.460938 -45.089844 19.765625 -43.621094 L 19.773438 -43.589844 L 19.777344 -43.5625 C 19.917969 -42.675781 19.964844 -41.746094 19.917969 -40.769531 C 19.875 -39.917969 19.875 -39.042969 19.917969 -38.148438 C 20.046875 -35.320312 20.089844 -33.140625 20.046875 -31.605469 C 20.007812 -30.234375 20.050781 -29.335938 20.183594 -28.914062 C 20.175781 -28.9375 20.152344 -28.964844 20.113281 -28.984375 C 20.15625 -28.960938 20.253906 -28.949219 20.414062 -28.949219 L 22.894531 -28.949219 C 23.660156 -28.949219 24.21875 -28.984375 24.5625 -29.050781 L 24.800781 -27.855469 L 24.523438 -29.042969 C 24.710938 -29.085938 24.839844 -29.140625 24.917969 -29.199219 C 24.929688 -29.207031 24.933594 -29.210938 24.933594 -29.214844 C 25.058594 -29.648438 25.183594 -30.542969 25.304688 -31.90625 C 25.429688 -33.164062 25.523438 -34.574219 25.585938 -36.140625 C 25.648438 -37.75 25.746094 -39.273438 25.875 -40.714844 C 26.011719 -42.25 26.25 -43.453125 26.589844 -44.324219 C 27.082031 -45.585938 27.972656 -46.550781 29.261719 -47.222656 C 30.417969 -47.824219 31.757812 -48.207031 33.289062 -48.371094 C 34.765625 -48.53125 36.261719 -48.507812 37.78125 -48.304688 C 39.304688 -48.097656 40.683594 -47.742188 41.925781 -47.238281 C 43.730469 -46.527344 44.792969 -45.347656 45.113281 -43.699219 C 45.371094 -42.351562 45.363281 -40.808594 45.085938 -39.078125 C 44.835938 -37.511719 44.628906 -35.875 44.460938 -34.160156 L 43.953125 -28.132812 C 43.785156 -26.109375 43.636719 -24.101562 43.511719 -22.117188 C 43.300781 -18.941406 43.28125 -15.59375 43.449219 -12.078125 C 43.621094 -8.453125 43.535156 -5 43.1875 -1.714844 L 41.972656 -1.84375 L 43.191406 -1.75 C 42.988281 0.890625 42.027344 2.6875 40.308594 3.644531 C 38.789062 4.488281 36.992188 4.910156 34.914062 4.910156 C 33.507812 4.910156 32.023438 4.8125 30.46875 4.613281 C 28.644531 4.382812 27.226562 3.65625 26.214844 2.429688 L 26.195312 2.410156 L 26.179688 2.386719 C 25.292969 1.203125 24.707031 -0.335938 24.421875 -2.234375 C 24.15625 -3.996094 24.035156 -5.808594 24.058594 -7.675781 C 24.078125 -9.476562 24.089844 -10.984375 24.089844 -12.210938 L 24.089844 -14.785156 C 24.089844 -14.921875 24.082031 -15.011719 24.070312 -15.054688 C 24.109375 -14.929688 24.210938 -14.820312 24.363281 -14.726562 C 24.410156 -14.695312 24.449219 -14.679688 24.484375 -14.671875 C 24.464844 -14.675781 24.433594 -14.679688 24.390625 -14.683594 C 24.238281 -14.699219 24.03125 -14.699219 23.769531 -14.679688 C 23.085938 -14.636719 22.074219 -14.613281 20.730469 -14.613281 C 20.476562 -14.613281 20.300781 -14.597656 20.210938 -14.5625 C 20.246094 -14.574219 20.285156 -14.601562 20.328125 -14.644531 C 20.425781 -14.730469 20.492188 -14.835938 20.53125 -14.960938 C 20.464844 -14.757812 20.453125 -14.171875 20.488281 -13.210938 L 20.773438 -8.5 C 20.882812 -6.769531 20.871094 -5.082031 20.742188 -3.433594 C 20.601562 -1.695312 20.226562 -0.167969 19.613281 1.148438 L 18.507812 0.636719 L 19.628906 1.121094 C 18.800781 3.03125 17.234375 4.347656 14.929688 5.074219 C 12.789062 5.75 10.558594 5.878906 8.242188 5.460938 Z M 8.675781 3.058594 C 10.597656 3.40625 12.4375 3.300781 14.195312 2.746094 C 15.792969 2.242188 16.855469 1.378906 17.386719 0.152344 L 17.390625 0.136719 L 17.398438 0.121094 C 17.890625 -0.933594 18.191406 -2.183594 18.308594 -3.628906 C 18.429688 -5.160156 18.4375 -6.734375 18.335938 -8.351562 L 18.050781 -13.117188 C 18 -14.359375 18.050781 -15.21875 18.199219 -15.691406 C 18.484375 -16.601562 19.328125 -17.054688 20.730469 -17.054688 C 22.019531 -17.054688 22.980469 -17.078125 23.609375 -17.117188 C 24.523438 -17.175781 25.191406 -17.078125 25.621094 -16.820312 C 26.230469 -16.453125 26.53125 -15.777344 26.53125 -14.785156 L 26.53125 -12.210938 C 26.53125 -10.976562 26.523438 -9.457031 26.5 -7.648438 C 26.480469 -5.914062 26.59375 -4.230469 26.835938 -2.597656 C 27.0625 -1.105469 27.492188 0.0664062 28.132812 0.921875 L 27.15625 1.652344 L 28.097656 0.875 C 28.695312 1.601562 29.589844 2.039062 30.773438 2.191406 C 32.230469 2.375 33.609375 2.46875 34.914062 2.46875 C 36.570312 2.46875 37.972656 2.148438 39.121094 1.507812 C 40.074219 0.980469 40.621094 -0.167969 40.757812 -1.9375 L 40.757812 -1.972656 C 41.09375 -5.132812 41.175781 -8.460938 41.007812 -11.960938 C 40.835938 -15.570312 40.859375 -19.007812 41.074219 -22.273438 C 41.199219 -24.273438 41.347656 -26.296875 41.519531 -28.339844 L 42.03125 -34.398438 C 42.203125 -36.160156 42.417969 -37.847656 42.675781 -39.464844 C 42.90625 -40.910156 42.921875 -42.167969 42.714844 -43.238281 C 42.566406 -44.003906 41.996094 -44.585938 41.003906 -44.976562 C 39.957031 -45.402344 38.773438 -45.707031 37.453125 -45.882812 C 36.132812 -46.058594 34.832031 -46.082031 33.550781 -45.941406 C 32.324219 -45.8125 31.273438 -45.515625 30.390625 -45.054688 C 29.644531 -44.667969 29.136719 -44.128906 28.867188 -43.4375 C 28.609375 -42.78125 28.425781 -41.800781 28.308594 -40.496094 C 28.183594 -39.097656 28.089844 -37.613281 28.027344 -36.042969 C 27.960938 -34.429688 27.863281 -32.976562 27.734375 -31.691406 C 27.601562 -30.167969 27.449219 -29.117188 27.277344 -28.53125 C 26.996094 -27.566406 26.265625 -26.945312 25.082031 -26.667969 L 25.0625 -26.660156 L 25.042969 -26.65625 C 24.539062 -26.558594 23.824219 -26.507812 22.894531 -26.507812 L 20.414062 -26.507812 C 19.808594 -26.507812 19.296875 -26.632812 18.871094 -26.882812 C 18.367188 -27.179688 18.027344 -27.617188 17.847656 -28.195312 C 17.640625 -28.875 17.558594 -30.035156 17.605469 -31.671875 C 17.644531 -33.148438 17.601562 -35.269531 17.476562 -38.039062 C 17.433594 -39.007812 17.433594 -39.957031 17.476562 -40.886719 C 17.515625 -41.695312 17.476562 -42.460938 17.363281 -43.183594 L 18.570312 -43.371094 L 17.375 -43.125 C 17.167969 -44.117188 16.792969 -44.886719 16.242188 -45.433594 C 15.667969 -46.011719 14.984375 -46.421875 14.191406 -46.660156 C 13.242188 -46.964844 12.101562 -47.136719 10.777344 -47.175781 C 9.429688 -47.214844 8.121094 -47.105469 6.855469 -46.851562 C 5.691406 -46.613281 4.78125 -46.238281 4.128906 -45.722656 L 3.371094 -46.679688 L 4.15625 -45.746094 C 3.625 -45.296875 3.324219 -44.359375 3.253906 -42.933594 C 3.171875 -41.179688 3.152344 -39.042969 3.191406 -36.523438 C 3.234375 -33.957031 3.339844 -31.359375 3.507812 -28.726562 C 3.679688 -26.058594 3.785156 -23.421875 3.828125 -20.816406 L 3.828125 -20.800781 L 3.734375 -10.039062 C 3.710938 -7.222656 3.742188 -5 3.828125 -3.371094 C 3.910156 -1.753906 4.011719 -0.519531 4.132812 0.335938 L 2.925781 0.507812 L 4.125 0.285156 C 4.269531 1.058594 4.640625 1.617188 5.246094 1.960938 C 6.058594 2.421875 7.203125 2.789062 8.679688 3.058594 Z M 8.675781 3.058594 "/></g></g></g><g fill="#000000" fill-opacity="1"><g transform="translate(120.210766, 161.249989)"><g><path d="M 6.308594 4.597656 C 4.414062 4 3.039062 3.023438 2.179688 1.671875 C 1.375 0.402344 0.902344 -1.027344 0.753906 -2.625 C 0.621094 -4.105469 0.644531 -5.632812 0.820312 -7.199219 C 0.992188 -8.675781 1.136719 -10.046875 1.265625 -11.3125 C 1.605469 -14.5625 2.035156 -17.777344 2.546875 -20.957031 C 3.066406 -24.175781 3.820312 -27.34375 4.816406 -30.453125 C 5.644531 -33.027344 6.714844 -35.515625 8.023438 -37.914062 C 9.351562 -40.355469 10.972656 -42.507812 12.882812 -44.375 C 14.824219 -46.269531 17.050781 -47.703125 19.558594 -48.675781 C 22.105469 -49.664062 24.964844 -49.953125 28.136719 -49.542969 C 31.34375 -49.132812 34.015625 -48.019531 36.148438 -46.210938 C 38.230469 -44.449219 39.902344 -42.269531 41.164062 -39.679688 C 42.394531 -37.152344 43.316406 -34.484375 43.929688 -31.675781 C 44.53125 -28.917969 44.964844 -26.265625 45.222656 -23.71875 L 45.765625 -18.472656 C 45.957031 -16.578125 46.136719 -14.675781 46.304688 -12.765625 C 46.480469 -10.820312 46.566406 -9.023438 46.566406 -7.378906 C 46.566406 -5.304688 46.3125 -3.449219 45.8125 -1.804688 C 45.257812 0.00390625 44.011719 1.539062 42.066406 2.804688 L 42.03125 2.828125 L 41.996094 2.847656 C 40.804688 3.515625 39.539062 3.941406 38.203125 4.132812 C 36.847656 4.328125 35.554688 4.253906 34.332031 3.910156 C 33.019531 3.542969 31.96875 2.867188 31.167969 1.882812 C 30.332031 0.851562 29.964844 -0.480469 30.070312 -2.113281 C 30.253906 -4.433594 30.007812 -5.949219 29.324219 -6.660156 C 28.648438 -7.367188 27.226562 -7.664062 25.054688 -7.558594 L 25.039062 -7.554688 L 25.027344 -7.554688 C 23.605469 -7.515625 22.480469 -7.375 21.652344 -7.128906 C 21.050781 -6.953125 20.621094 -6.605469 20.355469 -6.089844 C 20.023438 -5.4375 19.855469 -4.339844 19.855469 -2.796875 L 19.855469 -2.742188 L 19.847656 -2.683594 C 19.609375 -0.140625 18.820312 1.785156 17.484375 3.097656 C 16.148438 4.410156 14.460938 5.140625 12.425781 5.289062 C 10.550781 5.425781 8.527344 5.199219 6.359375 4.613281 L 6.335938 4.605469 Z M 7.046875 2.269531 L 6.675781 3.433594 L 6.996094 2.253906 C 8.898438 2.769531 10.648438 2.96875 12.25 2.851562 C 13.6875 2.746094 14.863281 2.246094 15.773438 1.355469 C 16.6875 0.460938 17.234375 -0.960938 17.417969 -2.914062 L 18.632812 -2.796875 L 17.414062 -2.796875 C 17.414062 -4.734375 17.667969 -6.203125 18.183594 -7.203125 C 18.765625 -8.339844 19.691406 -9.097656 20.957031 -9.46875 C 21.992188 -9.777344 23.328125 -9.953125 24.960938 -9.996094 L 24.992188 -8.777344 L 24.933594 -9.996094 C 27.847656 -10.140625 29.902344 -9.59375 31.089844 -8.347656 C 32.277344 -7.109375 32.746094 -4.980469 32.507812 -1.957031 C 32.445312 -0.960938 32.628906 -0.191406 33.066406 0.34375 C 33.539062 0.925781 34.179688 1.332031 34.988281 1.558594 C 35.882812 1.808594 36.839844 1.863281 37.859375 1.714844 C 38.894531 1.570312 39.878906 1.234375 40.804688 0.714844 L 41.402344 1.78125 L 40.734375 0.757812 C 42.183594 -0.183594 43.097656 -1.277344 43.476562 -2.519531 C 43.90625 -3.929688 44.121094 -5.546875 44.121094 -7.378906 C 44.121094 -8.953125 44.039062 -10.675781 43.875 -12.546875 C 43.703125 -14.449219 43.523438 -16.34375 43.335938 -18.222656 L 42.792969 -23.46875 C 42.542969 -25.925781 42.128906 -28.488281 41.542969 -31.15625 C 40.972656 -33.773438 40.113281 -36.257812 38.96875 -38.609375 C 37.855469 -40.894531 36.390625 -42.804688 34.570312 -44.347656 C 32.804688 -45.847656 30.554688 -46.769531 27.828125 -47.121094 C 25.0625 -47.476562 22.601562 -47.238281 20.441406 -46.398438 C 18.246094 -45.546875 16.292969 -44.289062 14.589844 -42.625 C 12.855469 -40.929688 11.378906 -38.972656 10.167969 -36.746094 C 8.929688 -34.480469 7.921875 -32.136719 7.140625 -29.710938 C 6.183594 -26.714844 5.457031 -23.667969 4.957031 -20.570312 C 4.453125 -17.433594 4.03125 -14.265625 3.695312 -11.070312 C 3.566406 -9.792969 3.417969 -8.410156 3.25 -6.921875 C 3.089844 -5.519531 3.066406 -4.160156 3.1875 -2.84375 C 3.296875 -1.640625 3.648438 -0.574219 4.242188 0.363281 C 4.78125 1.214844 5.71875 1.851562 7.046875 2.269531 Z M 20.925781 -21.027344 C 20.929688 -21.039062 20.921875 -21.050781 20.90625 -21.070312 C 20.835938 -21.15625 20.746094 -21.195312 20.644531 -21.179688 C 21.941406 -21.316406 23.226562 -21.371094 24.503906 -21.347656 C 25.726562 -21.328125 26.929688 -21.316406 28.109375 -21.316406 L 30.335938 -21.316406 C 30.296875 -21.316406 30.25 -21.292969 30.203125 -21.246094 C 30.105469 -21.148438 30.066406 -21.046875 30.082031 -20.941406 C 29.949219 -21.992188 29.828125 -23.214844 29.722656 -24.613281 C 29.621094 -25.933594 29.429688 -27.21875 29.144531 -28.476562 C 28.886719 -29.625 28.488281 -30.566406 27.949219 -31.300781 C 27.558594 -31.835938 27.019531 -32.101562 26.328125 -32.101562 C 25.546875 -32.101562 24.894531 -31.8125 24.375 -31.234375 C 23.714844 -30.5 23.167969 -29.558594 22.734375 -28.410156 C 22.269531 -27.179688 21.90625 -25.90625 21.644531 -24.59375 L 20.914062 -20.9375 L 19.714844 -21.175781 Z M 18.503906 -21.328125 L 18.507812 -21.375 L 19.25 -25.074219 C 19.539062 -26.515625 19.9375 -27.917969 20.449219 -29.273438 C 20.988281 -30.707031 21.695312 -31.90625 22.558594 -32.871094 C 23.566406 -33.988281 24.820312 -34.546875 26.328125 -34.546875 C 27.84375 -34.546875 29.042969 -33.945312 29.921875 -32.742188 C 30.65625 -31.734375 31.191406 -30.492188 31.527344 -29.015625 C 31.835938 -27.640625 32.046875 -26.238281 32.15625 -24.800781 C 32.261719 -23.441406 32.375 -22.269531 32.5 -21.285156 C 32.597656 -20.585938 32.410156 -19.996094 31.929688 -19.519531 C 31.5 -19.089844 30.96875 -18.875 30.335938 -18.875 L 28.109375 -18.875 C 26.914062 -18.875 25.699219 -18.886719 24.464844 -18.90625 C 23.28125 -18.925781 22.109375 -18.878906 20.949219 -18.757812 C 20.167969 -18.660156 19.527344 -18.910156 19.03125 -19.503906 C 18.59375 -20.03125 18.417969 -20.640625 18.503906 -21.328125 Z M 18.503906 -21.328125 "/></g></g></g><g fill="#000000" fill-opacity="1"><g transform="translate(167.461712, 161.249989)"><g><path d="M 7.867188 5.097656 C 5.699219 4.953125 4.078125 4.4375 3.003906 3.546875 C 1.886719 2.617188 1.199219 1.101562 0.949219 -1 C 0.730469 -2.839844 0.664062 -5.398438 0.75 -8.679688 C 0.835938 -11.894531 0.878906 -16.058594 0.878906 -21.175781 L 0.847656 -31.03125 L 0.8125 -37.515625 C 0.8125 -39.265625 0.878906 -40.691406 1.011719 -41.800781 C 1.152344 -42.949219 1.382812 -43.988281 1.710938 -44.921875 C 2.339844 -46.671875 3.160156 -47.949219 4.167969 -48.75 C 5.167969 -49.542969 6.382812 -50.042969 7.8125 -50.242188 C 9.078125 -50.417969 10.542969 -50.507812 12.210938 -50.507812 C 16.589844 -50.507812 20.753906 -50.03125 24.707031 -49.074219 C 28.703125 -48.109375 32.171875 -46.652344 35.109375 -44.707031 C 38.125 -42.714844 40.316406 -40.222656 41.683594 -37.234375 C 43.074219 -34.203125 43.289062 -30.683594 42.335938 -26.679688 C 41.824219 -24.453125 40.886719 -22.5625 39.519531 -21.007812 C 38.191406 -19.496094 36.613281 -18.257812 34.78125 -17.296875 C 33.015625 -16.371094 31.160156 -15.621094 29.21875 -15.046875 L 29.195312 -15.039062 L 29.167969 -15.03125 C 28.582031 -14.886719 27.792969 -14.789062 26.800781 -14.742188 C 25.859375 -14.699219 24.878906 -14.6875 23.855469 -14.710938 C 22.886719 -14.730469 21.992188 -14.71875 21.175781 -14.679688 C 20.851562 -14.664062 20.59375 -14.628906 20.390625 -14.578125 C 20.320312 -14.5625 20.261719 -14.542969 20.21875 -14.523438 L 20.214844 -14.527344 C 20.257812 -14.558594 20.289062 -14.59375 20.308594 -14.625 C 20.308594 -14.625 20.304688 -14.613281 20.296875 -14.589844 C 20.257812 -14.453125 20.234375 -14.253906 20.234375 -13.992188 C 20.234375 -11.5 20.257812 -9.390625 20.300781 -7.660156 C 20.34375 -5.871094 20.296875 -4.335938 20.167969 -3.054688 C 20.023438 -1.683594 19.667969 -0.40625 19.097656 0.78125 L 17.996094 0.253906 L 19.117188 0.738281 C 18.28125 2.675781 16.691406 3.9375 14.351562 4.523438 C 12.277344 5.042969 10.121094 5.234375 7.875 5.097656 Z M 8.023438 2.660156 C 10.019531 2.78125 11.929688 2.613281 13.757812 2.152344 C 15.320312 1.765625 16.359375 0.96875 16.878906 -0.230469 L 16.886719 -0.253906 L 16.898438 -0.273438 C 17.34375 -1.207031 17.625 -2.214844 17.738281 -3.304688 C 17.859375 -4.484375 17.898438 -5.914062 17.859375 -7.601562 C 17.816406 -9.351562 17.792969 -11.480469 17.792969 -13.992188 C 17.792969 -15.148438 18.097656 -15.96875 18.707031 -16.445312 C 19.207031 -16.839844 19.988281 -17.0625 21.054688 -17.117188 C 21.929688 -17.164062 22.882812 -17.171875 23.90625 -17.152344 C 24.875 -17.132812 25.800781 -17.140625 26.683594 -17.183594 C 27.515625 -17.222656 28.144531 -17.292969 28.578125 -17.402344 L 28.871094 -16.21875 L 28.527344 -17.386719 C 30.316406 -17.917969 32.023438 -18.605469 33.648438 -19.460938 C 35.210938 -20.28125 36.554688 -21.332031 37.6875 -22.621094 C 38.777344 -23.863281 39.535156 -25.40625 39.960938 -27.25 C 40.785156 -30.707031 40.621094 -33.695312 39.464844 -36.21875 C 38.289062 -38.785156 36.390625 -40.933594 33.761719 -42.671875 C 31.0625 -44.457031 27.851562 -45.800781 24.132812 -46.699219 C 20.371094 -47.609375 16.394531 -48.066406 12.210938 -48.066406 C 10.65625 -48.066406 9.304688 -47.984375 8.152344 -47.824219 C 7.164062 -47.683594 6.339844 -47.355469 5.6875 -46.835938 C 5.042969 -46.324219 4.484375 -45.414062 4.015625 -44.113281 C 3.746094 -43.351562 3.554688 -42.480469 3.4375 -41.511719 C 3.316406 -40.5 3.257812 -39.171875 3.257812 -37.527344 L 3.289062 -31.039062 L 3.320312 -21.175781 C 3.320312 -16.035156 3.277344 -11.851562 3.191406 -8.617188 C 3.109375 -5.453125 3.167969 -3.011719 3.375 -1.289062 C 3.546875 0.167969 3.945312 1.15625 4.5625 1.667969 C 5.230469 2.21875 6.386719 2.550781 8.03125 2.660156 Z M 19.726562 -28.746094 C 19.726562 -28.59375 19.738281 -28.472656 19.757812 -28.382812 C 19.765625 -28.355469 19.769531 -28.335938 19.777344 -28.324219 C 19.773438 -28.328125 19.769531 -28.335938 19.761719 -28.347656 C 19.691406 -28.449219 19.609375 -28.503906 19.523438 -28.503906 L 19.523438 -27.28125 L 19.480469 -28.503906 C 21.894531 -28.585938 23.949219 -28.75 25.644531 -29 C 27.109375 -29.214844 28.136719 -29.625 28.730469 -30.234375 C 29.214844 -30.730469 29.328125 -31.617188 29.074219 -32.894531 C 29.03125 -33.113281 28.789062 -33.316406 28.351562 -33.507812 C 27.625 -33.828125 26.75 -34.0625 25.734375 -34.214844 C 24.648438 -34.378906 23.5625 -34.492188 22.476562 -34.554688 C 21.375 -34.617188 20.453125 -34.648438 19.714844 -34.648438 C 19.652344 -34.648438 19.605469 -34.644531 19.578125 -34.636719 C 19.605469 -34.644531 19.640625 -34.660156 19.675781 -34.691406 C 19.785156 -34.773438 19.84375 -34.859375 19.851562 -34.949219 L 19.847656 -34.921875 L 19.847656 -34.894531 C 19.726562 -33.894531 19.675781 -32.898438 19.695312 -31.917969 C 19.71875 -30.871094 19.726562 -29.8125 19.726562 -28.746094 Z M 17.285156 -28.746094 C 17.285156 -29.796875 17.273438 -30.839844 17.253906 -31.867188 C 17.230469 -32.964844 17.289062 -34.070312 17.421875 -35.1875 L 18.632812 -35.042969 L 17.417969 -35.136719 C 17.464844 -35.773438 17.726562 -36.273438 18.195312 -36.632812 C 18.59375 -36.9375 19.101562 -37.089844 19.714844 -37.089844 C 20.5 -37.089844 21.46875 -37.058594 22.613281 -36.992188 C 23.773438 -36.925781 24.9375 -36.804688 26.097656 -36.628906 C 27.328125 -36.445312 28.402344 -36.152344 29.328125 -35.746094 C 30.546875 -35.21875 31.257812 -34.425781 31.46875 -33.375 C 31.890625 -31.257812 31.5625 -29.640625 30.480469 -28.53125 C 29.503906 -27.527344 28.007812 -26.878906 25.996094 -26.582031 C 24.214844 -26.324219 22.070312 -26.148438 19.566406 -26.0625 L 19.523438 -26.0625 C 18.757812 -26.0625 18.171875 -26.359375 17.757812 -26.949219 C 17.441406 -27.40625 17.285156 -28.003906 17.285156 -28.746094 Z M 17.285156 -28.746094 "/></g></g></g><g fill="#000000" fill-opacity="1"><g transform="translate(211.02416, 161.249989)"><g><path d="M 7.867188 5.097656 C 5.699219 4.953125 4.078125 4.4375 3.003906 3.546875 C 1.886719 2.617188 1.199219 1.101562 0.949219 -1 C 0.730469 -2.839844 0.664062 -5.398438 0.75 -8.679688 C 0.835938 -11.894531 0.878906 -16.058594 0.878906 -21.175781 L 0.847656 -31.03125 L 0.8125 -37.515625 C 0.8125 -39.265625 0.878906 -40.691406 1.011719 -41.800781 C 1.152344 -42.949219 1.382812 -43.988281 1.710938 -44.921875 C 2.339844 -46.671875 3.160156 -47.949219 4.167969 -48.75 C 5.167969 -49.542969 6.382812 -50.042969 7.8125 -50.242188 C 9.078125 -50.417969 10.542969 -50.507812 12.210938 -50.507812 C 16.589844 -50.507812 20.753906 -50.03125 24.707031 -49.074219 C 28.703125 -48.109375 32.171875 -46.652344 35.109375 -44.707031 C 38.125 -42.714844 40.316406 -40.222656 41.683594 -37.234375 C 43.074219 -34.203125 43.289062 -30.683594 42.335938 -26.679688 C 41.824219 -24.453125 40.886719 -22.5625 39.519531 -21.007812 C 38.191406 -19.496094 36.613281 -18.257812 34.78125 -17.296875 C 33.015625 -16.371094 31.160156 -15.621094 29.21875 -15.046875 L 29.195312 -15.039062 L 29.167969 -15.03125 C 28.582031 -14.886719 27.792969 -14.789062 26.800781 -14.742188 C 25.859375 -14.699219 24.878906 -14.6875 23.855469 -14.710938 C 22.886719 -14.730469 21.992188 -14.71875 21.175781 -14.679688 C 20.851562 -14.664062 20.59375 -14.628906 20.390625 -14.578125 C 20.320312 -14.5625 20.261719 -14.542969 20.21875 -14.523438 L 20.214844 -14.527344 C 20.257812 -14.558594 20.289062 -14.59375 20.308594 -14.625 C 20.308594 -14.625 20.304688 -14.613281 20.296875 -14.589844 C 20.257812 -14.453125 20.234375 -14.253906 20.234375 -13.992188 C 20.234375 -11.5 20.257812 -9.390625 20.300781 -7.660156 C 20.34375 -5.871094 20.296875 -4.335938 20.167969 -3.054688 C 20.023438 -1.683594 19.667969 -0.40625 19.097656 0.78125 L 17.996094 0.253906 L 19.117188 0.738281 C 18.28125 2.675781 16.691406 3.9375 14.351562 4.523438 C 12.277344 5.042969 10.121094 5.234375 7.875 5.097656 Z M 8.023438 2.660156 C 10.019531 2.78125 11.929688 2.613281 13.757812 2.152344 C 15.320312 1.765625 16.359375 0.96875 16.878906 -0.230469 L 16.886719 -0.253906 L 16.898438 -0.273438 C 17.34375 -1.207031 17.625 -2.214844 17.738281 -3.304688 C 17.859375 -4.484375 17.898438 -5.914062 17.859375 -7.601562 C 17.816406 -9.351562 17.792969 -11.480469 17.792969 -13.992188 C 17.792969 -15.148438 18.097656 -15.96875 18.707031 -16.445312 C 19.207031 -16.839844 19.988281 -17.0625 21.054688 -17.117188 C 21.929688 -17.164062 22.882812 -17.171875 23.90625 -17.152344 C 24.875 -17.132812 25.800781 -17.140625 26.683594 -17.183594 C 27.515625 -17.222656 28.144531 -17.292969 28.578125 -17.402344 L 28.871094 -16.21875 L 28.527344 -17.386719 C 30.316406 -17.917969 32.023438 -18.605469 33.648438 -19.460938 C 35.210938 -20.28125 36.554688 -21.332031 37.6875 -22.621094 C 38.777344 -23.863281 39.535156 -25.40625 39.960938 -27.25 C 40.785156 -30.707031 40.621094 -33.695312 39.464844 -36.21875 C 38.289062 -38.785156 36.390625 -40.933594 33.761719 -42.671875 C 31.0625 -44.457031 27.851562 -45.800781 24.132812 -46.699219 C 20.371094 -47.609375 16.394531 -48.066406 12.210938 -48.066406 C 10.65625 -48.066406 9.304688 -47.984375 8.152344 -47.824219 C 7.164062 -47.683594 6.339844 -47.355469 5.6875 -46.835938 C 5.042969 -46.324219 4.484375 -45.414062 4.015625 -44.113281 C 3.746094 -43.351562 3.554688 -42.480469 3.4375 -41.511719 C 3.316406 -40.5 3.257812 -39.171875 3.257812 -37.527344 L 3.289062 -31.039062 L 3.320312 -21.175781 C 3.320312 -16.035156 3.277344 -11.851562 3.191406 -8.617188 C 3.109375 -5.453125 3.167969 -3.011719 3.375 -1.289062 C 3.546875 0.167969 3.945312 1.15625 4.5625 1.667969 C 5.230469 2.21875 6.386719 2.550781 8.03125 2.660156 Z M 19.726562 -28.746094 C 19.726562 -28.59375 19.738281 -28.472656 19.757812 -28.382812 C 19.765625 -28.355469 19.769531 -28.335938 19.777344 -28.324219 C 19.773438 -28.328125 19.769531 -28.335938 19.761719 -28.347656 C 19.691406 -28.449219 19.609375 -28.503906 19.523438 -28.503906 L 19.523438 -27.28125 L 19.480469 -28.503906 C 21.894531 -28.585938 23.949219 -28.75 25.644531 -29 C 27.109375 -29.214844 28.136719 -29.625 28.730469 -30.234375 C 29.214844 -30.730469 29.328125 -31.617188 29.074219 -32.894531 C 29.03125 -33.113281 28.789062 -33.316406 28.351562 -33.507812 C 27.625 -33.828125 26.75 -34.0625 25.734375 -34.214844 C 24.648438 -34.378906 23.5625 -34.492188 22.476562 -34.554688 C 21.375 -34.617188 20.453125 -34.648438 19.714844 -34.648438 C 19.652344 -34.648438 19.605469 -34.644531 19.578125 -34.636719 C 19.605469 -34.644531 19.640625 -34.660156 19.675781 -34.691406 C 19.785156 -34.773438 19.84375 -34.859375 19.851562 -34.949219 L 19.847656 -34.921875 L 19.847656 -34.894531 C 19.726562 -33.894531 19.675781 -32.898438 19.695312 -31.917969 C 19.71875 -30.871094 19.726562 -29.8125 19.726562 -28.746094 Z M 17.285156 -28.746094 C 17.285156 -29.796875 17.273438 -30.839844 17.253906 -31.867188 C 17.230469 -32.964844 17.289062 -34.070312 17.421875 -35.1875 L 18.632812 -35.042969 L 17.417969 -35.136719 C 17.464844 -35.773438 17.726562 -36.273438 18.195312 -36.632812 C 18.59375 -36.9375 19.101562 -37.089844 19.714844 -37.089844 C 20.5 -37.089844 21.46875 -37.058594 22.613281 -36.992188 C 23.773438 -36.925781 24.9375 -36.804688 26.097656 -36.628906 C 27.328125 -36.445312 28.402344 -36.152344 29.328125 -35.746094 C 30.546875 -35.21875 31.257812 -34.425781 31.46875 -33.375 C 31.890625 -31.257812 31.5625 -29.640625 30.480469 -28.53125 C 29.503906 -27.527344 28.007812 -26.878906 25.996094 -26.582031 C 24.214844 -26.324219 22.070312 -26.148438 19.566406 -26.0625 L 19.523438 -26.0625 C 18.757812 -26.0625 18.171875 -26.359375 17.757812 -26.949219 C 17.441406 -27.40625 17.285156 -28.003906 17.285156 -28.746094 Z M 17.285156 -28.746094 "/></g></g></g><g fill="#000000" fill-opacity="1"><g transform="translate(254.586607, 161.249989)"><g><path d="M 20.75 2.832031 C 19.058594 4.0625 17.039062 4.429688 14.691406 3.929688 C 12.5 3.460938 10.496094 2.464844 8.6875 0.933594 C 7.347656 -0.222656 6.367188 -1.335938 5.746094 -2.410156 C 5 -3.707031 4.910156 -5.066406 5.480469 -6.496094 C 5.878906 -7.558594 6.785156 -9.308594 8.195312 -11.742188 C 9.578125 -14.121094 11.433594 -17.261719 13.769531 -21.167969 L 14.816406 -20.542969 L 13.808594 -19.855469 C 11.3125 -23.539062 9.226562 -26.550781 7.558594 -28.894531 C 5.878906 -31.257812 4.546875 -33.175781 3.5625 -34.648438 C 2.542969 -36.179688 1.816406 -37.46875 1.382812 -38.519531 C 0.917969 -39.644531 0.6875 -40.773438 0.6875 -41.910156 C 0.6875 -44.050781 1.519531 -45.878906 3.183594 -47.390625 L 3.199219 -47.40625 L 3.210938 -47.414062 C 3.867188 -47.976562 4.6875 -48.53125 5.667969 -49.082031 C 6.765625 -49.691406 7.78125 -50 8.710938 -50 C 9.914062 -50 11.023438 -49.625 12.042969 -48.871094 C 12.929688 -48.21875 13.703125 -47.492188 14.363281 -46.691406 C 15.375 -45.5 16.527344 -43.78125 17.816406 -41.53125 C 19.066406 -39.351562 20.664062 -36.609375 22.609375 -33.308594 L 21.558594 -32.6875 L 20.476562 -33.253906 L 22.382812 -36.910156 C 23.027344 -38.132812 23.691406 -39.34375 24.378906 -40.542969 C 25.65625 -42.761719 26.765625 -44.636719 27.703125 -46.171875 C 28.832031 -48.019531 30.109375 -49.054688 31.542969 -49.285156 C 32.710938 -49.488281 34.042969 -49.332031 35.535156 -48.820312 C 36.910156 -48.347656 38.261719 -47.703125 39.589844 -46.894531 C 40.933594 -46.074219 42.023438 -45.222656 42.859375 -44.339844 L 41.972656 -43.5 L 42.808594 -44.390625 C 43.707031 -43.546875 44.308594 -42.488281 44.621094 -41.214844 C 44.929688 -39.953125 44.859375 -38.617188 44.40625 -37.210938 C 44.113281 -36.332031 43.679688 -35.472656 43.109375 -34.636719 C 42.628906 -33.941406 42.191406 -33.195312 41.792969 -32.398438 C 38.480469 -25.8125 35.679688 -20.378906 33.382812 -16.085938 C 31.082031 -11.78125 29.152344 -8.367188 27.589844 -5.84375 C 26.015625 -3.300781 24.707031 -1.375 23.65625 -0.0625 C 22.5625 1.308594 21.578125 2.28125 20.710938 2.859375 L 20.03125 1.84375 Z M 19.316406 0.855469 L 19.335938 0.84375 L 19.355469 0.828125 C 20.011719 0.390625 20.8125 -0.417969 21.75 -1.589844 C 22.738281 -2.824219 23.992188 -4.667969 25.511719 -7.128906 C 27.046875 -9.609375 28.953125 -12.976562 31.230469 -17.238281 C 33.515625 -21.511719 36.308594 -26.929688 39.609375 -33.488281 C 40.058594 -34.386719 40.554688 -35.230469 41.09375 -36.019531 C 41.539062 -36.664062 41.867188 -37.3125 42.082031 -37.960938 C 42.394531 -38.925781 42.449219 -39.820312 42.25 -40.632812 C 42.054688 -41.4375 41.683594 -42.097656 41.136719 -42.609375 L 41.109375 -42.632812 L 41.085938 -42.660156 C 40.398438 -43.386719 39.476562 -44.105469 38.316406 -44.808594 C 37.140625 -45.527344 35.949219 -46.09375 34.738281 -46.511719 C 33.644531 -46.886719 32.707031 -47.007812 31.925781 -46.871094 C 31.238281 -46.761719 30.523438 -46.105469 29.789062 -44.898438 C 28.859375 -43.378906 27.765625 -41.527344 26.5 -39.332031 C 25.828125 -38.15625 25.175781 -36.972656 24.550781 -35.78125 L 21.625 -30.175781 L 20.507812 -32.066406 C 18.554688 -35.378906 16.953125 -38.128906 15.699219 -40.316406 C 14.484375 -42.433594 13.410156 -44.042969 12.476562 -45.140625 C 11.945312 -45.78125 11.320312 -46.371094 10.597656 -46.90625 C 10.003906 -47.339844 9.378906 -47.558594 8.710938 -47.558594 C 8.203125 -47.558594 7.585938 -47.355469 6.859375 -46.949219 C 6.019531 -46.480469 5.332031 -46.015625 4.800781 -45.5625 L 4.007812 -46.488281 L 4.828125 -45.585938 C 3.695312 -44.554688 3.128906 -43.332031 3.128906 -41.910156 C 3.128906 -41.097656 3.300781 -40.277344 3.640625 -39.449219 C 4.011719 -38.550781 4.664062 -37.402344 5.59375 -36.003906 C 6.5625 -34.550781 7.882812 -32.65625 9.546875 -30.3125 C 11.230469 -27.953125 13.320312 -24.921875 15.828125 -21.226562 L 16.265625 -20.582031 L 15.867188 -19.914062 C 13.535156 -16.019531 11.683594 -12.886719 10.308594 -10.515625 C 8.964844 -8.199219 8.113281 -6.558594 7.746094 -5.589844 C 7.46875 -4.894531 7.507812 -4.242188 7.863281 -3.632812 C 8.34375 -2.796875 9.144531 -1.898438 10.265625 -0.933594 C 11.761719 0.335938 13.40625 1.160156 15.199219 1.539062 C 16.835938 1.890625 18.207031 1.660156 19.316406 0.855469 Z M 19.316406 0.855469 "/></g></g></g><g fill="#000000" fill-opacity="1"><g transform="translate(9.329712, 251.999983)"><g><path d="M 26.1875 6.175781 C 23.328125 6.441406 20.40625 6.332031 17.421875 5.847656 C 14.402344 5.359375 11.605469 4.425781 9.027344 3.046875 C 6.402344 1.644531 4.25 -0.210938 2.574219 -2.527344 L 2.550781 -2.554688 L 2.53125 -2.585938 C 1.773438 -3.769531 1.234375 -5.121094 0.90625 -6.644531 C 0.566406 -8.222656 0.613281 -9.761719 1.054688 -11.253906 C 1.523438 -12.835938 2.476562 -14.089844 3.917969 -15.019531 C 5.601562 -16.074219 7.148438 -16.617188 8.5625 -16.644531 C 9.960938 -16.667969 11.273438 -16.355469 12.496094 -15.707031 C 13.632812 -15.101562 14.6875 -14.335938 15.660156 -13.414062 L 14.816406 -12.527344 L 15.46875 -13.5625 C 16.605469 -12.84375 17.753906 -12.140625 18.914062 -11.445312 C 19.882812 -10.863281 20.820312 -10.570312 21.71875 -10.570312 C 22.441406 -10.570312 23.167969 -11.046875 23.898438 -12 L 24.867188 -11.257812 L 23.8125 -11.871094 C 24.1875 -12.519531 24.289062 -13.03125 24.113281 -13.40625 C 23.84375 -13.972656 23.386719 -14.480469 22.738281 -14.925781 C 21.972656 -15.457031 21.15625 -15.921875 20.289062 -16.3125 C 19.34375 -16.742188 18.566406 -17.109375 17.960938 -17.414062 C 16.0625 -18.382812 14.242188 -19.269531 12.496094 -20.066406 C 10.660156 -20.910156 9.007812 -21.875 7.539062 -22.964844 C 5.988281 -24.117188 4.765625 -25.558594 3.875 -27.296875 C 2.980469 -29.042969 2.53125 -31.242188 2.53125 -33.898438 C 2.578125 -37.34375 3.480469 -40.292969 5.238281 -42.75 C 6.976562 -45.171875 9.3125 -47.054688 12.242188 -48.394531 C 15.128906 -49.714844 18.351562 -50.417969 21.910156 -50.507812 L 21.957031 -50.507812 C 25.027344 -50.464844 27.957031 -50.070312 30.746094 -49.320312 C 33.585938 -48.5625 36.101562 -47.386719 38.300781 -45.792969 C 40.546875 -44.164062 42.308594 -42.007812 43.585938 -39.316406 L 42.480469 -38.792969 L 43.539062 -39.402344 C 44.308594 -38.074219 44.613281 -36.671875 44.460938 -35.199219 C 44.304688 -33.746094 43.769531 -32.464844 42.847656 -31.363281 C 41.90625 -30.238281 40.621094 -29.5 38.992188 -29.140625 L 38.730469 -30.335938 L 39.105469 -29.171875 C 37.570312 -28.679688 36.050781 -28.617188 34.554688 -28.992188 C 33.171875 -29.335938 31.824219 -29.890625 30.519531 -30.644531 C 29.285156 -31.359375 28.109375 -32.09375 26.984375 -32.851562 C 25.945312 -33.550781 24.964844 -34.097656 24.039062 -34.492188 C 23.285156 -34.8125 22.609375 -34.90625 22.019531 -34.773438 C 21.507812 -34.65625 20.980469 -34.15625 20.441406 -33.261719 L 19.398438 -33.898438 L 20.488281 -33.351562 C 20.28125 -32.933594 20.273438 -32.582031 20.464844 -32.300781 C 20.824219 -31.78125 21.363281 -31.324219 22.082031 -30.929688 C 22.933594 -30.464844 23.800781 -30.050781 24.691406 -29.683594 C 25.640625 -29.296875 26.398438 -28.972656 26.96875 -28.710938 L 26.457031 -27.601562 L 26.910156 -28.734375 C 29.074219 -27.867188 31.152344 -26.894531 33.144531 -25.8125 C 35.171875 -24.710938 36.992188 -23.460938 38.605469 -22.070312 C 40.269531 -20.632812 41.582031 -19 42.546875 -17.167969 C 43.539062 -15.277344 43.988281 -13.144531 43.894531 -10.761719 C 43.800781 -7.21875 42.878906 -4.21875 41.121094 -1.769531 C 39.390625 0.644531 37.191406 2.503906 34.527344 3.800781 C 31.917969 5.070312 29.144531 5.863281 26.203125 6.175781 Z M 25.945312 3.746094 C 28.601562 3.464844 31.105469 2.75 33.457031 1.605469 C 35.753906 0.488281 37.644531 -1.113281 39.136719 -3.191406 C 40.601562 -5.234375 41.375 -7.792969 41.453125 -10.859375 C 41.527344 -12.804688 41.171875 -14.527344 40.382812 -16.03125 C 39.566406 -17.589844 38.441406 -18.988281 37.011719 -20.222656 C 35.527344 -21.5 33.851562 -22.648438 31.976562 -23.667969 C 30.070312 -24.703125 28.078125 -25.636719 26.003906 -26.46875 L 25.972656 -26.480469 L 25.945312 -26.492188 C 25.410156 -26.738281 24.683594 -27.050781 23.769531 -27.425781 C 22.792969 -27.824219 21.839844 -28.277344 20.910156 -28.789062 C 19.847656 -29.367188 19.03125 -30.078125 18.453125 -30.914062 C 17.714844 -31.988281 17.664062 -33.164062 18.304688 -34.441406 L 18.328125 -34.488281 L 18.351562 -34.53125 C 19.253906 -36.011719 20.296875 -36.886719 21.480469 -37.15625 C 22.585938 -37.402344 23.757812 -37.265625 24.996094 -36.738281 C 26.0625 -36.28125 27.179688 -35.664062 28.347656 -34.878906 C 29.425781 -34.152344 30.558594 -33.445312 31.742188 -32.757812 C 32.851562 -32.117188 33.984375 -31.652344 35.148438 -31.359375 C 36.191406 -31.097656 37.261719 -31.144531 38.355469 -31.496094 L 38.410156 -31.515625 L 38.46875 -31.527344 C 39.554688 -31.765625 40.390625 -32.234375 40.972656 -32.933594 C 41.578125 -33.652344 41.929688 -34.492188 42.03125 -35.457031 C 42.128906 -36.402344 41.929688 -37.308594 41.425781 -38.183594 L 41.398438 -38.226562 L 41.378906 -38.269531 C 40.28125 -40.582031 38.777344 -42.433594 36.867188 -43.816406 C 34.914062 -45.230469 32.660156 -46.28125 30.113281 -46.960938 C 27.519531 -47.65625 24.789062 -48.023438 21.921875 -48.066406 L 21.941406 -49.285156 L 21.972656 -48.066406 C 18.746094 -47.984375 15.84375 -47.355469 13.257812 -46.171875 C 10.722656 -45.011719 8.710938 -43.398438 7.226562 -41.324219 C 5.761719 -39.285156 5.011719 -36.808594 4.972656 -33.898438 C 4.972656 -31.632812 5.332031 -29.804688 6.046875 -28.414062 C 6.765625 -27.011719 7.75 -25.851562 8.996094 -24.925781 C 10.324219 -23.9375 11.832031 -23.058594 13.515625 -22.289062 C 15.289062 -21.476562 17.136719 -20.578125 19.050781 -19.597656 C 19.632812 -19.308594 20.382812 -18.953125 21.300781 -18.535156 C 22.300781 -18.082031 23.242188 -17.546875 24.128906 -16.933594 C 25.136719 -16.238281 25.867188 -15.410156 26.320312 -14.449219 C 26.863281 -13.296875 26.730469 -12.027344 25.921875 -10.640625 L 25.882812 -10.574219 L 25.835938 -10.511719 C 24.617188 -8.921875 23.242188 -8.128906 21.71875 -8.128906 C 20.367188 -8.128906 19.015625 -8.535156 17.65625 -9.351562 C 16.480469 -10.054688 15.320312 -10.769531 14.167969 -11.496094 L 14.0625 -11.558594 L 13.976562 -11.644531 C 13.167969 -12.414062 12.292969 -13.050781 11.351562 -13.546875 C 10.5 -14 9.585938 -14.21875 8.605469 -14.203125 C 7.648438 -14.183594 6.523438 -13.773438 5.238281 -12.964844 C 4.308594 -12.363281 3.691406 -11.5625 3.398438 -10.5625 C 3.074219 -9.46875 3.039062 -8.332031 3.292969 -7.15625 C 3.558594 -5.921875 3.992188 -4.835938 4.589844 -3.902344 L 3.5625 -3.242188 L 4.550781 -3.960938 C 6.007812 -1.949219 7.882812 -0.332031 10.179688 0.894531 C 12.519531 2.144531 15.0625 2.992188 17.8125 3.4375 C 20.59375 3.886719 23.308594 3.988281 25.960938 3.746094 Z M 25.945312 3.746094 "/></g></g></g><g fill="#000000" fill-opacity="1"><g transform="translate(54.482029, 251.999983)"><g><path d="M 43.125 2.585938 C 41.90625 3.449219 40.429688 3.90625 38.703125 3.957031 C 37.078125 4 35.476562 3.769531 33.902344 3.261719 C 32.285156 2.738281 30.984375 2.007812 30.003906 1.074219 L 29.988281 1.058594 L 29.96875 1.042969 C 28.203125 -0.769531 26.644531 -2.855469 25.300781 -5.214844 C 23.988281 -7.515625 22.78125 -9.882812 21.6875 -12.3125 C 20.613281 -14.691406 19.53125 -16.953125 18.4375 -19.097656 C 18.554688 -18.859375 18.742188 -18.691406 19 -18.59375 C 19.160156 -18.535156 19.320312 -18.515625 19.46875 -18.542969 C 19.699219 -18.582031 19.894531 -18.691406 20.054688 -18.878906 C 20.21875 -19.070312 20.300781 -19.285156 20.300781 -19.523438 L 20.300781 -19.472656 C 20.214844 -17.410156 20.160156 -15.34375 20.140625 -13.277344 C 20.121094 -11.207031 20.109375 -9.109375 20.109375 -6.996094 C 20.109375 -6.136719 20.148438 -5.160156 20.234375 -4.066406 C 20.324219 -2.832031 20.265625 -1.675781 20.054688 -0.59375 C 19.792969 0.738281 19.085938 1.75 17.925781 2.445312 C 16.75 3.132812 15.328125 3.570312 13.652344 3.757812 C 12.042969 3.9375 10.417969 3.914062 8.769531 3.691406 C 7.09375 3.460938 5.628906 3.042969 4.367188 2.4375 C 2.960938 1.734375 1.980469 0.601562 1.425781 -0.957031 C 0.933594 -2.335938 0.679688 -3.875 0.65625 -5.578125 C 0.632812 -7.191406 0.699219 -8.816406 0.851562 -10.449219 C 0.996094 -12 1.070312 -13.351562 1.070312 -14.5 C 1.152344 -20.597656 1.410156 -26.667969 1.835938 -32.710938 C 2.003906 -35.652344 2.109375 -38.21875 2.148438 -40.40625 C 2.195312 -42.753906 2.496094 -44.660156 3.054688 -46.128906 C 3.734375 -47.910156 5.03125 -48.941406 6.945312 -49.222656 C 8.597656 -49.484375 10.214844 -49.636719 11.796875 -49.679688 C 13.542969 -49.730469 15.128906 -49.359375 16.550781 -48.574219 L 15.960938 -47.507812 L 16.507812 -48.597656 C 17.175781 -48.265625 17.957031 -47.539062 18.855469 -46.425781 C 19.660156 -45.425781 20.546875 -44.214844 21.519531 -42.789062 C 22.480469 -41.378906 23.453125 -39.890625 24.4375 -38.332031 C 25.421875 -36.765625 26.324219 -35.253906 27.140625 -33.792969 C 27.953125 -32.339844 28.636719 -31.078125 29.191406 -30.007812 L 28.109375 -29.445312 L 28.972656 -30.308594 C 28.761719 -30.519531 28.511719 -30.601562 28.226562 -30.554688 C 28 -30.515625 27.804688 -30.402344 27.644531 -30.214844 C 27.480469 -30.023438 27.398438 -29.808594 27.398438 -29.570312 L 28.617188 -29.570312 L 27.398438 -29.539062 C 27.355469 -31.097656 27.28125 -32.902344 27.175781 -34.945312 C 27.066406 -37.046875 27.066406 -39.113281 27.175781 -41.148438 C 27.289062 -43.273438 27.644531 -45.097656 28.246094 -46.617188 L 29.382812 -46.171875 L 28.234375 -46.59375 C 29.003906 -48.675781 30.460938 -49.839844 32.613281 -50.085938 C 34.359375 -50.289062 36.742188 -50.214844 39.761719 -49.863281 C 41.722656 -49.617188 43.214844 -49.027344 44.234375 -48.085938 C 45.246094 -47.148438 45.910156 -45.984375 46.21875 -44.589844 C 46.492188 -43.351562 46.621094 -41.988281 46.597656 -40.492188 C 46.574219 -39.097656 46.566406 -37.644531 46.566406 -36.121094 C 46.566406 -27.589844 46.4375 -19.011719 46.183594 -10.394531 C 46.140625 -9.207031 46.097656 -7.796875 46.054688 -6.167969 C 46.011719 -4.457031 45.820312 -2.84375 45.488281 -1.328125 C 45.101562 0.417969 44.320312 1.71875 43.136719 2.578125 Z M 41.699219 0.601562 C 42.382812 0.105469 42.851562 -0.710938 43.101562 -1.851562 C 43.402344 -3.21875 43.574219 -4.679688 43.613281 -6.230469 C 43.65625 -7.867188 43.699219 -9.28125 43.742188 -10.464844 C 43.996094 -19.058594 44.121094 -27.613281 44.121094 -36.121094 C 44.121094 -37.65625 44.132812 -39.125 44.15625 -40.527344 C 44.175781 -41.832031 44.066406 -43.011719 43.835938 -44.0625 C 43.636719 -44.957031 43.214844 -45.699219 42.578125 -46.292969 C 41.941406 -46.878906 40.910156 -47.257812 39.480469 -47.4375 C 36.648438 -47.765625 34.453125 -47.839844 32.890625 -47.660156 C 31.734375 -47.527344 30.949219 -46.890625 30.527344 -45.75 L 30.523438 -45.734375 L 30.515625 -45.722656 C 30.015625 -44.445312 29.714844 -42.878906 29.613281 -41.019531 C 29.511719 -39.066406 29.511719 -37.085938 29.613281 -35.074219 C 29.722656 -33.007812 29.796875 -31.183594 29.839844 -29.605469 L 29.839844 -29.570312 C 29.839844 -29.207031 29.726562 -28.890625 29.496094 -28.625 C 29.273438 -28.363281 28.984375 -28.203125 28.628906 -28.144531 C 28.085938 -28.054688 27.628906 -28.199219 27.246094 -28.582031 L 27.113281 -28.714844 L 27.027344 -28.882812 C 26.480469 -29.929688 25.808594 -31.171875 25.007812 -32.601562 C 24.214844 -34.023438 23.335938 -35.5 22.371094 -37.03125 C 21.402344 -38.566406 20.445312 -40.027344 19.5 -41.414062 C 18.566406 -42.785156 17.714844 -43.945312 16.949219 -44.898438 C 16.277344 -45.734375 15.765625 -46.238281 15.417969 -46.414062 L 15.371094 -46.4375 C 14.335938 -47.007812 13.167969 -47.277344 11.863281 -47.238281 C 10.390625 -47.199219 8.867188 -47.054688 7.300781 -46.808594 C 6.332031 -46.664062 5.675781 -46.148438 5.339844 -45.257812 C 4.878906 -44.054688 4.632812 -42.421875 4.589844 -40.359375 C 4.546875 -38.140625 4.441406 -35.53125 4.269531 -32.539062 C 3.847656 -26.542969 3.59375 -20.527344 3.511719 -14.5 C 3.511719 -13.273438 3.433594 -11.847656 3.28125 -10.222656 C 3.136719 -8.675781 3.078125 -7.136719 3.097656 -5.613281 C 3.117188 -4.179688 3.324219 -2.902344 3.726562 -1.777344 C 4.0625 -0.835938 4.628906 -0.164062 5.425781 0.234375 C 6.457031 0.730469 7.679688 1.074219 9.101562 1.269531 C 10.546875 1.46875 11.972656 1.488281 13.378906 1.332031 C 14.710938 1.179688 15.808594 0.855469 16.671875 0.351562 C 17.207031 0.03125 17.535156 -0.441406 17.65625 -1.0625 C 17.828125 -1.929688 17.875 -2.867188 17.796875 -3.882812 C 17.710938 -5.035156 17.667969 -6.074219 17.667969 -6.996094 C 17.667969 -9.121094 17.675781 -11.222656 17.699219 -13.304688 C 17.71875 -15.394531 17.773438 -17.484375 17.859375 -19.574219 L 19.078125 -19.523438 L 17.859375 -19.523438 C 17.859375 -19.890625 17.972656 -20.203125 18.199219 -20.46875 C 18.421875 -20.730469 18.714844 -20.890625 19.070312 -20.949219 C 19.347656 -20.996094 19.609375 -20.972656 19.855469 -20.882812 C 20.199219 -20.753906 20.449219 -20.527344 20.613281 -20.207031 C 21.722656 -18.027344 22.824219 -15.730469 23.914062 -13.316406 C 24.976562 -10.957031 26.148438 -8.660156 27.421875 -6.421875 C 28.664062 -4.246094 30.09375 -2.324219 31.71875 -0.660156 L 30.84375 0.191406 L 31.683594 -0.695312 C 32.398438 -0.015625 33.390625 0.527344 34.652344 0.9375 C 35.960938 1.359375 37.289062 1.550781 38.632812 1.515625 C 39.871094 1.480469 40.894531 1.171875 41.710938 0.59375 Z M 41.699219 0.601562 "/></g></g></g><g fill="#000000" fill-opacity="1"><g transform="translate(101.796571, 251.999983)"><g><path d="M 27.363281 5.226562 C 24.761719 5.398438 22.277344 5.398438 19.910156 5.222656 C 17.613281 5.054688 15.921875 4.949219 14.835938 4.910156 L 14.882812 3.6875 L 14.882812 4.910156 C 11.691406 4.910156 9.132812 4.457031 7.207031 3.554688 C 5.203125 2.609375 3.722656 1.234375 2.765625 -0.574219 C 1.871094 -2.277344 1.285156 -4.285156 1.011719 -6.597656 C 0.753906 -8.816406 0.652344 -11.28125 0.71875 -13.988281 C 0.78125 -16.632812 0.835938 -19.480469 0.878906 -22.53125 C 0.878906 -25.667969 0.921875 -28.789062 1.003906 -31.894531 C 1.089844 -35.035156 1.347656 -38.171875 1.777344 -41.3125 C 2.195312 -44.304688 3.027344 -46.539062 4.285156 -48.011719 C 5.613281 -49.570312 7.890625 -50.441406 11.121094 -50.632812 C 12.171875 -50.71875 13.636719 -50.8125 15.511719 -50.917969 C 17.390625 -51.027344 19.445312 -51.113281 21.683594 -51.175781 C 23.949219 -51.238281 26.183594 -51.195312 28.382812 -51.046875 C 30.628906 -50.890625 32.621094 -50.570312 34.355469 -50.082031 C 36.269531 -49.539062 37.648438 -48.71875 38.492188 -47.609375 L 37.523438 -46.871094 L 38.476562 -47.632812 C 38.976562 -47.007812 39.253906 -46.226562 39.3125 -45.292969 C 39.359375 -44.558594 39.335938 -43.609375 39.246094 -42.453125 C 39.054688 -39.785156 38.402344 -37.976562 37.296875 -37.035156 C 36.234375 -36.136719 34.632812 -35.636719 32.488281 -35.539062 C 30.925781 -35.492188 29.324219 -35.582031 27.691406 -35.804688 C 26.164062 -36.007812 24.660156 -36.132812 23.179688 -36.175781 C 21.773438 -36.214844 20.894531 -36.183594 20.542969 -36.089844 C 20.609375 -36.105469 20.660156 -36.132812 20.699219 -36.167969 L 20.703125 -36.171875 C 20.695312 -36.160156 20.683594 -36.140625 20.667969 -36.121094 C 20.570312 -35.949219 20.480469 -35.675781 20.402344 -35.300781 L 19.207031 -35.550781 L 20.414062 -35.371094 C 20.246094 -34.246094 20.113281 -33.136719 20.007812 -32.03125 C 19.917969 -31.082031 19.929688 -30.429688 20.046875 -30.085938 L 20.050781 -30.070312 L 20.054688 -30.058594 C 20.082031 -29.96875 20.167969 -29.90625 20.3125 -29.878906 C 20.8125 -29.773438 21.421875 -29.75 22.132812 -29.804688 C 23 -29.871094 23.890625 -29.894531 24.800781 -29.871094 C 25.847656 -29.84375 26.777344 -29.636719 27.59375 -29.242188 C 28.570312 -28.765625 29.238281 -27.933594 29.597656 -26.742188 L 29.625 -26.65625 L 29.636719 -26.566406 C 29.851562 -25.0625 30.023438 -23.609375 30.152344 -22.210938 C 30.308594 -20.527344 29.957031 -19.097656 29.097656 -17.914062 L 29.023438 -17.8125 L 28.929688 -17.730469 C 28.285156 -17.144531 27.386719 -16.757812 26.238281 -16.570312 C 25.253906 -16.410156 24.214844 -16.339844 23.125 -16.363281 C 22.09375 -16.386719 21.148438 -16.417969 20.289062 -16.460938 C 20.007812 -16.476562 19.785156 -16.464844 19.628906 -16.421875 C 19.589844 -16.414062 19.5625 -16.40625 19.546875 -16.394531 C 19.558594 -16.402344 19.574219 -16.414062 19.589844 -16.433594 L 19.589844 -16.421875 C 19.5625 -16.363281 19.53125 -16.289062 19.503906 -16.191406 C 19.433594 -15.933594 19.378906 -15.589844 19.339844 -15.160156 C 19.261719 -14.089844 19.273438 -12.960938 19.375 -11.773438 C 19.460938 -10.738281 19.632812 -10.035156 19.890625 -9.660156 L 18.886719 -8.96875 L 19.863281 -9.699219 C 20.027344 -9.484375 20.425781 -9.347656 21.058594 -9.292969 C 21.980469 -9.214844 22.957031 -9.226562 23.984375 -9.324219 C 25.078125 -9.429688 25.984375 -9.523438 26.695312 -9.605469 L 26.710938 -9.609375 L 26.730469 -9.609375 C 28.089844 -9.730469 29.558594 -10.023438 31.132812 -10.488281 C 32.957031 -11.027344 34.699219 -11.175781 36.359375 -10.9375 L 36.1875 -9.730469 L 36.328125 -10.941406 C 37.273438 -10.832031 38.066406 -10.53125 38.703125 -10.039062 C 39.367188 -9.527344 39.835938 -8.839844 40.113281 -7.972656 C 40.5625 -6.585938 40.742188 -4.820312 40.648438 -2.683594 C 40.601562 -1.753906 40.484375 -0.898438 40.296875 -0.125 C 40.085938 0.753906 39.730469 1.5 39.230469 2.109375 L 39.222656 2.121094 L 39.210938 2.128906 C 38.292969 3.203125 37.144531 3.941406 35.769531 4.351562 C 34.523438 4.71875 33.160156 4.925781 31.675781 4.972656 C 30.320312 5.015625 28.890625 5.097656 27.382812 5.222656 Z M 27.179688 2.789062 C 28.730469 2.660156 30.203125 2.574219 31.601562 2.53125 C 32.875 2.492188 34.03125 2.316406 35.078125 2.007812 C 35.992188 1.738281 36.75 1.25 37.359375 0.539062 L 38.285156 1.335938 L 37.339844 0.5625 C 37.605469 0.238281 37.800781 -0.183594 37.925781 -0.699219 C 38.078125 -1.324219 38.171875 -2.019531 38.210938 -2.785156 C 38.289062 -4.632812 38.148438 -6.113281 37.789062 -7.226562 C 37.667969 -7.609375 37.472656 -7.902344 37.214844 -8.101562 C 36.929688 -8.320312 36.539062 -8.460938 36.042969 -8.515625 L 36.027344 -8.519531 L 36.011719 -8.519531 C 34.703125 -8.707031 33.308594 -8.582031 31.824219 -8.144531 C 30.09375 -7.636719 28.46875 -7.3125 26.945312 -7.179688 L 26.835938 -8.394531 L 26.980469 -7.183594 C 26.25 -7.097656 25.332031 -7 24.21875 -6.894531 C 23.042969 -6.78125 21.921875 -6.769531 20.851562 -6.859375 C 19.492188 -6.976562 18.511719 -7.433594 17.910156 -8.234375 L 17.898438 -8.253906 L 17.882812 -8.273438 C 17.378906 -9 17.0625 -10.101562 16.941406 -11.566406 C 16.828125 -12.882812 16.816406 -14.148438 16.90625 -15.363281 C 17.015625 -16.664062 17.316406 -17.574219 17.804688 -18.097656 C 18.359375 -18.695312 19.230469 -18.960938 20.410156 -18.898438 C 21.246094 -18.859375 22.167969 -18.824219 23.175781 -18.804688 C 24.117188 -18.785156 25.007812 -18.84375 25.847656 -18.980469 C 26.519531 -19.089844 27 -19.277344 27.289062 -19.539062 L 28.109375 -18.632812 L 27.121094 -19.351562 C 27.621094 -20.035156 27.820312 -20.914062 27.71875 -21.988281 C 27.59375 -23.34375 27.429688 -24.757812 27.21875 -26.21875 L 28.425781 -26.390625 L 27.257812 -26.042969 C 27.105469 -26.546875 26.863281 -26.878906 26.527344 -27.042969 C 26.03125 -27.285156 25.433594 -27.414062 24.742188 -27.429688 C 23.914062 -27.449219 23.105469 -27.429688 22.320312 -27.367188 C 21.378906 -27.296875 20.542969 -27.335938 19.816406 -27.484375 C 18.730469 -27.710938 18.03125 -28.328125 17.722656 -29.339844 L 18.886719 -29.699219 L 17.730469 -29.3125 C 17.503906 -29.984375 17.453125 -30.96875 17.578125 -32.261719 C 17.683594 -33.40625 17.824219 -34.5625 18 -35.730469 L 18.003906 -35.765625 L 18.011719 -35.800781 C 18.324219 -37.304688 18.953125 -38.1875 19.902344 -38.445312 C 20.484375 -38.605469 21.601562 -38.660156 23.246094 -38.613281 C 24.816406 -38.570312 26.40625 -38.441406 28.019531 -38.222656 C 29.523438 -38.019531 30.976562 -37.9375 32.378906 -37.976562 C 33.964844 -38.050781 35.078125 -38.355469 35.714844 -38.898438 C 36.300781 -39.398438 36.667969 -40.644531 36.8125 -42.640625 C 36.894531 -43.683594 36.914062 -44.519531 36.875 -45.140625 C 36.847656 -45.5625 36.746094 -45.882812 36.566406 -46.109375 L 36.558594 -46.117188 L 36.550781 -46.128906 C 36.035156 -46.804688 35.085938 -47.335938 33.691406 -47.730469 C 32.121094 -48.171875 30.292969 -48.46875 28.214844 -48.609375 C 26.09375 -48.753906 23.9375 -48.796875 21.753906 -48.734375 C 19.539062 -48.671875 17.503906 -48.585938 15.648438 -48.480469 C 13.792969 -48.375 12.332031 -48.28125 11.265625 -48.195312 C 8.726562 -48.046875 7.019531 -47.457031 6.144531 -46.429688 C 5.195312 -45.316406 4.546875 -43.5 4.199219 -40.980469 C 3.78125 -37.929688 3.53125 -34.878906 3.445312 -31.828125 C 3.363281 -28.746094 3.320312 -25.632812 3.320312 -22.496094 C 3.277344 -19.4375 3.222656 -16.585938 3.160156 -13.929688 C 3.097656 -11.335938 3.191406 -8.988281 3.4375 -6.882812 C 3.675781 -4.871094 4.171875 -3.148438 4.929688 -1.714844 C 5.628906 -0.386719 6.734375 0.632812 8.246094 1.34375 C 9.839844 2.09375 12.054688 2.46875 14.882812 2.46875 L 14.929688 2.46875 C 16.046875 2.511719 17.765625 2.617188 20.089844 2.789062 C 22.34375 2.953125 24.714844 2.953125 27.203125 2.789062 Z M 27.179688 2.789062 "/></g></g></g><g fill="#000000" fill-opacity="1"><g transform="translate(145.359064, 251.999983)"><g><path d="M 6.308594 4.597656 C 4.414062 4 3.039062 3.023438 2.179688 1.671875 C 1.375 0.402344 0.902344 -1.027344 0.753906 -2.625 C 0.621094 -4.105469 0.644531 -5.632812 0.820312 -7.199219 C 0.992188 -8.675781 1.136719 -10.046875 1.265625 -11.3125 C 1.605469 -14.5625 2.035156 -17.777344 2.546875 -20.957031 C 3.066406 -24.175781 3.820312 -27.34375 4.816406 -30.453125 C 5.644531 -33.027344 6.714844 -35.515625 8.023438 -37.914062 C 9.351562 -40.355469 10.972656 -42.507812 12.882812 -44.375 C 14.824219 -46.269531 17.050781 -47.703125 19.558594 -48.675781 C 22.105469 -49.664062 24.964844 -49.953125 28.136719 -49.542969 C 31.34375 -49.132812 34.015625 -48.019531 36.148438 -46.210938 C 38.230469 -44.449219 39.902344 -42.269531 41.164062 -39.679688 C 42.394531 -37.152344 43.316406 -34.484375 43.929688 -31.675781 C 44.53125 -28.917969 44.964844 -26.265625 45.222656 -23.71875 L 45.765625 -18.472656 C 45.957031 -16.578125 46.136719 -14.675781 46.304688 -12.765625 C 46.480469 -10.820312 46.566406 -9.023438 46.566406 -7.378906 C 46.566406 -5.304688 46.3125 -3.449219 45.8125 -1.804688 C 45.257812 0.00390625 44.011719 1.539062 42.066406 2.804688 L 42.03125 2.828125 L 41.996094 2.847656 C 40.804688 3.515625 39.539062 3.941406 38.203125 4.132812 C 36.847656 4.328125 35.554688 4.253906 34.332031 3.910156 C 33.019531 3.542969 31.96875 2.867188 31.167969 1.882812 C 30.332031 0.851562 29.964844 -0.480469 30.070312 -2.113281 C 30.253906 -4.433594 30.007812 -5.949219 29.324219 -6.660156 C 28.648438 -7.367188 27.226562 -7.664062 25.054688 -7.558594 L 25.039062 -7.554688 L 25.027344 -7.554688 C 23.605469 -7.515625 22.480469 -7.375 21.652344 -7.128906 C 21.050781 -6.953125 20.621094 -6.605469 20.355469 -6.089844 C 20.023438 -5.4375 19.855469 -4.339844 19.855469 -2.796875 L 19.855469 -2.742188 L 19.847656 -2.683594 C 19.609375 -0.140625 18.820312 1.785156 17.484375 3.097656 C 16.148438 4.410156 14.460938 5.140625 12.425781 5.289062 C 10.550781 5.425781 8.527344 5.199219 6.359375 4.613281 L 6.335938 4.605469 Z M 7.046875 2.269531 L 6.675781 3.433594 L 6.996094 2.253906 C 8.898438 2.769531 10.648438 2.96875 12.25 2.851562 C 13.6875 2.746094 14.863281 2.246094 15.773438 1.355469 C 16.6875 0.460938 17.234375 -0.960938 17.417969 -2.914062 L 18.632812 -2.796875 L 17.414062 -2.796875 C 17.414062 -4.734375 17.667969 -6.203125 18.183594 -7.203125 C 18.765625 -8.339844 19.691406 -9.097656 20.957031 -9.46875 C 21.992188 -9.777344 23.328125 -9.953125 24.960938 -9.996094 L 24.992188 -8.777344 L 24.933594 -9.996094 C 27.847656 -10.140625 29.902344 -9.59375 31.089844 -8.347656 C 32.277344 -7.109375 32.746094 -4.980469 32.507812 -1.957031 C 32.445312 -0.960938 32.628906 -0.191406 33.066406 0.34375 C 33.539062 0.925781 34.179688 1.332031 34.988281 1.558594 C 35.882812 1.808594 36.839844 1.863281 37.859375 1.714844 C 38.894531 1.570312 39.878906 1.234375 40.804688 0.714844 L 41.402344 1.78125 L 40.734375 0.757812 C 42.183594 -0.183594 43.097656 -1.277344 43.476562 -2.519531 C 43.90625 -3.929688 44.121094 -5.546875 44.121094 -7.378906 C 44.121094 -8.953125 44.039062 -10.675781 43.875 -12.546875 C 43.703125 -14.449219 43.523438 -16.34375 43.335938 -18.222656 L 42.792969 -23.46875 C 42.542969 -25.925781 42.128906 -28.488281 41.542969 -31.15625 C 40.972656 -33.773438 40.113281 -36.257812 38.96875 -38.609375 C 37.855469 -40.894531 36.390625 -42.804688 34.570312 -44.347656 C 32.804688 -45.847656 30.554688 -46.769531 27.828125 -47.121094 C 25.0625 -47.476562 22.601562 -47.238281 20.441406 -46.398438 C 18.246094 -45.546875 16.292969 -44.289062 14.589844 -42.625 C 12.855469 -40.929688 11.378906 -38.972656 10.167969 -36.746094 C 8.929688 -34.480469 7.921875 -32.136719 7.140625 -29.710938 C 6.183594 -26.714844 5.457031 -23.667969 4.957031 -20.570312 C 4.453125 -17.433594 4.03125 -14.265625 3.695312 -11.070312 C 3.566406 -9.792969 3.417969 -8.410156 3.25 -6.921875 C 3.089844 -5.519531 3.066406 -4.160156 3.1875 -2.84375 C 3.296875 -1.640625 3.648438 -0.574219 4.242188 0.363281 C 4.78125 1.214844 5.71875 1.851562 7.046875 2.269531 Z M 20.925781 -21.027344 C 20.929688 -21.039062 20.921875 -21.050781 20.90625 -21.070312 C 20.835938 -21.15625 20.746094 -21.195312 20.644531 -21.179688 C 21.941406 -21.316406 23.226562 -21.371094 24.503906 -21.347656 C 25.726562 -21.328125 26.929688 -21.316406 28.109375 -21.316406 L 30.335938 -21.316406 C 30.296875 -21.316406 30.25 -21.292969 30.203125 -21.246094 C 30.105469 -21.148438 30.066406 -21.046875 30.082031 -20.941406 C 29.949219 -21.992188 29.828125 -23.214844 29.722656 -24.613281 C 29.621094 -25.933594 29.429688 -27.21875 29.144531 -28.476562 C 28.886719 -29.625 28.488281 -30.566406 27.949219 -31.300781 C 27.558594 -31.835938 27.019531 -32.101562 26.328125 -32.101562 C 25.546875 -32.101562 24.894531 -31.8125 24.375 -31.234375 C 23.714844 -30.5 23.167969 -29.558594 22.734375 -28.410156 C 22.269531 -27.179688 21.90625 -25.90625 21.644531 -24.59375 L 20.914062 -20.9375 L 19.714844 -21.175781 Z M 18.503906 -21.328125 L 18.507812 -21.375 L 19.25 -25.074219 C 19.539062 -26.515625 19.9375 -27.917969 20.449219 -29.273438 C 20.988281 -30.707031 21.695312 -31.90625 22.558594 -32.871094 C 23.566406 -33.988281 24.820312 -34.546875 26.328125 -34.546875 C 27.84375 -34.546875 29.042969 -33.945312 29.921875 -32.742188 C 30.65625 -31.734375 31.191406 -30.492188 31.527344 -29.015625 C 31.835938 -27.640625 32.046875 -26.238281 32.15625 -24.800781 C 32.261719 -23.441406 32.375 -22.269531 32.5 -21.285156 C 32.597656 -20.585938 32.410156 -19.996094 31.929688 -19.519531 C 31.5 -19.089844 30.96875 -18.875 30.335938 -18.875 L 28.109375 -18.875 C 26.914062 -18.875 25.699219 -18.886719 24.464844 -18.90625 C 23.28125 -18.925781 22.109375 -18.878906 20.949219 -18.757812 C 20.167969 -18.660156 19.527344 -18.910156 19.03125 -19.503906 C 18.59375 -20.03125 18.417969 -20.640625 18.503906 -21.328125 Z M 18.503906 -21.328125 "/></g></g></g><g fill="#000000" fill-opacity="1"><g transform="translate(192.610011, 251.999983)"><g><path d="M 8.238281 5.082031 C 6.492188 4.757812 5.089844 4.296875 4.039062 3.699219 C 2.777344 2.984375 2.003906 1.867188 1.726562 0.347656 L 1.71875 0.324219 L 1.714844 0.300781 C 1.585938 -0.628906 1.476562 -1.9375 1.386719 -3.625 C 1.300781 -5.304688 1.269531 -7.574219 1.292969 -10.4375 L 1.386719 -21.1875 L 2.609375 -21.175781 L 1.386719 -21.15625 C 1.34375 -23.722656 1.238281 -26.324219 1.070312 -28.953125 C 0.898438 -31.621094 0.792969 -34.261719 0.75 -36.867188 C 0.707031 -39.4375 0.730469 -41.625 0.816406 -43.429688 C 0.917969 -45.566406 1.507812 -47.085938 2.585938 -47.996094 L 3.371094 -47.0625 L 2.558594 -47.972656 C 3.492188 -48.800781 4.746094 -49.363281 6.324219 -49.660156 C 7.769531 -49.929688 9.265625 -50.042969 10.816406 -50 C 12.394531 -49.953125 13.765625 -49.742188 14.9375 -49.367188 C 16.09375 -49.015625 17.105469 -48.40625 17.972656 -47.542969 C 18.863281 -46.648438 19.460938 -45.46875 19.765625 -44 C 19.957031 -43.085938 20.019531 -42.128906 19.945312 -41.125 C 19.886719 -40.28125 19.875 -39.417969 19.917969 -38.53125 L 20.109375 -31.511719 L 18.886719 -31.480469 L 17.816406 -32.066406 C 18.789062 -33.839844 19.792969 -35.710938 20.828125 -37.675781 C 21.871094 -39.65625 22.882812 -41.53125 23.863281 -43.296875 C 24.863281 -45.105469 25.820312 -46.609375 26.722656 -47.800781 C 27.777344 -49.191406 28.777344 -49.980469 29.714844 -50.167969 L 29.953125 -48.96875 L 29.683594 -50.160156 C 30.789062 -50.410156 32.085938 -50.378906 33.574219 -50.070312 C 35.019531 -49.765625 36.378906 -49.242188 37.660156 -48.5 C 39.039062 -47.695312 40.046875 -46.644531 40.683594 -45.339844 C 41.375 -43.929688 41.355469 -42.335938 40.621094 -40.554688 C 40.015625 -39.082031 39.164062 -37.28125 38.066406 -35.148438 C 36.972656 -33.03125 35.777344 -30.867188 34.46875 -28.664062 C 33.152344 -26.4375 31.820312 -24.453125 30.472656 -22.71875 L 29.507812 -23.46875 L 30.371094 -24.332031 C 31.257812 -23.445312 32.269531 -22.257812 33.402344 -20.773438 C 34.519531 -19.316406 35.644531 -17.75 36.78125 -16.078125 C 37.914062 -14.414062 38.980469 -12.789062 39.984375 -11.210938 C 40.996094 -9.617188 41.839844 -8.191406 42.511719 -6.933594 C 43.214844 -5.617188 43.640625 -4.65625 43.792969 -4.046875 L 43.800781 -4.015625 C 44.0625 -2.847656 43.691406 -1.703125 42.691406 -0.585938 C 41.886719 0.316406 40.867188 1.128906 39.632812 1.847656 C 38.457031 2.535156 37.3125 3.105469 36.195312 3.550781 L 36.179688 3.554688 L 36.164062 3.5625 C 34.867188 4.042969 33.863281 4.269531 33.148438 4.242188 C 32.21875 4.207031 31.421875 3.761719 30.765625 2.90625 L 28.910156 0.472656 L 28.898438 0.457031 C 27.921875 -0.902344 26.859375 -2.402344 25.710938 -4.035156 C 24.585938 -5.640625 23.429688 -7.148438 22.246094 -8.5625 C 21.132812 -9.894531 20.003906 -10.882812 18.859375 -11.53125 L 19.460938 -12.59375 L 20.679688 -12.628906 C 20.765625 -9.9375 20.789062 -7.75 20.746094 -6.074219 C 20.699219 -4.371094 20.601562 -3.003906 20.445312 -1.980469 C 20.277344 -0.867188 19.988281 0.0703125 19.582031 0.828125 L 18.507812 0.253906 L 19.628906 0.738281 C 18.800781 2.648438 17.234375 3.96875 14.929688 4.695312 C 12.789062 5.371094 10.558594 5.5 8.242188 5.082031 Z M 8.675781 2.675781 C 10.597656 3.023438 12.4375 2.917969 14.195312 2.363281 C 15.792969 1.863281 16.855469 0.996094 17.386719 -0.230469 L 17.40625 -0.277344 L 17.429688 -0.320312 C 17.703125 -0.832031 17.902344 -1.507812 18.03125 -2.347656 C 18.171875 -3.269531 18.261719 -4.535156 18.304688 -6.136719 C 18.34375 -7.765625 18.324219 -9.90625 18.238281 -12.554688 L 18.171875 -14.726562 L 20.0625 -13.65625 C 21.460938 -12.859375 22.8125 -11.6875 24.117188 -10.132812 C 25.347656 -8.664062 26.546875 -7.101562 27.710938 -5.4375 C 28.851562 -3.8125 29.910156 -2.320312 30.882812 -0.96875 L 29.890625 -0.253906 L 30.859375 -0.996094 L 32.703125 1.417969 C 32.894531 1.667969 33.074219 1.792969 33.242188 1.800781 C 33.632812 1.816406 34.324219 1.640625 35.316406 1.273438 L 35.742188 2.417969 L 35.289062 1.28125 C 36.292969 0.882812 37.328125 0.367188 38.398438 -0.257812 C 39.414062 -0.851562 40.238281 -1.503906 40.871094 -2.214844 C 41.316406 -2.707031 41.496094 -3.132812 41.417969 -3.488281 L 42.609375 -3.753906 L 41.425781 -3.457031 C 41.320312 -3.867188 40.964844 -4.644531 40.355469 -5.785156 C 39.714844 -6.988281 38.902344 -8.359375 37.921875 -9.902344 C 36.933594 -11.460938 35.878906 -13.0625 34.761719 -14.703125 C 33.652344 -16.339844 32.550781 -17.867188 31.464844 -19.292969 C 30.394531 -20.691406 29.453125 -21.792969 28.644531 -22.605469 L 27.882812 -23.363281 L 28.542969 -24.214844 C 29.828125 -25.871094 31.101562 -27.769531 32.371094 -29.910156 C 33.648438 -32.070312 34.824219 -34.191406 35.894531 -36.269531 C 36.960938 -38.335938 37.785156 -40.074219 38.363281 -41.484375 C 38.816406 -42.585938 38.859375 -43.515625 38.492188 -44.265625 C 38.070312 -45.125 37.382812 -45.832031 36.429688 -46.386719 C 35.378906 -47 34.257812 -47.429688 33.074219 -47.679688 C 31.933594 -47.917969 30.984375 -47.949219 30.222656 -47.777344 L 30.207031 -47.773438 L 30.191406 -47.773438 C 30.082031 -47.75 29.917969 -47.648438 29.699219 -47.464844 C 29.394531 -47.203125 29.050781 -46.824219 28.667969 -46.324219 C 27.835938 -45.222656 26.945312 -43.820312 25.996094 -42.113281 C 25.027344 -40.359375 24.023438 -38.503906 22.988281 -36.539062 C 21.949219 -34.5625 20.9375 -32.679688 19.960938 -30.894531 L 17.789062 -26.933594 L 17.476562 -38.421875 C 17.433594 -39.402344 17.445312 -40.359375 17.511719 -41.296875 C 17.566406 -42.074219 17.519531 -42.808594 17.375 -43.507812 C 17.167969 -44.496094 16.792969 -45.269531 16.242188 -45.816406 C 15.667969 -46.394531 14.984375 -46.800781 14.191406 -47.042969 C 13.242188 -47.347656 12.09375 -47.519531 10.746094 -47.558594 C 9.367188 -47.597656 8.046875 -47.5 6.777344 -47.261719 C 5.640625 -47.046875 4.777344 -46.675781 4.183594 -46.148438 L 4.167969 -46.136719 L 4.15625 -46.128906 C 3.625 -45.679688 3.324219 -44.738281 3.253906 -43.316406 C 3.171875 -41.558594 3.152344 -39.421875 3.191406 -36.90625 C 3.234375 -34.339844 3.339844 -31.738281 3.507812 -29.109375 C 3.679688 -26.441406 3.785156 -23.804688 3.828125 -21.199219 L 3.828125 -21.183594 L 3.734375 -10.421875 C 3.710938 -7.605469 3.742188 -5.378906 3.828125 -3.75 C 3.910156 -2.132812 4.011719 -0.898438 4.132812 -0.046875 L 2.925781 0.128906 L 4.125 -0.09375 C 4.269531 0.675781 4.640625 1.234375 5.246094 1.578125 C 6.058594 2.039062 7.203125 2.40625 8.679688 2.679688 Z M 8.675781 2.675781 "/></g></g></g><g fill="#000000" fill-opacity="1"><g transform="translate(237.189987, 251.999983)"><g><path d="M 27.363281 5.226562 C 24.761719 5.398438 22.277344 5.398438 19.910156 5.222656 C 17.613281 5.054688 15.921875 4.949219 14.835938 4.910156 L 14.882812 3.6875 L 14.882812 4.910156 C 11.691406 4.910156 9.132812 4.457031 7.207031 3.554688 C 5.203125 2.609375 3.722656 1.234375 2.765625 -0.574219 C 1.871094 -2.277344 1.285156 -4.285156 1.011719 -6.597656 C 0.753906 -8.816406 0.652344 -11.28125 0.71875 -13.988281 C 0.78125 -16.632812 0.835938 -19.480469 0.878906 -22.53125 C 0.878906 -25.667969 0.921875 -28.789062 1.003906 -31.894531 C 1.089844 -35.035156 1.347656 -38.171875 1.777344 -41.3125 C 2.195312 -44.304688 3.027344 -46.539062 4.285156 -48.011719 C 5.613281 -49.570312 7.890625 -50.441406 11.121094 -50.632812 C 12.171875 -50.71875 13.636719 -50.8125 15.511719 -50.917969 C 17.390625 -51.027344 19.445312 -51.113281 21.683594 -51.175781 C 23.949219 -51.238281 26.183594 -51.195312 28.382812 -51.046875 C 30.628906 -50.890625 32.621094 -50.570312 34.355469 -50.082031 C 36.269531 -49.539062 37.648438 -48.71875 38.492188 -47.609375 L 37.523438 -46.871094 L 38.476562 -47.632812 C 38.976562 -47.007812 39.253906 -46.226562 39.3125 -45.292969 C 39.359375 -44.558594 39.335938 -43.609375 39.246094 -42.453125 C 39.054688 -39.785156 38.402344 -37.976562 37.296875 -37.035156 C 36.234375 -36.136719 34.632812 -35.636719 32.488281 -35.539062 C 30.925781 -35.492188 29.324219 -35.582031 27.691406 -35.804688 C 26.164062 -36.007812 24.660156 -36.132812 23.179688 -36.175781 C 21.773438 -36.214844 20.894531 -36.183594 20.542969 -36.089844 C 20.609375 -36.105469 20.660156 -36.132812 20.699219 -36.167969 L 20.703125 -36.171875 C 20.695312 -36.160156 20.683594 -36.140625 20.667969 -36.121094 C 20.570312 -35.949219 20.480469 -35.675781 20.402344 -35.300781 L 19.207031 -35.550781 L 20.414062 -35.371094 C 20.246094 -34.246094 20.113281 -33.136719 20.007812 -32.03125 C 19.917969 -31.082031 19.929688 -30.429688 20.046875 -30.085938 L 20.050781 -30.070312 L 20.054688 -30.058594 C 20.082031 -29.96875 20.167969 -29.90625 20.3125 -29.878906 C 20.8125 -29.773438 21.421875 -29.75 22.132812 -29.804688 C 23 -29.871094 23.890625 -29.894531 24.800781 -29.871094 C 25.847656 -29.84375 26.777344 -29.636719 27.59375 -29.242188 C 28.570312 -28.765625 29.238281 -27.933594 29.597656 -26.742188 L 29.625 -26.65625 L 29.636719 -26.566406 C 29.851562 -25.0625 30.023438 -23.609375 30.152344 -22.210938 C 30.308594 -20.527344 29.957031 -19.097656 29.097656 -17.914062 L 29.023438 -17.8125 L 28.929688 -17.730469 C 28.285156 -17.144531 27.386719 -16.757812 26.238281 -16.570312 C 25.253906 -16.410156 24.214844 -16.339844 23.125 -16.363281 C 22.09375 -16.386719 21.148438 -16.417969 20.289062 -16.460938 C 20.007812 -16.476562 19.785156 -16.464844 19.628906 -16.421875 C 19.589844 -16.414062 19.5625 -16.40625 19.546875 -16.394531 C 19.558594 -16.402344 19.574219 -16.414062 19.589844 -16.433594 L 19.589844 -16.421875 C 19.5625 -16.363281 19.53125 -16.289062 19.503906 -16.191406 C 19.433594 -15.933594 19.378906 -15.589844 19.339844 -15.160156 C 19.261719 -14.089844 19.273438 -12.960938 19.375 -11.773438 C 19.460938 -10.738281 19.632812 -10.035156 19.890625 -9.660156 L 18.886719 -8.96875 L 19.863281 -9.699219 C 20.027344 -9.484375 20.425781 -9.347656 21.058594 -9.292969 C 21.980469 -9.214844 22.957031 -9.226562 23.984375 -9.324219 C 25.078125 -9.429688 25.984375 -9.523438 26.695312 -9.605469 L 26.710938 -9.609375 L 26.730469 -9.609375 C 28.089844 -9.730469 29.558594 -10.023438 31.132812 -10.488281 C 32.957031 -11.027344 34.699219 -11.175781 36.359375 -10.9375 L 36.1875 -9.730469 L 36.328125 -10.941406 C 37.273438 -10.832031 38.066406 -10.53125 38.703125 -10.039062 C 39.367188 -9.527344 39.835938 -8.839844 40.113281 -7.972656 C 40.5625 -6.585938 40.742188 -4.820312 40.648438 -2.683594 C 40.601562 -1.753906 40.484375 -0.898438 40.296875 -0.125 C 40.085938 0.753906 39.730469 1.5 39.230469 2.109375 L 39.222656 2.121094 L 39.210938 2.128906 C 38.292969 3.203125 37.144531 3.941406 35.769531 4.351562 C 34.523438 4.71875 33.160156 4.925781 31.675781 4.972656 C 30.320312 5.015625 28.890625 5.097656 27.382812 5.222656 Z M 27.179688 2.789062 C 28.730469 2.660156 30.203125 2.574219 31.601562 2.53125 C 32.875 2.492188 34.03125 2.316406 35.078125 2.007812 C 35.992188 1.738281 36.75 1.25 37.359375 0.539062 L 38.285156 1.335938 L 37.339844 0.5625 C 37.605469 0.238281 37.800781 -0.183594 37.925781 -0.699219 C 38.078125 -1.324219 38.171875 -2.019531 38.210938 -2.785156 C 38.289062 -4.632812 38.148438 -6.113281 37.789062 -7.226562 C 37.667969 -7.609375 37.472656 -7.902344 37.214844 -8.101562 C 36.929688 -8.320312 36.539062 -8.460938 36.042969 -8.515625 L 36.027344 -8.519531 L 36.011719 -8.519531 C 34.703125 -8.707031 33.308594 -8.582031 31.824219 -8.144531 C 30.09375 -7.636719 28.46875 -7.3125 26.945312 -7.179688 L 26.835938 -8.394531 L 26.980469 -7.183594 C 26.25 -7.097656 25.332031 -7 24.21875 -6.894531 C 23.042969 -6.78125 21.921875 -6.769531 20.851562 -6.859375 C 19.492188 -6.976562 18.511719 -7.433594 17.910156 -8.234375 L 17.898438 -8.253906 L 17.882812 -8.273438 C 17.378906 -9 17.0625 -10.101562 16.941406 -11.566406 C 16.828125 -12.882812 16.816406 -14.148438 16.90625 -15.363281 C 17.015625 -16.664062 17.316406 -17.574219 17.804688 -18.097656 C 18.359375 -18.695312 19.230469 -18.960938 20.410156 -18.898438 C 21.246094 -18.859375 22.167969 -18.824219 23.175781 -18.804688 C 24.117188 -18.785156 25.007812 -18.84375 25.847656 -18.980469 C 26.519531 -19.089844 27 -19.277344 27.289062 -19.539062 L 28.109375 -18.632812 L 27.121094 -19.351562 C 27.621094 -20.035156 27.820312 -20.914062 27.71875 -21.988281 C 27.59375 -23.34375 27.429688 -24.757812 27.21875 -26.21875 L 28.425781 -26.390625 L 27.257812 -26.042969 C 27.105469 -26.546875 26.863281 -26.878906 26.527344 -27.042969 C 26.03125 -27.285156 25.433594 -27.414062 24.742188 -27.429688 C 23.914062 -27.449219 23.105469 -27.429688 22.320312 -27.367188 C 21.378906 -27.296875 20.542969 -27.335938 19.816406 -27.484375 C 18.730469 -27.710938 18.03125 -28.328125 17.722656 -29.339844 L 18.886719 -29.699219 L 17.730469 -29.3125 C 17.503906 -29.984375 17.453125 -30.96875 17.578125 -32.261719 C 17.683594 -33.40625 17.824219 -34.5625 18 -35.730469 L 18.003906 -35.765625 L 18.011719 -35.800781 C 18.324219 -37.304688 18.953125 -38.1875 19.902344 -38.445312 C 20.484375 -38.605469 21.601562 -38.660156 23.246094 -38.613281 C 24.816406 -38.570312 26.40625 -38.441406 28.019531 -38.222656 C 29.523438 -38.019531 30.976562 -37.9375 32.378906 -37.976562 C 33.964844 -38.050781 35.078125 -38.355469 35.714844 -38.898438 C 36.300781 -39.398438 36.667969 -40.644531 36.8125 -42.640625 C 36.894531 -43.683594 36.914062 -44.519531 36.875 -45.140625 C 36.847656 -45.5625 36.746094 -45.882812 36.566406 -46.109375 L 36.558594 -46.117188 L 36.550781 -46.128906 C 36.035156 -46.804688 35.085938 -47.335938 33.691406 -47.730469 C 32.121094 -48.171875 30.292969 -48.46875 28.214844 -48.609375 C 26.09375 -48.753906 23.9375 -48.796875 21.753906 -48.734375 C 19.539062 -48.671875 17.503906 -48.585938 15.648438 -48.480469 C 13.792969 -48.375 12.332031 -48.28125 11.265625 -48.195312 C 8.726562 -48.046875 7.019531 -47.457031 6.144531 -46.429688 C 5.195312 -45.316406 4.546875 -43.5 4.199219 -40.980469 C 3.78125 -37.929688 3.53125 -34.878906 3.445312 -31.828125 C 3.363281 -28.746094 3.320312 -25.632812 3.320312 -22.496094 C 3.277344 -19.4375 3.222656 -16.585938 3.160156 -13.929688 C 3.097656 -11.335938 3.191406 -8.988281 3.4375 -6.882812 C 3.675781 -4.871094 4.171875 -3.148438 4.929688 -1.714844 C 5.628906 -0.386719 6.734375 0.632812 8.246094 1.34375 C 9.839844 2.09375 12.054688 2.46875 14.882812 2.46875 L 14.929688 2.46875 C 16.046875 2.511719 17.765625 2.617188 20.089844 2.789062 C 22.34375 2.953125 24.714844 2.953125 27.203125 2.789062 Z M 27.179688 2.789062 "/></g></g></g><g fill="#000000" fill-opacity="1"><g transform="translate(278.526593, 251.999983)"><g><path d="M 32.171875 5.347656 C 31.179688 5.238281 29.96875 4.625 28.535156 3.507812 C 27.238281 2.496094 25.847656 1.214844 24.367188 -0.332031 C 22.902344 -1.859375 21.472656 -3.472656 20.074219 -5.171875 C 18.671875 -6.875 17.449219 -8.511719 16.410156 -10.070312 L 17.425781 -10.746094 L 18.644531 -10.765625 C 18.6875 -8.03125 18.679688 -5.824219 18.613281 -4.152344 C 18.542969 -2.34375 18.183594 -0.691406 17.527344 0.808594 C 16.703125 2.710938 15.410156 3.949219 13.640625 4.53125 C 12.074219 5.046875 10.152344 5.234375 7.875 5.097656 C 5.699219 4.953125 4.078125 4.4375 3.003906 3.546875 C 1.886719 2.617188 1.199219 1.101562 0.949219 -1 C 0.730469 -2.839844 0.664062 -5.398438 0.75 -8.679688 C 0.835938 -11.894531 0.878906 -16.058594 0.878906 -21.175781 L 0.847656 -30.523438 L 0.8125 -36.71875 C 0.8125 -38.40625 0.878906 -39.800781 1.011719 -40.910156 C 1.152344 -42.058594 1.382812 -43.097656 1.710938 -44.03125 C 2.339844 -45.773438 3.152344 -47.058594 4.152344 -47.878906 C 5.144531 -48.691406 6.351562 -49.222656 7.769531 -49.472656 C 9.015625 -49.691406 10.464844 -49.867188 12.113281 -49.996094 C 19.617188 -50.601562 25.792969 -50.0625 30.640625 -48.375 C 35.621094 -46.636719 39.132812 -43.90625 41.167969 -40.171875 C 43.207031 -36.445312 43.59375 -31.945312 42.335938 -26.679688 C 41.636719 -23.703125 40.226562 -21.34375 38.105469 -19.597656 C 36.09375 -17.945312 33.835938 -16.648438 31.335938 -15.710938 L 30.90625 -16.851562 L 31.78125 -17.707031 C 33.464844 -15.980469 35.132812 -14.085938 36.789062 -12.019531 C 38.429688 -9.976562 39.953125 -8.015625 41.359375 -6.136719 L 40.382812 -5.40625 L 41.332031 -6.175781 C 42.527344 -4.707031 42.910156 -3.1875 42.484375 -1.617188 C 42.105469 -0.226562 41.308594 1.027344 40.097656 2.140625 C 38.949219 3.191406 37.664062 4.011719 36.234375 4.597656 C 34.761719 5.199219 33.417969 5.453125 32.207031 5.351562 L 32.1875 5.347656 Z M 32.441406 2.921875 L 32.308594 4.132812 L 32.410156 2.917969 C 33.230469 2.984375 34.199219 2.792969 35.308594 2.335938 C 36.46875 1.863281 37.511719 1.195312 38.445312 0.339844 C 39.308594 -0.453125 39.871094 -1.320312 40.128906 -2.261719 C 40.335938 -3.023438 40.105469 -3.8125 39.4375 -4.632812 L 39.40625 -4.671875 C 38.015625 -6.527344 36.507812 -8.46875 34.882812 -10.492188 C 33.277344 -12.496094 31.660156 -14.332031 30.035156 -16 L 28.726562 -17.339844 L 30.480469 -17.996094 C 32.726562 -18.839844 34.753906 -20.003906 36.554688 -21.484375 C 38.25 -22.878906 39.386719 -24.800781 39.960938 -27.25 C 41.074219 -31.90625 40.761719 -35.824219 39.027344 -39.003906 C 37.289062 -42.183594 34.226562 -44.539062 29.839844 -46.066406 C 25.316406 -47.644531 19.472656 -48.140625 12.304688 -47.5625 C 10.734375 -47.4375 9.363281 -47.273438 8.191406 -47.066406 C 7.195312 -46.890625 6.363281 -46.53125 5.703125 -45.988281 C 5.050781 -45.453125 4.488281 -44.53125 4.015625 -43.222656 C 3.746094 -42.460938 3.554688 -41.589844 3.4375 -40.621094 C 3.316406 -39.609375 3.257812 -38.3125 3.257812 -36.734375 L 3.289062 -30.53125 L 3.320312 -21.175781 C 3.320312 -16.035156 3.277344 -11.851562 3.191406 -8.617188 C 3.109375 -5.453125 3.167969 -3.011719 3.375 -1.289062 C 3.546875 0.167969 3.945312 1.15625 4.5625 1.667969 C 5.230469 2.21875 6.382812 2.550781 8.023438 2.660156 C 9.988281 2.777344 11.605469 2.628906 12.878906 2.210938 C 13.953125 1.859375 14.753906 1.0625 15.289062 -0.171875 C 15.820312 -1.386719 16.117188 -2.746094 16.171875 -4.246094 C 16.234375 -5.875 16.246094 -8.039062 16.203125 -10.730469 L 16.140625 -14.878906 L 18.441406 -11.425781 C 19.4375 -9.933594 20.609375 -8.363281 21.960938 -6.722656 C 23.320312 -5.070312 24.710938 -3.503906 26.128906 -2.019531 C 27.53125 -0.558594 28.832031 0.640625 30.035156 1.582031 C 31.105469 2.414062 31.90625 2.859375 32.441406 2.921875 Z M 18.265625 -28.425781 C 18.265625 -28.117188 18.289062 -27.929688 18.335938 -27.855469 C 18.273438 -27.949219 18.203125 -27.996094 18.125 -27.996094 L 18.125 -26.773438 L 18.085938 -27.996094 C 20.792969 -28.078125 23.085938 -28.265625 24.964844 -28.554688 C 26.628906 -28.808594 27.808594 -29.296875 28.507812 -30.011719 C 29.097656 -30.613281 29.242188 -31.636719 28.949219 -33.078125 C 28.898438 -33.351562 28.613281 -33.601562 28.09375 -33.828125 C 27.273438 -34.191406 26.28125 -34.46875 25.109375 -34.664062 C 23.882812 -34.867188 22.667969 -35 21.464844 -35.0625 C 20.234375 -35.125 19.207031 -35.15625 18.378906 -35.15625 C 18.3125 -35.15625 18.261719 -35.152344 18.230469 -35.140625 C 18.246094 -35.148438 18.265625 -35.160156 18.292969 -35.179688 C 18.332031 -35.210938 18.363281 -35.246094 18.382812 -35.285156 C 18.386719 -35.292969 18.386719 -35.296875 18.390625 -35.300781 C 18.386719 -35.292969 18.382812 -35.277344 18.382812 -35.261719 C 18.222656 -34.179688 18.160156 -33.09375 18.199219 -32 C 18.242188 -30.820312 18.265625 -29.628906 18.265625 -28.425781 Z M 15.824219 -28.425781 C 15.824219 -29.601562 15.800781 -30.761719 15.761719 -31.914062 C 15.714844 -33.152344 15.78125 -34.378906 15.960938 -35.585938 C 16.046875 -36.230469 16.320312 -36.734375 16.78125 -37.097656 C 17.203125 -37.429688 17.734375 -37.597656 18.378906 -37.597656 C 19.246094 -37.597656 20.316406 -37.566406 21.589844 -37.5 C 22.886719 -37.433594 24.195312 -37.292969 25.511719 -37.074219 C 26.886719 -36.84375 28.074219 -36.507812 29.078125 -36.0625 C 30.382812 -35.488281 31.136719 -34.65625 31.339844 -33.570312 C 31.808594 -31.28125 31.445312 -29.527344 30.253906 -28.304688 C 29.175781 -27.199219 27.535156 -26.476562 25.339844 -26.140625 C 23.359375 -25.835938 20.96875 -25.640625 18.164062 -25.554688 L 18.125 -25.554688 C 17.324219 -25.554688 16.714844 -25.875 16.292969 -26.519531 C 15.980469 -26.996094 15.824219 -27.632812 15.824219 -28.425781 Z M 15.824219 -28.425781 "/></g></g></g><g fill="#000000" fill-opacity="1"><g transform="translate(320.499147, 251.999983)"><g><path d="M 26.1875 6.175781 C 23.328125 6.441406 20.40625 6.332031 17.421875 5.847656 C 14.402344 5.359375 11.605469 4.425781 9.027344 3.046875 C 6.402344 1.644531 4.25 -0.210938 2.574219 -2.527344 L 2.550781 -2.554688 L 2.53125 -2.585938 C 1.773438 -3.769531 1.234375 -5.121094 0.90625 -6.644531 C 0.566406 -8.222656 0.613281 -9.761719 1.054688 -11.253906 C 1.523438 -12.835938 2.476562 -14.089844 3.917969 -15.019531 C 5.601562 -16.074219 7.148438 -16.617188 8.5625 -16.644531 C 9.960938 -16.667969 11.273438 -16.355469 12.496094 -15.707031 C 13.632812 -15.101562 14.6875 -14.335938 15.660156 -13.414062 L 14.816406 -12.527344 L 15.46875 -13.5625 C 16.605469 -12.84375 17.753906 -12.140625 18.914062 -11.445312 C 19.882812 -10.863281 20.820312 -10.570312 21.71875 -10.570312 C 22.441406 -10.570312 23.167969 -11.046875 23.898438 -12 L 24.867188 -11.257812 L 23.8125 -11.871094 C 24.1875 -12.519531 24.289062 -13.03125 24.113281 -13.40625 C 23.84375 -13.972656 23.386719 -14.480469 22.738281 -14.925781 C 21.972656 -15.457031 21.15625 -15.921875 20.289062 -16.3125 C 19.34375 -16.742188 18.566406 -17.109375 17.960938 -17.414062 C 16.0625 -18.382812 14.242188 -19.269531 12.496094 -20.066406 C 10.660156 -20.910156 9.007812 -21.875 7.539062 -22.964844 C 5.988281 -24.117188 4.765625 -25.558594 3.875 -27.296875 C 2.980469 -29.042969 2.53125 -31.242188 2.53125 -33.898438 C 2.578125 -37.34375 3.480469 -40.292969 5.238281 -42.75 C 6.976562 -45.171875 9.3125 -47.054688 12.242188 -48.394531 C 15.128906 -49.714844 18.351562 -50.417969 21.910156 -50.507812 L 21.957031 -50.507812 C 25.027344 -50.464844 27.957031 -50.070312 30.746094 -49.320312 C 33.585938 -48.5625 36.101562 -47.386719 38.300781 -45.792969 C 40.546875 -44.164062 42.308594 -42.007812 43.585938 -39.316406 L 42.480469 -38.792969 L 43.539062 -39.402344 C 44.308594 -38.074219 44.613281 -36.671875 44.460938 -35.199219 C 44.304688 -33.746094 43.769531 -32.464844 42.847656 -31.363281 C 41.90625 -30.238281 40.621094 -29.5 38.992188 -29.140625 L 38.730469 -30.335938 L 39.105469 -29.171875 C 37.570312 -28.679688 36.050781 -28.617188 34.554688 -28.992188 C 33.171875 -29.335938 31.824219 -29.890625 30.519531 -30.644531 C 29.285156 -31.359375 28.109375 -32.09375 26.984375 -32.851562 C 25.945312 -33.550781 24.964844 -34.097656 24.039062 -34.492188 C 23.285156 -34.8125 22.609375 -34.90625 22.019531 -34.773438 C 21.507812 -34.65625 20.980469 -34.15625 20.441406 -33.261719 L 19.398438 -33.898438 L 20.488281 -33.351562 C 20.28125 -32.933594 20.273438 -32.582031 20.464844 -32.300781 C 20.824219 -31.78125 21.363281 -31.324219 22.082031 -30.929688 C 22.933594 -30.464844 23.800781 -30.050781 24.691406 -29.683594 C 25.640625 -29.296875 26.398438 -28.972656 26.96875 -28.710938 L 26.457031 -27.601562 L 26.910156 -28.734375 C 29.074219 -27.867188 31.152344 -26.894531 33.144531 -25.8125 C 35.171875 -24.710938 36.992188 -23.460938 38.605469 -22.070312 C 40.269531 -20.632812 41.582031 -19 42.546875 -17.167969 C 43.539062 -15.277344 43.988281 -13.144531 43.894531 -10.761719 C 43.800781 -7.21875 42.878906 -4.21875 41.121094 -1.769531 C 39.390625 0.644531 37.191406 2.503906 34.527344 3.800781 C 31.917969 5.070312 29.144531 5.863281 26.203125 6.175781 Z M 25.945312 3.746094 C 28.601562 3.464844 31.105469 2.75 33.457031 1.605469 C 35.753906 0.488281 37.644531 -1.113281 39.136719 -3.191406 C 40.601562 -5.234375 41.375 -7.792969 41.453125 -10.859375 C 41.527344 -12.804688 41.171875 -14.527344 40.382812 -16.03125 C 39.566406 -17.589844 38.441406 -18.988281 37.011719 -20.222656 C 35.527344 -21.5 33.851562 -22.648438 31.976562 -23.667969 C 30.070312 -24.703125 28.078125 -25.636719 26.003906 -26.46875 L 25.972656 -26.480469 L 25.945312 -26.492188 C 25.410156 -26.738281 24.683594 -27.050781 23.769531 -27.425781 C 22.792969 -27.824219 21.839844 -28.277344 20.910156 -28.789062 C 19.847656 -29.367188 19.03125 -30.078125 18.453125 -30.914062 C 17.714844 -31.988281 17.664062 -33.164062 18.304688 -34.441406 L 18.328125 -34.488281 L 18.351562 -34.53125 C 19.253906 -36.011719 20.296875 -36.886719 21.480469 -37.15625 C 22.585938 -37.402344 23.757812 -37.265625 24.996094 -36.738281 C 26.0625 -36.28125 27.179688 -35.664062 28.347656 -34.878906 C 29.425781 -34.152344 30.558594 -33.445312 31.742188 -32.757812 C 32.851562 -32.117188 33.984375 -31.652344 35.148438 -31.359375 C 36.191406 -31.097656 37.261719 -31.144531 38.355469 -31.496094 L 38.410156 -31.515625 L 38.46875 -31.527344 C 39.554688 -31.765625 40.390625 -32.234375 40.972656 -32.933594 C 41.578125 -33.652344 41.929688 -34.492188 42.03125 -35.457031 C 42.128906 -36.402344 41.929688 -37.308594 41.425781 -38.183594 L 41.398438 -38.226562 L 41.378906 -38.269531 C 40.28125 -40.582031 38.777344 -42.433594 36.867188 -43.816406 C 34.914062 -45.230469 32.660156 -46.28125 30.113281 -46.960938 C 27.519531 -47.65625 24.789062 -48.023438 21.921875 -48.066406 L 21.941406 -49.285156 L 21.972656 -48.066406 C 18.746094 -47.984375 15.84375 -47.355469 13.257812 -46.171875 C 10.722656 -45.011719 8.710938 -43.398438 7.226562 -41.324219 C 5.761719 -39.285156 5.011719 -36.808594 4.972656 -33.898438 C 4.972656 -31.632812 5.332031 -29.804688 6.046875 -28.414062 C 6.765625 -27.011719 7.75 -25.851562 8.996094 -24.925781 C 10.324219 -23.9375 11.832031 -23.058594 13.515625 -22.289062 C 15.289062 -21.476562 17.136719 -20.578125 19.050781 -19.597656 C 19.632812 -19.308594 20.382812 -18.953125 21.300781 -18.535156 C 22.300781 -18.082031 23.242188 -17.546875 24.128906 -16.933594 C 25.136719 -16.238281 25.867188 -15.410156 26.320312 -14.449219 C 26.863281 -13.296875 26.730469 -12.027344 25.921875 -10.640625 L 25.882812 -10.574219 L 25.835938 -10.511719 C 24.617188 -8.921875 23.242188 -8.128906 21.71875 -8.128906 C 20.367188 -8.128906 19.015625 -8.535156 17.65625 -9.351562 C 16.480469 -10.054688 15.320312 -10.769531 14.167969 -11.496094 L 14.0625 -11.558594 L 13.976562 -11.644531 C 13.167969 -12.414062 12.292969 -13.050781 11.351562 -13.546875 C 10.5 -14 9.585938 -14.21875 8.605469 -14.203125 C 7.648438 -14.183594 6.523438 -13.773438 5.238281 -12.964844 C 4.308594 -12.363281 3.691406 -11.5625 3.398438 -10.5625 C 3.074219 -9.46875 3.039062 -8.332031 3.292969 -7.15625 C 3.558594 -5.921875 3.992188 -4.835938 4.589844 -3.902344 L 3.5625 -3.242188 L 4.550781 -3.960938 C 6.007812 -1.949219 7.882812 -0.332031 10.179688 0.894531 C 12.519531 2.144531 15.0625 2.992188 17.8125 3.4375 C 20.59375 3.886719 23.308594 3.988281 25.960938 3.746094 Z M 25.945312 3.746094 "/></g></g></g></svg>