<svg xmlns="http://www.w3.org/2000/svg" xmlns:xlink="http://www.w3.org/1999/xlink" width="500" zoomAndPan="magnify" viewBox="0 0 375 374.999991" height="500" preserveAspectRatio="xMidYMid meet" version="1.0"><path fill="#000000" d="M 218.199219 109.851562 L 219.917969 112.144531 L 230.238281 131.640625 L 237.691406 144.828125 L 245.148438 159.160156 L 252.027344 171.773438 L 260.054688 186.683594 L 267.507812 200.441406 L 275.535156 215.351562 L 277.828125 219.9375 L 270.949219 225.671875 L 263.496094 231.402344 L 255.46875 237.710938 L 245.148438 245.738281 L 237.121094 252.046875 L 229.09375 258.351562 L 218.773438 266.378906 L 214.757812 264.085938 L 203.292969 256.058594 L 193.542969 249.179688 L 183.796875 242.296875 L 174.050781 235.417969 L 164.300781 228.539062 L 154.554688 221.65625 L 152.261719 219.363281 L 162.007812 203.308594 L 172.902344 184.960938 L 182.648438 168.90625 L 193.542969 150.558594 L 203.292969 134.503906 L 214.183594 116.15625 Z M 217.050781 123.039062 L 213.613281 128.199219 L 203.863281 144.253906 L 196.410156 156.292969 L 186.664062 172.347656 L 177.488281 187.253906 L 167.742188 203.308594 L 167.167969 205.601562 L 170.035156 202.734375 L 176.34375 195.28125 L 180.929688 189.546875 L 186.089844 183.242188 L 186.089844 184.386719 L 176.34375 207.894531 L 176.917969 209.042969 L 182.078125 203.308594 L 188.382812 195.28125 L 196.410156 185.535156 L 200.996094 179.800781 L 208.453125 170.628906 L 212.464844 165.46875 L 214.757812 168.335938 L 221.640625 182.09375 L 227.371094 192.988281 L 230.8125 199.296875 L 231.386719 199.296875 L 230.8125 189.546875 L 227.945312 164.320312 L 232.53125 168.335938 L 237.691406 173.496094 L 242.28125 177.507812 L 248.011719 183.242188 L 250.308594 183.816406 L 245.71875 174.640625 L 237.691406 159.734375 L 230.8125 147.121094 L 223.359375 133.359375 L 217.625 123.039062 Z M 86.898438 119.023438 L 103.527344 119.023438 L 116.140625 155.71875 L 115.566406 148.265625 L 114.992188 127.625 L 114.992188 119.023438 L 126.460938 119.023438 L 126.460938 169.480469 L 112.125 169.480469 L 109.832031 168.90625 L 101.804688 145.398438 L 97.792969 133.359375 L 97.792969 131.640625 L 96.644531 131.640625 L 97.792969 136.800781 L 98.367188 142.53125 L 98.367188 169.480469 L 87.472656 169.480469 L 86.898438 168.90625 Z M 63.964844 205.03125 L 88.046875 205.03125 L 95.5 207.324219 L 100.085938 210.191406 L 103.527344 215.351562 L 104.671875 221.082031 L 104.097656 227.964844 L 101.234375 233.699219 L 96.644531 237.710938 L 90.910156 240.003906 L 88.046875 240.578125 L 77.722656 240.578125 L 77.722656 257.777344 L 63.964844 257.777344 Z M 78.296875 214.203125 L 77.722656 214.777344 L 77.722656 230.832031 L 85.179688 230.832031 L 89.191406 228.539062 L 90.339844 225.671875 L 90.339844 219.363281 L 88.617188 216.496094 L 85.75 214.777344 L 82.886719 214.203125 Z M 110.40625 205.03125 L 143.660156 205.03125 L 143.089844 211.910156 L 141.941406 214.777344 L 124.167969 214.777344 L 124.167969 226.242188 L 140.222656 226.242188 L 140.222656 235.417969 L 124.742188 235.992188 L 124.742188 248.03125 L 143.660156 248.605469 L 143.660156 257.777344 L 110.40625 257.777344 Z M 57.65625 117.878906 L 66.832031 117.878906 L 74.285156 120.171875 L 79.445312 123.613281 L 78.296875 126.480469 L 74.285156 131.066406 L 68.550781 128.199219 L 66.257812 127.625 L 59.949219 127.625 L 57.65625 128.199219 L 57.082031 132.785156 L 59.949219 135.652344 L 70.84375 139.667969 L 76.578125 143.105469 L 80.019531 147.691406 L 81.164062 151.707031 L 81.164062 156.867188 L 79.445312 162.027344 L 75.429688 166.613281 L 69.699219 169.480469 L 64.539062 170.628906 L 57.082031 170.628906 L 51.351562 169.480469 L 46.191406 167.1875 L 42.75 164.894531 L 41.601562 162.601562 L 46.761719 156.867188 L 49.054688 157.441406 L 54.789062 160.308594 L 62.242188 160.878906 L 66.257812 159.734375 L 66.832031 158.015625 L 66.832031 152.851562 L 63.964844 150.558594 L 53.070312 146.546875 L 47.335938 143.105469 L 43.894531 137.945312 L 43.324219 135.652344 L 43.324219 129.34375 L 46.191406 123.613281 L 50.777344 120.171875 L 54.789062 118.453125 Z M 135.0625 119.023438 L 166.597656 119.023438 L 166.023438 125.90625 L 165.449219 128.199219 L 148.25 128.199219 L 148.25 139.667969 L 163.15625 139.667969 L 163.15625 148.265625 L 148.25 148.265625 L 148.25 160.308594 L 166.597656 160.308594 L 166.597656 168.90625 L 166.023438 169.480469 L 135.0625 169.480469 Z M 319.683594 205.03125 L 333.445312 205.03125 L 330.578125 210.191406 L 325.992188 216.496094 L 318.539062 227.964844 L 319.109375 230.832031 L 328.859375 246.886719 L 334.019531 256.058594 L 334.589844 257.777344 L 319.109375 257.777344 L 304.203125 231.402344 L 304.203125 228.539062 L 313.378906 214.203125 L 318.539062 206.175781 Z M 297.894531 117.878906 L 311.65625 117.878906 L 310.511719 120.746094 L 305.921875 127.050781 L 297.894531 139.09375 L 296.75 141.960938 L 304.203125 154.574219 L 313.378906 170.054688 L 313.378906 170.628906 L 297.894531 170.628906 L 294.457031 164.894531 L 285.28125 148.265625 L 282.414062 143.105469 L 283.5625 139.667969 L 289.296875 131.066406 L 297.324219 118.453125 Z M 267.507812 117.878906 L 281.269531 117.878906 L 281.269531 170.628906 L 268.082031 170.628906 L 267.507812 170.054688 Z M 289.296875 205.03125 L 302.484375 205.03125 L 302.484375 257.777344 L 289.296875 257.777344 Z M 289.296875 205.03125 " fill-opacity="1" fill-rule="nonzero"/></svg>