<svg xmlns="http://www.w3.org/2000/svg" xmlns:xlink="http://www.w3.org/1999/xlink" width="500" zoomAndPan="magnify" viewBox="0 0 375 374.999991" height="500" preserveAspectRatio="xMidYMid meet" version="1.0"><defs><clipPath id="c15ae72649"><path d="M 53.835938 53.835938 L 322 53.835938 L 322 320 L 53.835938 320 Z M 53.835938 53.835938 " clip-rule="nonzero"/></clipPath><clipPath id="c91d80f895"><path d="M 233.257812 144.039062 C 238.042969 144.039062 241.125 146.40625 241.15625 150.195312 C 241.183594 154.011719 238.089844 156.300781 233.238281 156.339844 L 223.851562 156.40625 L 223.765625 144.105469 L 233.152344 144.039062 C 233.191406 144.039062 233.230469 144.039062 233.257812 144.039062 Z M 143.972656 144.691406 C 148.714844 144.691406 151.929688 147.375 151.964844 151.816406 C 151.996094 156.148438 149.109375 159.148438 143.992188 159.183594 L 136.160156 159.242188 L 136.058594 144.746094 L 143.890625 144.691406 C 143.917969 144.691406 143.945312 144.691406 143.984375 144.691406 Z M 186.484375 143.738281 C 193.300781 143.738281 199.039062 148.546875 199.09375 156.328125 C 199.152344 164.160156 193.429688 169.050781 186.570312 169.097656 C 186.53125 169.097656 186.503906 169.097656 186.46875 169.097656 C 179.652344 169.097656 173.921875 164.292969 173.867188 156.507812 C 173.8125 148.675781 179.53125 143.785156 186.390625 143.730469 C 186.429688 143.730469 186.457031 143.730469 186.496094 143.730469 Z M 289.507812 136.273438 L 252.773438 136.539062 C 252.386719 136.539062 251.871094 137.058594 251.871094 137.453125 L 251.90625 143.011719 C 251.90625 143.398438 252.425781 143.910156 252.820312 143.910156 L 266.789062 143.804688 L 267.015625 174.46875 C 267.015625 174.855469 267.410156 175.242188 267.796875 175.242188 L 275.035156 175.1875 C 275.421875 175.1875 275.804688 174.789062 275.804688 174.40625 L 275.582031 143.738281 L 289.554688 143.636719 C 289.941406 143.636719 290.460938 143.105469 290.460938 142.722656 L 290.421875 137.160156 C 290.421875 136.773438 289.90625 136.265625 289.507812 136.265625 Z M 233.871094 136.679688 C 233.804688 136.679688 233.746094 136.679688 233.679688 136.679688 L 215.699219 136.8125 C 215.3125 136.8125 214.925781 137.207031 214.925781 137.59375 L 215.199219 174.847656 C 215.199219 175.234375 215.585938 175.621094 215.972656 175.621094 L 223.210938 175.5625 C 223.597656 175.5625 223.984375 175.167969 223.984375 174.78125 L 223.898438 163.398438 L 232.25 163.339844 L 240.230469 174.800781 C 240.496094 175.1875 240.945312 175.441406 241.265625 175.441406 L 249.863281 175.375 C 250.25 175.375 250.378906 175.175781 250.378906 174.921875 C 250.378906 174.789062 250.316406 174.535156 249.984375 174.085938 L 243.386719 164.554688 C 242.472656 163.207031 241.304688 161.984375 241.304688 161.984375 L 241.304688 161.851562 C 246.460938 160.003906 249.984375 156.035156 249.945312 150.148438 C 249.890625 141.730469 243.21875 136.679688 233.871094 136.679688 Z M 144.710938 137.332031 C 144.652344 137.332031 144.597656 137.332031 144.539062 137.332031 L 127.980469 137.453125 C 127.59375 137.453125 127.210938 137.847656 127.210938 138.234375 L 127.484375 175.488281 C 127.484375 175.875 127.878906 176.261719 128.265625 176.261719 L 135.503906 176.203125 C 135.886719 176.203125 136.273438 175.808594 136.273438 175.421875 L 136.210938 166.234375 L 144.757812 166.167969 C 153.878906 166.101562 160.816406 160.75 160.757812 151.757812 C 160.691406 142.882812 154.011719 137.320312 144.71875 137.320312 Z M 186.503906 136.378906 C 186.449219 136.378906 186.382812 136.378906 186.324219 136.378906 C 174.675781 136.464844 164.972656 144.617188 165.066406 156.582031 C 165.148438 168.683594 174.867188 176.476562 186.429688 176.476562 C 186.496094 176.476562 186.550781 176.476562 186.617188 176.476562 C 198.265625 176.394531 207.972656 168.4375 207.878906 156.273438 C 207.792969 144.359375 198.078125 136.378906 186.503906 136.378906 Z M 101.460938 136.992188 C 101.367188 136.992188 101.285156 136.992188 101.191406 136.992188 C 89.738281 137.074219 83.90625 143.324219 83.953125 150.054688 C 83.992188 155.875 88.222656 159.46875 96.121094 160.050781 L 106.222656 160.816406 C 110.105469 161.105469 111.414062 162.71875 111.425781 164.539062 C 111.441406 167.316406 108.683594 169.671875 102.460938 169.722656 C 102.394531 169.722656 102.328125 169.722656 102.265625 169.722656 C 96.25 169.722656 93.507812 167.675781 92.839844 164.414062 C 92.707031 163.773438 92.320312 163.453125 91.558594 163.453125 C 91.550781 163.453125 91.550781 163.453125 91.539062 163.453125 L 85.273438 163.5 C 84.566406 163.511719 84.046875 164.027344 84.058594 164.679688 L 84.058594 165.195312 C 84.105469 171.558594 90.570312 177.089844 102.246094 177.089844 C 102.328125 177.089844 102.425781 177.089844 102.519531 177.089844 C 115.070312 176.996094 120.253906 170.171875 120.207031 164.09375 C 120.167969 158.722656 116.578125 154.226562 107.523438 153.519531 L 97.484375 152.75 C 93.921875 152.511719 92.753906 151.230469 92.734375 149.476562 C 92.71875 146.632812 95.742188 144.40625 101.179688 144.359375 C 101.238281 144.359375 101.285156 144.359375 101.339844 144.359375 C 106.917969 144.359375 109.097656 146.527344 109.5 148.769531 C 109.632812 149.535156 110.019531 149.734375 110.652344 149.734375 C 110.660156 149.734375 110.671875 149.734375 110.671875 149.734375 L 117.070312 149.683594 C 117.839844 149.675781 118.292969 149.15625 118.285156 148.574219 C 118.238281 142.410156 113.109375 136.992188 101.460938 136.992188 Z M 187.511719 58.300781 C 258.4375 58.300781 316.1875 115.53125 316.695312 186.570312 L 58.292969 188.4375 C 57.773438 117.078125 115.203125 58.808594 186.5625 58.292969 C 186.882812 58.292969 187.203125 58.292969 187.511719 58.292969 Z M 247.507812 207.238281 C 247.488281 207.238281 247.460938 207.238281 247.441406 207.238281 C 241.9375 207.273438 238.996094 212.34375 239.054688 219.980469 C 239.109375 227.582031 242.097656 232.597656 247.5625 232.597656 C 247.582031 232.597656 247.609375 232.597656 247.628906 232.597656 C 253.132812 232.558594 256.074219 227.488281 256.015625 219.855469 C 255.960938 212.25 252.972656 207.238281 247.515625 207.238281 Z M 207.398438 207.53125 C 207.378906 207.53125 207.351562 207.53125 207.332031 207.53125 C 201.828125 207.566406 198.886719 212.636719 198.945312 220.269531 C 199 227.875 201.988281 232.890625 207.445312 232.890625 C 207.464844 232.890625 207.492188 232.890625 207.511719 232.890625 C 213.015625 232.851562 215.953125 227.78125 215.898438 220.148438 C 215.839844 212.542969 212.855469 207.53125 207.386719 207.53125 Z M 167.289062 207.820312 C 167.269531 207.820312 167.242188 207.820312 167.222656 207.820312 C 161.71875 207.859375 158.78125 212.929688 158.835938 220.5625 C 158.890625 228.167969 161.878906 233.183594 167.347656 233.183594 C 167.363281 233.183594 167.394531 233.183594 167.410156 233.183594 C 172.914062 233.144531 175.855469 228.074219 175.800781 220.441406 C 175.742188 212.835938 172.753906 207.820312 167.296875 207.820312 Z M 247.535156 199.878906 C 258.25 199.878906 264.703125 208.019531 264.789062 219.800781 C 264.875 231.636719 258.476562 239.890625 247.667969 239.976562 C 247.621094 239.976562 247.5625 239.976562 247.515625 239.976562 C 236.800781 239.976562 230.34375 231.835938 230.25 220.054688 C 230.167969 208.207031 236.566406 199.953125 247.375 199.878906 C 247.421875 199.878906 247.476562 199.878906 247.523438 199.878906 Z M 207.425781 200.167969 C 218.140625 200.167969 224.597656 208.3125 224.691406 220.09375 C 224.777344 231.929688 218.375 240.183594 207.566406 240.269531 C 207.519531 240.269531 207.464844 240.269531 207.417969 240.269531 C 196.703125 240.269531 190.246094 232.125 190.160156 220.347656 C 190.078125 208.5 196.476562 200.246094 207.285156 200.167969 C 207.332031 200.167969 207.386719 200.167969 207.433594 200.167969 Z M 127.5 200.746094 C 138.113281 200.746094 143.398438 207.386719 143.457031 214.210938 C 143.492188 219.515625 140.621094 223.617188 134.503906 227.800781 L 129.347656 231.335938 C 128.640625 231.796875 126.898438 232.578125 126.898438 232.578125 L 126.898438 232.832031 L 143.257812 232.710938 C 143.644531 232.710938 144.164062 233.21875 144.164062 233.605469 L 144.199219 239.164062 C 144.199219 239.550781 143.691406 240.070312 143.304688 240.082031 L 110.773438 240.316406 L 110.734375 235.085938 L 129.019531 222.597656 C 132.882812 219.980469 134.683594 217.640625 134.652344 214.277344 C 134.625 210.742188 132.054688 208.113281 127.445312 208.113281 C 127.417969 208.113281 127.386719 208.113281 127.359375 208.113281 C 122.1875 208.152344 120 211.082031 120.039062 215.871094 C 120.046875 216.773438 119.660156 217.105469 119.011719 217.105469 L 112.355469 217.152344 C 112.355469 217.152344 112.347656 217.152344 112.347656 217.152344 C 111.640625 217.152344 111.253906 216.707031 111.253906 216.257812 C 111.199219 207.839844 115.796875 200.828125 127.3125 200.746094 C 127.378906 200.746094 127.433594 200.746094 127.5 200.746094 Z M 167.316406 200.453125 C 178.03125 200.453125 184.488281 208.59375 184.574219 220.375 C 184.65625 232.210938 178.257812 240.464844 167.449219 240.550781 C 167.402344 240.550781 167.347656 240.550781 167.296875 240.550781 C 156.582031 240.550781 150.128906 232.410156 150.042969 220.628906 C 149.957031 208.78125 156.359375 200.527344 167.167969 200.453125 C 167.214844 200.453125 167.269531 200.453125 167.316406 200.453125 Z M 187.523438 53.835938 C 187.191406 53.835938 186.863281 53.835938 186.53125 53.835938 C 114.023438 54.363281 55.417969 112.527344 53.863281 184.542969 L 53.917969 192.394531 C 56.285156 258.03125 105.910156 311.464844 169.617188 319.976562 L 205.363281 319.976562 C 271.140625 311.195312 321.652344 254.621094 321.164062 186.523438 C 320.625 113.046875 260.886719 53.835938 187.523438 53.835938 Z M 187.523438 53.835938 " clip-rule="nonzero"/></clipPath><clipPath id="b075be48be"><path d="M 0.835938 0.835938 L 268.359375 0.835938 L 268.359375 267 L 0.835938 267 Z M 0.835938 0.835938 " clip-rule="nonzero"/></clipPath><clipPath id="8a9826b5db"><path d="M 180.257812 91.039062 C 185.042969 91.039062 188.125 93.40625 188.15625 97.195312 C 188.183594 101.011719 185.089844 103.300781 180.238281 103.339844 L 170.851562 103.40625 L 170.765625 91.105469 L 180.152344 91.039062 C 180.191406 91.039062 180.230469 91.039062 180.257812 91.039062 Z M 90.972656 91.691406 C 95.714844 91.691406 98.929688 94.375 98.964844 98.816406 C 98.996094 103.148438 96.109375 106.148438 90.992188 106.183594 L 83.160156 106.242188 L 83.058594 91.746094 L 90.890625 91.691406 C 90.917969 91.691406 90.945312 91.691406 90.984375 91.691406 Z M 133.484375 90.738281 C 140.300781 90.738281 146.039062 95.546875 146.09375 103.328125 C 146.152344 111.160156 140.429688 116.050781 133.570312 116.097656 C 133.53125 116.097656 133.503906 116.097656 133.46875 116.097656 C 126.652344 116.097656 120.921875 111.292969 120.867188 103.507812 C 120.8125 95.675781 126.53125 90.785156 133.390625 90.730469 C 133.429688 90.730469 133.457031 90.730469 133.496094 90.730469 Z M 236.507812 83.273438 L 199.773438 83.539062 C 199.386719 83.539062 198.871094 84.058594 198.871094 84.453125 L 198.90625 90.011719 C 198.90625 90.398438 199.425781 90.910156 199.820312 90.910156 L 213.789062 90.804688 L 214.015625 121.46875 C 214.015625 121.855469 214.410156 122.242188 214.796875 122.242188 L 222.035156 122.1875 C 222.421875 122.1875 222.804688 121.789062 222.804688 121.40625 L 222.582031 90.738281 L 236.554688 90.636719 C 236.941406 90.636719 237.460938 90.105469 237.460938 89.722656 L 237.421875 84.160156 C 237.421875 83.773438 236.90625 83.265625 236.507812 83.265625 Z M 180.871094 83.679688 C 180.804688 83.679688 180.746094 83.679688 180.679688 83.679688 L 162.699219 83.8125 C 162.3125 83.8125 161.925781 84.207031 161.925781 84.59375 L 162.199219 121.847656 C 162.199219 122.234375 162.585938 122.621094 162.972656 122.621094 L 170.210938 122.5625 C 170.597656 122.5625 170.984375 122.167969 170.984375 121.78125 L 170.898438 110.398438 L 179.25 110.339844 L 187.230469 121.800781 C 187.496094 122.1875 187.945312 122.441406 188.265625 122.441406 L 196.863281 122.375 C 197.25 122.375 197.378906 122.175781 197.378906 121.921875 C 197.378906 121.789062 197.316406 121.535156 196.984375 121.085938 L 190.386719 111.554688 C 189.472656 110.207031 188.304688 108.984375 188.304688 108.984375 L 188.304688 108.851562 C 193.460938 107.003906 196.984375 103.035156 196.945312 97.148438 C 196.890625 88.730469 190.21875 83.679688 180.871094 83.679688 Z M 91.710938 84.332031 C 91.652344 84.332031 91.597656 84.332031 91.539062 84.332031 L 74.980469 84.453125 C 74.59375 84.453125 74.210938 84.847656 74.210938 85.234375 L 74.484375 122.488281 C 74.484375 122.875 74.878906 123.261719 75.265625 123.261719 L 82.503906 123.203125 C 82.886719 123.203125 83.273438 122.808594 83.273438 122.421875 L 83.210938 113.234375 L 91.757812 113.167969 C 100.878906 113.101562 107.816406 107.75 107.757812 98.757812 C 107.691406 89.882812 101.011719 84.320312 91.71875 84.320312 Z M 133.503906 83.378906 C 133.449219 83.378906 133.382812 83.378906 133.324219 83.378906 C 121.675781 83.464844 111.972656 91.617188 112.066406 103.582031 C 112.148438 115.683594 121.867188 123.476562 133.429688 123.476562 C 133.496094 123.476562 133.550781 123.476562 133.617188 123.476562 C 145.265625 123.394531 154.972656 115.4375 154.878906 103.273438 C 154.792969 91.359375 145.078125 83.378906 133.503906 83.378906 Z M 48.460938 83.992188 C 48.367188 83.992188 48.285156 83.992188 48.191406 83.992188 C 36.738281 84.074219 30.90625 90.324219 30.953125 97.054688 C 30.992188 102.875 35.222656 106.46875 43.121094 107.050781 L 53.222656 107.816406 C 57.105469 108.105469 58.414062 109.71875 58.425781 111.539062 C 58.441406 114.316406 55.683594 116.671875 49.460938 116.722656 C 49.394531 116.722656 49.328125 116.722656 49.265625 116.722656 C 43.25 116.722656 40.507812 114.675781 39.839844 111.414062 C 39.707031 110.773438 39.320312 110.453125 38.558594 110.453125 C 38.550781 110.453125 38.550781 110.453125 38.539062 110.453125 L 32.273438 110.5 C 31.566406 110.511719 31.046875 111.027344 31.058594 111.679688 L 31.058594 112.195312 C 31.105469 118.558594 37.570312 124.089844 49.246094 124.089844 C 49.328125 124.089844 49.425781 124.089844 49.519531 124.089844 C 62.070312 123.996094 67.253906 117.171875 67.207031 111.09375 C 67.167969 105.722656 63.578125 101.226562 54.523438 100.519531 L 44.484375 99.75 C 40.921875 99.511719 39.753906 98.230469 39.734375 96.476562 C 39.71875 93.632812 42.742188 91.40625 48.179688 91.359375 C 48.238281 91.359375 48.285156 91.359375 48.339844 91.359375 C 53.917969 91.359375 56.097656 93.527344 56.5 95.769531 C 56.632812 96.535156 57.019531 96.734375 57.652344 96.734375 C 57.660156 96.734375 57.671875 96.734375 57.671875 96.734375 L 64.070312 96.683594 C 64.839844 96.675781 65.292969 96.15625 65.285156 95.574219 C 65.238281 89.410156 60.109375 83.992188 48.460938 83.992188 Z M 134.511719 5.300781 C 205.4375 5.300781 263.1875 62.53125 263.695312 133.570312 L 5.292969 135.4375 C 4.773438 64.078125 62.203125 5.808594 133.5625 5.292969 C 133.882812 5.292969 134.203125 5.292969 134.511719 5.292969 Z M 194.507812 154.238281 C 194.488281 154.238281 194.460938 154.238281 194.441406 154.238281 C 188.9375 154.273438 185.996094 159.34375 186.054688 166.980469 C 186.109375 174.582031 189.097656 179.597656 194.5625 179.597656 C 194.582031 179.597656 194.609375 179.597656 194.628906 179.597656 C 200.132812 179.558594 203.074219 174.488281 203.015625 166.855469 C 202.960938 159.25 199.972656 154.238281 194.515625 154.238281 Z M 154.398438 154.53125 C 154.378906 154.53125 154.351562 154.53125 154.332031 154.53125 C 148.828125 154.566406 145.886719 159.636719 145.945312 167.269531 C 146 174.875 148.988281 179.890625 154.445312 179.890625 C 154.464844 179.890625 154.492188 179.890625 154.511719 179.890625 C 160.015625 179.851562 162.953125 174.78125 162.898438 167.148438 C 162.839844 159.542969 159.855469 154.53125 154.386719 154.53125 Z M 114.289062 154.820312 C 114.269531 154.820312 114.242188 154.820312 114.222656 154.820312 C 108.71875 154.859375 105.78125 159.929688 105.835938 167.5625 C 105.890625 175.167969 108.878906 180.183594 114.347656 180.183594 C 114.363281 180.183594 114.394531 180.183594 114.410156 180.183594 C 119.914062 180.144531 122.855469 175.074219 122.800781 167.441406 C 122.742188 159.835938 119.753906 154.820312 114.296875 154.820312 Z M 194.535156 146.878906 C 205.25 146.878906 211.703125 155.019531 211.789062 166.800781 C 211.875 178.636719 205.476562 186.890625 194.667969 186.976562 C 194.621094 186.976562 194.5625 186.976562 194.515625 186.976562 C 183.800781 186.976562 177.34375 178.835938 177.25 167.054688 C 177.167969 155.207031 183.566406 146.953125 194.375 146.878906 C 194.421875 146.878906 194.476562 146.878906 194.523438 146.878906 Z M 154.425781 147.167969 C 165.140625 147.167969 171.597656 155.3125 171.691406 167.09375 C 171.777344 178.929688 165.375 187.183594 154.566406 187.269531 C 154.519531 187.269531 154.464844 187.269531 154.417969 187.269531 C 143.703125 187.269531 137.246094 179.125 137.160156 167.347656 C 137.078125 155.5 143.476562 147.246094 154.285156 147.167969 C 154.332031 147.167969 154.386719 147.167969 154.433594 147.167969 Z M 74.5 147.746094 C 85.113281 147.746094 90.398438 154.386719 90.457031 161.210938 C 90.492188 166.515625 87.621094 170.617188 81.503906 174.800781 L 76.347656 178.335938 C 75.640625 178.796875 73.898438 179.578125 73.898438 179.578125 L 73.898438 179.832031 L 90.257812 179.710938 C 90.644531 179.710938 91.164062 180.21875 91.164062 180.605469 L 91.199219 186.164062 C 91.199219 186.550781 90.691406 187.070312 90.304688 187.082031 L 57.773438 187.316406 L 57.734375 182.085938 L 76.019531 169.597656 C 79.882812 166.980469 81.683594 164.640625 81.652344 161.277344 C 81.625 157.742188 79.054688 155.113281 74.445312 155.113281 C 74.417969 155.113281 74.386719 155.113281 74.359375 155.113281 C 69.1875 155.152344 67 158.082031 67.039062 162.871094 C 67.046875 163.773438 66.660156 164.105469 66.011719 164.105469 L 59.355469 164.152344 C 59.355469 164.152344 59.347656 164.152344 59.347656 164.152344 C 58.640625 164.152344 58.253906 163.707031 58.253906 163.257812 C 58.199219 154.839844 62.796875 147.828125 74.3125 147.746094 C 74.378906 147.746094 74.433594 147.746094 74.5 147.746094 Z M 114.316406 147.453125 C 125.03125 147.453125 131.488281 155.59375 131.574219 167.375 C 131.65625 179.210938 125.257812 187.464844 114.449219 187.550781 C 114.402344 187.550781 114.347656 187.550781 114.296875 187.550781 C 103.582031 187.550781 97.128906 179.410156 97.042969 167.628906 C 96.957031 155.78125 103.359375 147.527344 114.167969 147.453125 C 114.214844 147.453125 114.269531 147.453125 114.316406 147.453125 Z M 134.523438 0.835938 C 134.191406 0.835938 133.863281 0.835938 133.53125 0.835938 C 61.023438 1.363281 2.417969 59.527344 0.863281 131.542969 L 0.917969 139.394531 C 3.285156 205.03125 52.910156 258.464844 116.617188 266.976562 L 152.363281 266.976562 C 218.140625 258.195312 268.652344 201.621094 268.164062 133.523438 C 267.625 60.046875 207.886719 0.835938 134.523438 0.835938 Z M 134.523438 0.835938 " clip-rule="nonzero"/></clipPath><clipPath id="630b9de2c0"><rect x="0" width="269" y="0" height="267"/></clipPath></defs><g clip-path="url(#c15ae72649)"><g clip-path="url(#c91d80f895)"><g transform="matrix(1, 0, 0, 1, 53, 53)"><g clip-path="url(#630b9de2c0)"><g clip-path="url(#b075be48be)"><g clip-path="url(#8a9826b5db)"><path fill="#000000" d="M 0.835938 0.835938 L 268.164062 0.835938 L 268.164062 268.164062 L 0.835938 268.164062 Z M 0.835938 0.835938 " fill-opacity="1" fill-rule="nonzero"/></g></g></g></g></g></g></svg>