<svg xmlns="http://www.w3.org/2000/svg" xmlns:xlink="http://www.w3.org/1999/xlink" width="500" zoomAndPan="magnify" viewBox="0 0 375 374.999991" height="500" preserveAspectRatio="xMidYMid meet" version="1.0"><defs><clipPath id="094cc8a865"><path d="M 28.703125 28.703125 L 347 28.703125 L 347 345 L 28.703125 345 Z M 28.703125 28.703125 " clip-rule="nonzero"/></clipPath><clipPath id="4423729e60"><path d="M 241.859375 135.871094 C 247.546875 135.871094 251.207031 138.679688 251.242188 143.179688 C 251.273438 147.714844 247.601562 150.4375 241.835938 150.480469 L 230.6875 150.558594 L 230.585938 135.949219 L 241.738281 135.871094 C 241.78125 135.871094 241.824219 135.871094 241.859375 135.871094 Z M 135.792969 136.640625 C 141.421875 136.640625 145.242188 139.832031 145.285156 145.105469 C 145.320312 150.257812 141.894531 153.816406 135.8125 153.863281 L 126.511719 153.929688 L 126.386719 136.710938 L 135.691406 136.640625 C 135.722656 136.640625 135.757812 136.640625 135.804688 136.640625 Z M 186.296875 135.511719 C 194.390625 135.511719 201.207031 141.222656 201.273438 150.46875 C 201.34375 159.773438 194.546875 165.582031 186.394531 165.640625 C 186.351562 165.640625 186.316406 165.640625 186.273438 165.640625 C 178.179688 165.640625 171.371094 159.929688 171.304688 150.683594 C 171.238281 141.378906 178.03125 135.566406 186.183594 135.5 C 186.226562 135.5 186.261719 135.5 186.304688 135.5 Z M 308.6875 126.644531 L 265.046875 126.957031 C 264.585938 126.957031 263.972656 127.574219 263.972656 128.042969 L 264.015625 134.648438 C 264.015625 135.109375 264.632812 135.714844 265.101562 135.714844 L 281.695312 135.589844 L 281.960938 172.019531 C 281.960938 172.480469 282.433594 172.9375 282.890625 172.9375 L 291.488281 172.871094 C 291.949219 172.871094 292.40625 172.402344 292.40625 171.941406 L 292.140625 135.511719 L 308.742188 135.386719 C 309.203125 135.386719 309.816406 134.761719 309.816406 134.300781 L 309.773438 127.695312 C 309.773438 127.238281 309.15625 126.632812 308.6875 126.632812 Z M 242.585938 127.125 C 242.507812 127.125 242.441406 127.125 242.363281 127.125 L 221 127.28125 C 220.542969 127.28125 220.082031 127.753906 220.082031 128.210938 L 220.410156 172.46875 C 220.410156 172.925781 220.867188 173.386719 221.328125 173.386719 L 229.925781 173.320312 C 230.382812 173.320312 230.84375 172.847656 230.84375 172.390625 L 230.742188 158.867188 L 240.660156 158.796875 L 250.144531 172.414062 C 250.457031 172.871094 250.996094 173.175781 251.375 173.175781 L 261.585938 173.09375 C 262.046875 173.09375 262.203125 172.859375 262.203125 172.558594 C 262.203125 172.402344 262.125 172.097656 261.730469 171.5625 L 253.894531 160.242188 C 252.808594 158.640625 251.421875 157.1875 251.421875 157.1875 L 251.421875 157.03125 C 257.542969 154.835938 261.730469 150.121094 261.6875 143.125 C 261.621094 133.128906 253.691406 127.125 242.585938 127.125 Z M 136.664062 127.898438 C 136.597656 127.898438 136.53125 127.898438 136.464844 127.898438 L 116.792969 128.042969 C 116.332031 128.042969 115.875 128.515625 115.875 128.972656 L 116.199219 173.230469 C 116.199219 173.6875 116.667969 174.148438 117.128906 174.148438 L 125.726562 174.082031 C 126.1875 174.082031 126.644531 173.609375 126.644531 173.152344 L 126.566406 162.234375 L 136.722656 162.15625 C 147.558594 162.078125 155.796875 155.71875 155.730469 145.039062 C 155.652344 134.492188 147.714844 127.886719 136.675781 127.886719 Z M 186.316406 126.769531 C 186.25 126.769531 186.171875 126.769531 186.105469 126.769531 C 172.265625 126.867188 160.734375 136.554688 160.847656 150.769531 C 160.949219 165.148438 172.492188 174.40625 186.226562 174.40625 C 186.304688 174.40625 186.375 174.40625 186.453125 174.40625 C 200.289062 174.304688 211.820312 164.855469 211.710938 150.402344 C 211.609375 136.25 200.066406 126.769531 186.316406 126.769531 Z M 85.289062 127.496094 C 85.175781 127.496094 85.074219 127.496094 84.964844 127.496094 C 71.359375 127.597656 64.429688 135.019531 64.488281 143.011719 C 64.53125 149.933594 69.558594 154.199219 78.941406 154.890625 L 90.941406 155.796875 C 95.554688 156.144531 97.109375 158.058594 97.121094 160.21875 C 97.144531 163.523438 93.863281 166.320312 86.476562 166.378906 C 86.394531 166.378906 86.316406 166.378906 86.238281 166.378906 C 79.097656 166.378906 75.839844 163.949219 75.042969 160.074219 C 74.886719 159.3125 74.429688 158.933594 73.519531 158.933594 C 73.511719 158.933594 73.511719 158.933594 73.5 158.933594 L 66.054688 158.988281 C 65.214844 159 64.597656 159.617188 64.609375 160.386719 L 64.609375 161.003906 C 64.664062 168.5625 72.347656 175.132812 86.21875 175.132812 C 86.316406 175.132812 86.429688 175.132812 86.542969 175.132812 C 101.453125 175.019531 107.613281 166.914062 107.554688 159.695312 C 107.511719 153.3125 103.246094 147.972656 92.488281 147.132812 L 80.5625 146.214844 C 76.332031 145.933594 74.941406 144.414062 74.921875 142.328125 C 74.898438 138.949219 78.492188 136.308594 84.953125 136.25 C 85.019531 136.25 85.074219 136.25 85.140625 136.25 C 91.769531 136.25 94.355469 138.824219 94.835938 141.492188 C 94.996094 142.398438 95.453125 142.632812 96.203125 142.632812 C 96.214844 142.632812 96.226562 142.632812 96.226562 142.632812 L 103.828125 142.578125 C 104.746094 142.566406 105.285156 141.949219 105.273438 141.253906 C 105.214844 133.933594 99.125 127.496094 85.289062 127.496094 Z M 187.515625 34.011719 C 271.773438 34.011719 340.382812 102.003906 340.984375 186.394531 L 34 188.613281 C 33.386719 103.839844 101.609375 34.617188 186.386719 34 C 186.765625 34 187.144531 34 187.515625 34 Z M 258.789062 210.949219 C 258.765625 210.949219 258.730469 210.949219 258.707031 210.949219 C 252.171875 210.992188 248.675781 217.015625 248.746094 226.085938 C 248.8125 235.121094 252.359375 241.074219 258.855469 241.074219 C 258.875 241.074219 258.910156 241.074219 258.933594 241.074219 C 265.472656 241.03125 268.964844 235.007812 268.898438 225.9375 C 268.828125 216.90625 265.28125 210.949219 258.796875 210.949219 Z M 211.136719 211.296875 C 211.117188 211.296875 211.082031 211.296875 211.058594 211.296875 C 204.523438 211.339844 201.027344 217.363281 201.097656 226.433594 C 201.164062 235.464844 204.710938 241.421875 211.195312 241.421875 C 211.21875 241.421875 211.25 241.421875 211.273438 241.421875 C 217.8125 241.378906 221.304688 235.355469 221.238281 226.285156 C 221.167969 217.25 217.621094 211.296875 211.128906 211.296875 Z M 163.488281 211.640625 C 163.46875 211.640625 163.433594 211.640625 163.410156 211.640625 C 156.875 211.6875 153.378906 217.710938 153.445312 226.777344 C 153.515625 235.8125 157.0625 241.769531 163.558594 241.769531 C 163.578125 241.769531 163.613281 241.769531 163.636719 241.769531 C 170.171875 241.726562 173.667969 235.703125 173.597656 226.632812 C 173.53125 217.597656 169.984375 211.640625 163.5 211.640625 Z M 258.820312 202.203125 C 271.550781 202.203125 279.21875 211.878906 279.320312 225.871094 C 279.421875 239.933594 271.820312 249.742188 258.976562 249.84375 C 258.921875 249.84375 258.855469 249.84375 258.796875 249.84375 C 246.070312 249.84375 238.398438 240.167969 238.289062 226.175781 C 238.1875 212.101562 245.789062 202.292969 258.628906 202.203125 C 258.6875 202.203125 258.753906 202.203125 258.808594 202.203125 Z M 211.171875 202.550781 C 223.902344 202.550781 231.570312 212.222656 231.683594 226.21875 C 231.785156 240.28125 224.179688 250.089844 211.339844 250.1875 C 211.285156 250.1875 211.21875 250.1875 211.160156 250.1875 C 198.429688 250.1875 190.761719 240.515625 190.660156 226.519531 C 190.5625 212.449219 198.164062 202.640625 211.003906 202.550781 C 211.058594 202.550781 211.128906 202.550781 211.183594 202.550781 Z M 116.222656 203.234375 C 128.828125 203.234375 135.109375 211.128906 135.175781 219.234375 C 135.21875 225.535156 131.804688 230.40625 124.539062 235.378906 L 118.414062 239.574219 C 117.578125 240.125 115.503906 241.054688 115.503906 241.054688 L 115.503906 241.355469 L 134.941406 241.210938 C 135.398438 241.210938 136.015625 241.816406 136.015625 242.273438 L 136.058594 248.878906 C 136.058594 249.339844 135.457031 249.953125 134.996094 249.964844 L 96.347656 250.246094 L 96.304688 244.03125 L 118.023438 229.195312 C 122.613281 226.085938 124.753906 223.308594 124.71875 219.3125 C 124.683594 215.113281 121.628906 211.988281 116.15625 211.988281 C 116.121094 211.988281 116.085938 211.988281 116.054688 211.988281 C 109.90625 212.035156 107.308594 215.515625 107.355469 221.203125 C 107.367188 222.277344 106.90625 222.671875 106.132812 222.671875 L 98.230469 222.726562 C 98.230469 222.726562 98.21875 222.726562 98.21875 222.726562 C 97.378906 222.726562 96.921875 222.199219 96.921875 221.664062 C 96.851562 211.664062 102.316406 203.335938 115.996094 203.234375 C 116.074219 203.234375 116.144531 203.234375 116.222656 203.234375 Z M 163.523438 202.886719 C 176.253906 202.886719 183.921875 212.558594 184.023438 226.554688 C 184.125 240.617188 176.523438 250.425781 163.679688 250.523438 C 163.625 250.523438 163.558594 250.523438 163.5 250.523438 C 150.769531 250.523438 143.101562 240.851562 143 226.855469 C 142.902344 212.785156 150.503906 202.976562 163.34375 202.886719 C 163.398438 202.886719 163.46875 202.886719 163.523438 202.886719 Z M 187.527344 28.703125 C 187.136719 28.703125 186.742188 28.703125 186.351562 28.703125 C 100.210938 29.332031 30.585938 98.433594 28.738281 183.988281 L 28.804688 193.316406 C 31.617188 271.292969 90.574219 334.773438 166.253906 344.882812 L 208.71875 344.882812 C 286.867188 334.449219 346.875 267.238281 346.292969 186.339844 C 345.65625 99.046875 274.683594 28.703125 187.527344 28.703125 Z M 187.527344 28.703125 " clip-rule="nonzero"/></clipPath><clipPath id="e14f578c4a"><path d="M 0.703125 0.703125 L 318.320312 0.703125 L 318.320312 317 L 0.703125 317 Z M 0.703125 0.703125 " clip-rule="nonzero"/></clipPath><clipPath id="3001cac755"><path d="M 213.859375 107.871094 C 219.546875 107.871094 223.207031 110.679688 223.242188 115.179688 C 223.273438 119.714844 219.601562 122.4375 213.835938 122.480469 L 202.6875 122.558594 L 202.585938 107.949219 L 213.738281 107.871094 C 213.78125 107.871094 213.824219 107.871094 213.859375 107.871094 Z M 107.792969 108.640625 C 113.421875 108.640625 117.242188 111.832031 117.285156 117.105469 C 117.320312 122.257812 113.894531 125.816406 107.8125 125.863281 L 98.511719 125.929688 L 98.386719 108.710938 L 107.691406 108.640625 C 107.722656 108.640625 107.757812 108.640625 107.804688 108.640625 Z M 158.296875 107.511719 C 166.390625 107.511719 173.207031 113.222656 173.273438 122.46875 C 173.34375 131.773438 166.546875 137.582031 158.394531 137.640625 C 158.351562 137.640625 158.316406 137.640625 158.273438 137.640625 C 150.179688 137.640625 143.371094 131.929688 143.304688 122.683594 C 143.238281 113.378906 150.03125 107.566406 158.183594 107.5 C 158.226562 107.5 158.261719 107.5 158.304688 107.5 Z M 280.6875 98.644531 L 237.046875 98.957031 C 236.585938 98.957031 235.972656 99.574219 235.972656 100.042969 L 236.015625 106.648438 C 236.015625 107.109375 236.632812 107.714844 237.101562 107.714844 L 253.695312 107.589844 L 253.960938 144.019531 C 253.960938 144.480469 254.433594 144.9375 254.890625 144.9375 L 263.488281 144.871094 C 263.949219 144.871094 264.40625 144.402344 264.40625 143.941406 L 264.140625 107.511719 L 280.742188 107.386719 C 281.203125 107.386719 281.816406 106.761719 281.816406 106.300781 L 281.773438 99.695312 C 281.773438 99.238281 281.15625 98.632812 280.6875 98.632812 Z M 214.585938 99.125 C 214.507812 99.125 214.441406 99.125 214.363281 99.125 L 193 99.28125 C 192.542969 99.28125 192.082031 99.753906 192.082031 100.210938 L 192.410156 144.46875 C 192.410156 144.925781 192.867188 145.386719 193.328125 145.386719 L 201.925781 145.320312 C 202.382812 145.320312 202.84375 144.847656 202.84375 144.390625 L 202.742188 130.867188 L 212.660156 130.796875 L 222.144531 144.414062 C 222.457031 144.871094 222.996094 145.175781 223.375 145.175781 L 233.585938 145.09375 C 234.046875 145.09375 234.203125 144.859375 234.203125 144.558594 C 234.203125 144.402344 234.125 144.097656 233.730469 143.5625 L 225.894531 132.242188 C 224.808594 130.640625 223.421875 129.1875 223.421875 129.1875 L 223.421875 129.03125 C 229.542969 126.835938 233.730469 122.121094 233.6875 115.125 C 233.621094 105.128906 225.691406 99.125 214.585938 99.125 Z M 108.664062 99.898438 C 108.597656 99.898438 108.53125 99.898438 108.464844 99.898438 L 88.792969 100.042969 C 88.332031 100.042969 87.875 100.515625 87.875 100.972656 L 88.199219 145.230469 C 88.199219 145.6875 88.667969 146.148438 89.128906 146.148438 L 97.726562 146.082031 C 98.1875 146.082031 98.644531 145.609375 98.644531 145.152344 L 98.566406 134.234375 L 108.722656 134.15625 C 119.558594 134.078125 127.796875 127.71875 127.730469 117.039062 C 127.652344 106.492188 119.714844 99.886719 108.675781 99.886719 Z M 158.316406 98.769531 C 158.25 98.769531 158.171875 98.769531 158.105469 98.769531 C 144.265625 98.867188 132.734375 108.554688 132.847656 122.769531 C 132.949219 137.148438 144.492188 146.40625 158.226562 146.40625 C 158.304688 146.40625 158.375 146.40625 158.453125 146.40625 C 172.289062 146.304688 183.820312 136.855469 183.710938 122.402344 C 183.609375 108.25 172.066406 98.769531 158.316406 98.769531 Z M 57.289062 99.496094 C 57.175781 99.496094 57.074219 99.496094 56.964844 99.496094 C 43.359375 99.597656 36.429688 107.019531 36.488281 115.011719 C 36.53125 121.933594 41.558594 126.199219 50.941406 126.890625 L 62.941406 127.796875 C 67.554688 128.144531 69.109375 130.058594 69.121094 132.21875 C 69.144531 135.523438 65.863281 138.320312 58.476562 138.378906 C 58.394531 138.378906 58.316406 138.378906 58.238281 138.378906 C 51.097656 138.378906 47.839844 135.949219 47.042969 132.074219 C 46.886719 131.3125 46.429688 130.933594 45.519531 130.933594 C 45.511719 130.933594 45.511719 130.933594 45.5 130.933594 L 38.054688 130.988281 C 37.214844 131 36.597656 131.617188 36.609375 132.386719 L 36.609375 133.003906 C 36.664062 140.5625 44.347656 147.132812 58.21875 147.132812 C 58.316406 147.132812 58.429688 147.132812 58.542969 147.132812 C 73.453125 147.019531 79.613281 138.914062 79.554688 131.695312 C 79.511719 125.3125 75.246094 119.972656 64.488281 119.132812 L 52.5625 118.214844 C 48.332031 117.933594 46.941406 116.414062 46.921875 114.328125 C 46.898438 110.949219 50.492188 108.308594 56.953125 108.25 C 57.019531 108.25 57.074219 108.25 57.140625 108.25 C 63.769531 108.25 66.355469 110.824219 66.835938 113.492188 C 66.996094 114.398438 67.453125 114.632812 68.203125 114.632812 C 68.214844 114.632812 68.226562 114.632812 68.226562 114.632812 L 75.828125 114.578125 C 76.746094 114.566406 77.285156 113.949219 77.273438 113.253906 C 77.214844 105.933594 71.125 99.496094 57.289062 99.496094 Z M 159.515625 6.011719 C 243.773438 6.011719 312.382812 74.003906 312.984375 158.394531 L 6 160.613281 C 5.386719 75.839844 73.609375 6.617188 158.386719 6 C 158.765625 6 159.144531 6 159.515625 6 Z M 230.789062 182.949219 C 230.765625 182.949219 230.730469 182.949219 230.707031 182.949219 C 224.171875 182.992188 220.675781 189.015625 220.746094 198.085938 C 220.8125 207.121094 224.359375 213.074219 230.855469 213.074219 C 230.875 213.074219 230.910156 213.074219 230.933594 213.074219 C 237.472656 213.03125 240.964844 207.007812 240.898438 197.9375 C 240.828125 188.90625 237.28125 182.949219 230.796875 182.949219 Z M 183.136719 183.296875 C 183.117188 183.296875 183.082031 183.296875 183.058594 183.296875 C 176.523438 183.339844 173.027344 189.363281 173.097656 198.433594 C 173.164062 207.464844 176.710938 213.421875 183.195312 213.421875 C 183.21875 213.421875 183.25 213.421875 183.273438 213.421875 C 189.8125 213.378906 193.304688 207.355469 193.238281 198.285156 C 193.167969 189.25 189.621094 183.296875 183.128906 183.296875 Z M 135.488281 183.640625 C 135.46875 183.640625 135.433594 183.640625 135.410156 183.640625 C 128.875 183.6875 125.378906 189.710938 125.445312 198.777344 C 125.515625 207.8125 129.0625 213.769531 135.558594 213.769531 C 135.578125 213.769531 135.613281 213.769531 135.636719 213.769531 C 142.171875 213.726562 145.667969 207.703125 145.597656 198.632812 C 145.53125 189.597656 141.984375 183.640625 135.5 183.640625 Z M 230.820312 174.203125 C 243.550781 174.203125 251.21875 183.878906 251.320312 197.871094 C 251.421875 211.933594 243.820312 221.742188 230.976562 221.84375 C 230.921875 221.84375 230.855469 221.84375 230.796875 221.84375 C 218.070312 221.84375 210.398438 212.167969 210.289062 198.175781 C 210.1875 184.101562 217.789062 174.292969 230.628906 174.203125 C 230.6875 174.203125 230.753906 174.203125 230.808594 174.203125 Z M 183.171875 174.550781 C 195.902344 174.550781 203.570312 184.222656 203.683594 198.21875 C 203.785156 212.28125 196.179688 222.089844 183.339844 222.1875 C 183.285156 222.1875 183.21875 222.1875 183.160156 222.1875 C 170.429688 222.1875 162.761719 212.515625 162.660156 198.519531 C 162.5625 184.449219 170.164062 174.640625 183.003906 174.550781 C 183.058594 174.550781 183.128906 174.550781 183.183594 174.550781 Z M 88.222656 175.234375 C 100.828125 175.234375 107.109375 183.128906 107.175781 191.234375 C 107.21875 197.535156 103.804688 202.40625 96.539062 207.378906 L 90.414062 211.574219 C 89.578125 212.125 87.503906 213.054688 87.503906 213.054688 L 87.503906 213.355469 L 106.941406 213.210938 C 107.398438 213.210938 108.015625 213.816406 108.015625 214.273438 L 108.058594 220.878906 C 108.058594 221.339844 107.457031 221.953125 106.996094 221.964844 L 68.347656 222.246094 L 68.304688 216.03125 L 90.023438 201.195312 C 94.613281 198.085938 96.753906 195.308594 96.71875 191.3125 C 96.683594 187.113281 93.628906 183.988281 88.15625 183.988281 C 88.121094 183.988281 88.085938 183.988281 88.054688 183.988281 C 81.90625 184.035156 79.308594 187.515625 79.355469 193.203125 C 79.367188 194.277344 78.90625 194.671875 78.132812 194.671875 L 70.230469 194.726562 C 70.230469 194.726562 70.21875 194.726562 70.21875 194.726562 C 69.378906 194.726562 68.921875 194.199219 68.921875 193.664062 C 68.851562 183.664062 74.316406 175.335938 87.996094 175.234375 C 88.074219 175.234375 88.144531 175.234375 88.222656 175.234375 Z M 135.523438 174.886719 C 148.253906 174.886719 155.921875 184.558594 156.023438 198.554688 C 156.125 212.617188 148.523438 222.425781 135.679688 222.523438 C 135.625 222.523438 135.558594 222.523438 135.5 222.523438 C 122.769531 222.523438 115.101562 212.851562 115 198.855469 C 114.902344 184.785156 122.503906 174.976562 135.34375 174.886719 C 135.398438 174.886719 135.46875 174.886719 135.523438 174.886719 Z M 159.527344 0.703125 C 159.136719 0.703125 158.742188 0.703125 158.351562 0.703125 C 72.210938 1.332031 2.585938 70.433594 0.738281 155.988281 L 0.804688 165.316406 C 3.617188 243.292969 62.574219 306.773438 138.253906 316.882812 L 180.71875 316.882812 C 258.867188 306.449219 318.875 239.238281 318.292969 158.339844 C 317.65625 71.046875 246.683594 0.703125 159.527344 0.703125 Z M 159.527344 0.703125 " clip-rule="nonzero"/></clipPath><clipPath id="2cb0d2306a"><rect x="0" width="319" y="0" height="317"/></clipPath></defs><g clip-path="url(#094cc8a865)"><g clip-path="url(#4423729e60)"><g transform="matrix(1, 0, 0, 1, 28, 28)"><g clip-path="url(#2cb0d2306a)"><g clip-path="url(#e14f578c4a)"><g clip-path="url(#3001cac755)"><path fill="#fefefe" d="M 0.703125 0.703125 L 318.296875 0.703125 L 318.296875 318.296875 L 0.703125 318.296875 Z M 0.703125 0.703125 " fill-opacity="1" fill-rule="nonzero"/></g></g></g></g></g></g></svg>